<svg version="1.1" xmlns="http://www.w3.org/2000/svg" xmlns:xlink="http://www.w3.org/1999/xlink" x="0px" y="0px"
     viewBox="0 0 253.2 62.5" xml:space="preserve">
<style type="text/css">
	.st0{fill:#646363;}
	.st1{fill:#95C11F;}
	.st2{fill:#E4003C;}
</style>
	<path class="st0" d="M49.5,17.6h10.1c4.8-0.2,8.5,2.2,9.6,6.7c1.1,4.5,0.8,10.1-2.5,13c-0.9,0.9-2,1.5-3.1,1.8
		c-1.5,0.4-2.8,0.6-4.1,0.6H49.5V17.6z M56.4,22.6v12.1H58c1.4,0,2.4-0.2,3-0.5c2.7-1.3,2.3-8.5,0.8-10.3c-0.8-0.9-2-1.3-3.8-1.3
		H56.4z"/>
  <path class="st0" d="M88.7,33.2H76.4c0.1,1,0.4,1.7,0.8,2.2c0.9,1.2,2.7,1.3,4,0.6c0.3-0.2,0.7-0.5,1.1-1l6,0.6
  c-0.9,1.6-2,2.7-3.3,3.4c-2.2,1.3-8.3,1.4-10.6,0.1c-1.2-0.6-2.2-1.5-3-2.8c-1.9-3.1-1.5-8.2,1.2-10.7c2.4-2.8,9-2.9,12-1.3
  c1.3,0.7,2.3,1.7,3,3c0.7,1.3,1,3,1,5.1L88.7,33.2L88.7,33.2z M82.4,30.3c-0.1-1.2-0.4-2-0.9-2.6c-1.1-1.1-3.4-1-4.3,0.4
  c-0.4,0.5-0.6,1.2-0.7,2.2L82.4,30.3L82.4,30.3z"/>
  <path class="st0" d="M97.6,17.6h6.8V26l7.2-8.4h9.1l-8.1,8.3l8.4,13.8h-8.4l-4.7-9.1l-3.5,3.7v5.4h-6.8V17.6z"/>
  <path class="st0" d="M121,23.7h5.8v2.6c0.6-1.1,1.1-1.9,1.7-2.3c1.5-1,3.4-0.7,5.1,0.2l-1.9,4.4c-1.5-0.6-2.7-0.7-3.6,0.5
  c-0.6,0.9-0.9,2.7-0.9,5.2v5.4H121L121,23.7L121,23.7z"/>
  <path class="st0" d="M133.1,17.6h6.1v4.2h-6.1V17.6z M133.1,23.7h6.1v16h-6.1V23.7z"/>
  <path class="st0" d="M158.6,33.2h-12.3c0.1,1,0.4,1.7,0.8,2.2c0.9,1.2,2.7,1.3,4,0.6c0.3-0.2,0.7-0.5,1.1-1l6,0.6
  c-0.9,1.6-2,2.7-3.3,3.4c-2.2,1.3-8.2,1.4-10.6,0.1c-4.8-2.2-5.6-10-1.8-13.5c2.4-2.8,9-2.9,12.1-1.3c1.3,0.7,2.3,1.7,3,3
  c0.7,1.3,1,3,1,5.1L158.6,33.2L158.6,33.2z M152.4,30.3c-0.1-1.2-0.4-2-0.9-2.6c-1.1-1.1-3.4-1-4.3,0.4c-0.4,0.5-0.6,1.2-0.7,2.2
  L152.4,30.3L152.4,30.3z"/>
  <path class="st0" d="M159.4,17.6h6.3V29l4.6-5.3h7.5l-5.7,5.6l6.1,10.4h-6.9l-3.3-6.4l-2.3,2.2v4.2h-6.3L159.4,17.6L159.4,17.6z"/>
  <path class="st0" d="M195,33.2h-12.3c0.1,1,0.4,1.7,0.8,2.2c0.9,1.2,2.7,1.3,4,0.6c0.3-0.2,0.7-0.5,1.1-1l6,0.6
  c-0.9,1.6-2,2.7-3.3,3.4c-2.2,1.3-8.2,1.4-10.6,0.1c-4.8-2.2-5.6-10-1.8-13.5c2.4-2.8,9-2.9,12.1-1.3c1.3,0.7,2.3,1.7,3,3
  c0.7,1.3,1,3,1,5.1L195,33.2L195,33.2z M188.7,30.3c-0.1-1.2-0.4-2-0.9-2.6c-1.1-1.1-3.4-1-4.3,0.4c-0.4,0.5-0.6,1.2-0.7,2.2
  L188.7,30.3L188.7,30.3z"/>
  <path class="st0" d="M195.9,17.6h6.1v22.1h-6.1V17.6z"/>
  <path class="st0" d="M209.3,28.8l-5.9-0.6c0.2-1,0.5-1.8,1-2.4c0.4-0.6,1-1.1,1.8-1.5c0.6-0.3,1.3-0.5,2.3-0.7
  c2.2-0.4,5.8-0.3,7.6,0.1c1.1,0.2,2,0.6,2.8,1.3c1.1,0.9,1.7,2.9,1.7,4.3v7.1c0,0.8,0.1,1.3,0.1,1.8c0.1,0.4,0.3,1,0.6,1.6h-5.8
  c-0.2-0.4-0.4-0.7-0.4-1c-0.1-0.2-0.1-0.6-0.2-1c-0.8,0.8-1.6,1.3-2.4,1.7c-2.2,0.9-6.4,1-8.1-0.7c-1.9-1.5-1.9-4.6-0.4-6.3
  c0.7-0.8,2-1.4,3.9-1.7c2.3-0.5,3.8-0.8,4.5-1c0.7-0.2,1.4-0.4,2.2-0.7c0-0.8-0.1-1.3-0.5-1.6c-0.7-0.7-3.2-0.5-3.9,0
  C209.9,27.7,209.6,28.2,209.3,28.8z M214.6,32.1c-0.8,0.3-1.7,0.6-2.6,0.8c-1.2,0.3-2,0.7-2.4,1c-0.7,0.6-0.7,1.7,0,2.3
  c0.8,0.7,2.4,0.5,3.4,0c0.6-0.3,1-0.7,1.2-1.2c0.2-0.5,0.4-1.1,0.4-1.9L214.6,32.1L214.6,32.1z"/>
  <path class="st0" d="M227.6,28.8l-5.9-0.6c0.2-1,0.5-1.8,1-2.4c0.4-0.6,1-1.1,1.8-1.5c0.6-0.3,1.3-0.5,2.3-0.7
  c2.2-0.4,5.8-0.3,7.6,0.1c1.1,0.2,2,0.6,2.8,1.3c1.1,0.9,1.7,2.9,1.7,4.3v7.1c0,0.8,0.1,1.3,0.1,1.8c0.1,0.4,0.3,1,0.6,1.6H234
  c-0.2-0.4-0.4-0.7-0.4-1c-0.1-0.2-0.1-0.6-0.2-1c-0.8,0.8-1.6,1.3-2.4,1.7c-2.2,0.9-6.4,1-8.1-0.7c-1.9-1.5-1.9-4.6-0.4-6.3
  c0.7-0.8,2-1.4,3.9-1.7c2.3-0.5,3.8-0.8,4.5-1c0.7-0.2,1.4-0.4,2.2-0.7c0-0.8-0.2-1.3-0.5-1.6c-0.7-0.7-3.2-0.5-3.9,0
  C228.2,27.7,227.9,28.2,227.6,28.8z M232.9,32.1c-0.8,0.3-1.7,0.6-2.6,0.8c-1.2,0.3-2,0.7-2.4,1c-0.7,0.6-0.7,1.7,0,2.3
  c0.8,0.7,2.4,0.5,3.4,0c0.6-0.3,1-0.7,1.2-1.2c0.2-0.5,0.4-1.1,0.4-1.9L232.9,32.1L232.9,32.1z"/>
  <path class="st0" d="M240.6,23.7h5.8v2.6c0.5-1.1,1.1-1.9,1.7-2.3c1.5-1,3.4-0.7,5.1,0.2l-1.9,4.4c-1.5-0.6-2.7-0.7-3.6,0.5
  c-0.6,0.9-1,2.7-1,5.2v5.4h-6.2L240.6,23.7L240.6,23.7z"/>
	<path class="st0" d="M54.4,55.7v-1.2h4.3v3.8c-1.9,1.6-4.7,2.1-6.9,0.9c-2.6-1.3-3-4.9-1.8-7.3c1.1-2.4,4.1-3,6.4-2.2
		c0.6,0.2,1.1,0.6,1.4,1c0.3,0.4,0.6,1,0.8,1.7l-1.2,0.3c-0.2-0.5-0.3-0.9-0.6-1.2c-1.1-1.4-3.9-1.3-5,0c-0.3,0.3-0.5,0.6-0.6,1
		c-0.5,1.2-0.5,3.2,0.1,4.3c1.1,2.3,4.5,2.2,6.2,0.8v-1.9C57.4,55.7,54.4,55.7,54.4,55.7z"/>
  <path class="st0" d="M65.6,57.3l1.3,0.2c-0.2,0.8-0.6,1.3-1.1,1.7c-1.2,0.9-3.6,0.8-4.6-0.4c-1.3-1.2-1.2-4.4,0-5.6
  c1.2-1.3,3.7-1.4,4.8,0c0.7,0.7,1,1.9,0.9,3.1h-5.5c0.1,0.8,0.3,1.4,0.7,1.8c0.6,0.7,1.9,0.9,2.7,0.3
  C65.2,58.2,65.5,57.8,65.6,57.3z M61.6,55.3h4.1c-0.1-0.6-0.2-1.1-0.5-1.4c-0.7-0.9-2.2-0.9-3-0.2C61.8,54.2,61.6,54.7,61.6,55.3z"
  />
  <path class="st0" d="M68.6,59.7v-7.3h1.1v1c0.2-0.4,0.5-0.6,0.9-0.9c0.7-0.4,2-0.4,2.6,0c0.3,0.2,0.6,0.5,0.7,0.9
  c1.3-2.1,4.8-1.6,4.5,1.2v5h-1.2v-4.6c0.3-2.8-3.3-2.1-3.1,0.4v4.2H73v-4.8c0-0.6-0.1-1-0.3-1.2c-0.7-0.8-2.3-0.3-2.6,0.7
  c-0.1,0.3-0.2,0.9-0.2,1.5v3.8L68.6,59.7L68.6,59.7z"/>
  <path class="st0" d="M85.5,57.3l1.3,0.2c-0.2,0.8-0.6,1.3-1.1,1.7c-1.2,0.9-3.6,0.8-4.6-0.4c-1.3-1.2-1.2-4.4,0-5.6
  c1.2-1.3,3.7-1.4,4.8,0c0.7,0.7,1,1.9,0.9,3.1h-5.4c0.1,0.8,0.3,1.4,0.7,1.8c0.6,0.7,1.9,0.9,2.7,0.3
  C85.1,58.2,85.3,57.8,85.5,57.3z M81.4,55.3h4.1c-0.1-0.6-0.2-1.1-0.5-1.4c-0.7-0.9-2.2-0.9-3-0.2C81.7,54.2,81.5,54.7,81.4,55.3z"
  />
  <path class="st0" d="M93.5,57.3l1.3,0.2c-0.2,0.8-0.6,1.3-1.1,1.7C92.5,60.2,90,60,89,58.8c-1.3-1.2-1.2-4.4,0-5.6
  c1.2-1.3,3.7-1.4,4.8,0c0.7,0.7,1,1.9,0.9,3.1h-5.4c0.1,0.8,0.3,1.4,0.7,1.8c0.6,0.7,1.9,0.9,2.7,0.3
  C93.1,58.2,93.3,57.8,93.5,57.3z M89.4,55.3h4.1c-0.1-0.6-0.2-1.1-0.5-1.4c-0.7-0.9-2.2-0.9-3-0.2C89.7,54.2,89.5,54.7,89.4,55.3z"
  />
  <path class="st0" d="M96.5,59.7v-7.3h1.1v1c0.7-1.1,2.3-1.5,3.5-1c0.4,0.2,0.7,0.4,0.8,0.6c0.2,0.3,0.3,0.6,0.4,0.9
  c0.1,0.2,0.1,0.6,0.1,1.2v4.5h-1.2v-4.4c0-0.5-0.1-0.9-0.1-1.1c-0.1-0.2-0.3-0.4-0.5-0.6c-0.7-0.4-1.7-0.2-2.2,0.3
  c-0.4,0.3-0.6,1-0.6,1.9v4L96.5,59.7L96.5,59.7z"/>
  <path class="st0" d="M104,57.5l1.2-0.2c0.1,1.5,2.2,1.9,3.2,1.2c0.5-0.4,0.6-1.1,0-1.5c-0.2-0.1-0.6-0.2-1.3-0.4
  c-0.9-0.2-1.5-0.4-1.9-0.6c-1-0.4-1.3-1.7-0.8-2.6c0.2-0.3,0.3-0.5,0.6-0.7c1.5-1,4.6-0.7,4.8,1.5l-1.2,0.2
  c-0.1-0.4-0.2-0.7-0.5-0.9c-0.5-0.4-1.9-0.4-2.3,0c-0.6,0.4-0.4,1.2,0.3,1.4c0.1,0,0.5,0.2,1.1,0.3c1.6,0.5,2.9,0.6,3,2.3
  c0,2.4-3.6,2.9-5.1,1.7C104.4,58.8,104.1,58.2,104,57.5z"/>
  <path class="st0" d="M116.4,57l1.2,0.2c-0.2,2.7-3.8,3.5-5.4,1.7c-1.4-1.4-1.3-5.1,0.7-6.2c1.7-1,4.3-0.3,4.7,1.9l-1.2,0.2
  c-0.1-0.5-0.3-0.8-0.6-1.1c-0.7-0.6-2-0.4-2.6,0.3c-0.8,0.8-0.8,3.5,0,4.2c0.6,0.8,2,0.9,2.7,0.2C116.1,58.1,116.3,57.6,116.4,57z"
  />
  <path class="st0" d="M118.9,59.7V49.6h1.2v3.6c0.8-1.1,2.5-1.3,3.6-0.7c0.4,0.2,0.7,0.5,0.9,0.9c0.2,0.4,0.3,0.9,0.3,1.6v4.6h-1.2
  V55c0-0.6-0.1-1.1-0.4-1.3c-0.5-0.5-1.5-0.5-2.2-0.1c-0.3,0.2-0.6,0.4-0.7,0.8c-0.1,0.3-0.2,0.8-0.2,1.3v4L118.9,59.7L118.9,59.7z"
  />
  <path class="st0" d="M131.6,58.8c-1.8,2-6.3,1.2-5-2c0.2-0.3,0.4-0.5,0.6-0.7c0.3-0.2,0.6-0.3,0.9-0.4c0.2-0.1,0.6-0.1,1.1-0.2
  c1-0.1,1.8-0.3,2.2-0.4c0-0.6,0-1.1-0.3-1.4c-1-0.8-3.1-0.6-3.3,1l-1.2-0.2c0.1-0.5,0.3-0.9,0.6-1.2c0.2-0.3,0.6-0.6,1.1-0.7
  c0.8-0.3,2.4-0.4,3.2,0c0.4,0.2,0.7,0.3,0.9,0.6c0.2,0.2,0.3,0.5,0.4,0.8c0,0.2,0.1,0.6,0.1,1.1v1.7c0.1,1.8-0.1,2,0.4,3.1h-1.3
  C131.7,59.4,131.7,59.1,131.6,58.8z M131.6,56c-0.5,0.2-1.1,0.3-2.1,0.5c-0.5,0.1-0.9,0.2-1.1,0.2c-0.2,0.1-0.4,0.2-0.5,0.4
  c-0.8,1.7,1.5,2.1,2.6,1.4c0.4-0.2,0.6-0.5,0.8-0.9c0.1-0.3,0.2-0.7,0.2-1.2L131.6,56z"/>
  <path class="st0" d="M134.8,62.5V52.3h1.1v0.9c0.3-0.4,0.6-0.6,0.9-0.8c1.4-0.7,3.4,0,4,1.6c0.5,1.2,0.5,2.8,0,3.9
  c-0.6,1.5-2.5,2.3-3.9,1.6c-0.3-0.2-0.6-0.4-0.8-0.7v3.6C136.1,62.5,134.8,62.5,134.8,62.5z M135.9,56c-0.2,2.2,1.9,3.7,3.4,2.1
  c0.8-0.8,0.8-3.4,0-4.2c-0.8-0.9-2-0.9-2.8,0C136.1,54.4,135.9,55.1,135.9,56z"/>
  <path class="st0" d="M142.3,57.5l1.2-0.2c0.1,1.5,2.2,1.9,3.2,1.2c0.5-0.4,0.6-1.1,0-1.5c-0.2-0.1-0.6-0.2-1.3-0.4
  c-0.9-0.2-1.5-0.4-1.9-0.6c-0.4-0.2-0.6-0.4-0.8-0.7c-0.5-0.8-0.3-2,0.6-2.6c0.2-0.1,0.4-0.3,0.8-0.4c1.6-0.4,3.8,0,4,1.9l-1.2,0.2
  c-0.1-0.4-0.2-0.7-0.5-0.9c-0.8-0.7-3.3-0.3-2.5,1.1c0.1,0.1,0.3,0.2,0.5,0.3c0.1,0,0.5,0.2,1.1,0.3c1.3,0.4,1.9,0.4,2.7,1.2
  c1.5,3-2.9,4.3-4.8,2.8C142.8,58.8,142.4,58.2,142.3,57.5z"/>
  <path class="st0" d="M154.8,57l1.2,0.2c-0.2,2.7-3.8,3.5-5.4,1.7c-1.4-1.4-1.3-5.1,0.7-6.2c1.8-1,4.3-0.3,4.7,1.9l-1.2,0.2
  c-0.1-0.5-0.3-0.8-0.6-1.1c-0.7-0.6-2-0.4-2.6,0.3c-0.8,0.8-0.8,3.5,0,4.2c0.6,0.8,2,0.9,2.7,0.2C154.5,58.1,154.7,57.6,154.8,57z"
  />
  <path class="st0" d="M162.2,57.3l1.3,0.2c-0.2,0.8-0.6,1.3-1.1,1.7c-1.2,0.9-3.6,0.8-4.6-0.4c-1.3-1.2-1.2-4.4,0-5.6
  c1.2-1.3,3.7-1.4,4.9,0c0.7,0.7,1,1.9,0.9,3.1H158c0.1,0.8,0.3,1.4,0.7,1.8c0.6,0.7,1.9,0.9,2.7,0.3
  C161.7,58.2,162,57.8,162.2,57.3z M158.1,55.3h4.1c-0.1-0.6-0.2-1.1-0.5-1.4c-0.7-0.9-2.2-0.9-3-0.2
  C158.4,54.2,158.1,54.7,158.1,55.3z"/>
  <path class="st0" d="M165.2,59.7v-7.3h1.1v1c0.7-1.1,2.3-1.5,3.5-1c0.4,0.2,0.6,0.4,0.8,0.6c0.2,0.3,0.3,0.6,0.4,0.9
  c0,0.2,0.1,0.6,0.1,1.2v4.5h-1.2v-4.4c0-0.5-0.1-0.9-0.1-1.1c-0.1-0.2-0.3-0.4-0.5-0.6c-0.7-0.4-1.7-0.2-2.2,0.3
  c-0.4,0.3-0.6,1-0.6,1.9v4L165.2,59.7L165.2,59.7z"/>
  <path class="st0" d="M175.8,58.6l0.2,1.1c-1.8,0.4-2.8,0-2.7-2.1v-4.2h-0.9v-1h0.9v-1.8l1.2-0.7v2.6h1.2v1h-1.2v4.3
  C174.5,58.6,175,58.7,175.8,58.6z"/>
  <path class="st0" d="M177.2,59.7v-7.3h1.1v1.1c0.3-0.5,0.5-0.9,0.8-1c0.6-0.4,1.4-0.3,2,0.1l-0.4,1.1c-0.5-0.3-1.1-0.4-1.6,0
  c-0.2,0.2-0.4,0.4-0.5,0.7c-0.1,0.4-0.2,0.9-0.2,1.4v3.8L177.2,59.7L177.2,59.7z"/>
  <path class="st0" d="M186.8,59.7v-1.1c-0.8,1.2-2.3,1.5-3.5,1c-0.4-0.2-0.6-0.4-0.8-0.6c-0.2-0.2-0.3-0.6-0.4-0.9
  c-0.1-0.2-0.1-0.6-0.1-1.2v-4.5h1.2v4.1c0,0.7,0,1.1,0.1,1.3c0.1,0.3,0.2,0.6,0.5,0.8c0.5,0.4,1.4,0.3,2,0c0.8-0.5,0.9-1.2,0.9-2.2
  v-3.9h1.2v7.3L186.8,59.7L186.8,59.7z"/>
  <path class="st0" d="M190,59.7v-7.3h1.1v1c0.7-1.1,2.5-1.5,3.5-0.9c0.4,0.2,0.6,0.5,0.7,0.9c1.3-2.1,4.8-1.6,4.5,1.2v5h-1.2v-4.6
  c0.3-2.8-3.3-2.1-3.1,0.4v4.2h-1.2v-4.8c0.1-1.5-1.1-2.1-2.3-1.4c-0.3,0.2-0.5,0.4-0.6,0.8c-0.1,0.3-0.2,0.9-0.2,1.5v3.8L190,59.7
  L190,59.7z"/>
  <path class="st0" d="M206,59.7v-7.3h1.1v1c0.7-1.1,2.5-1.5,3.5-0.9c0.3,0.2,0.6,0.5,0.7,0.9c1.3-2.1,4.8-1.6,4.5,1.2v5h-1.2v-4.6
  c0.3-2.8-3.3-2.1-3.1,0.4v4.2h-1.2v-4.8c0.1-1.5-1.1-2.1-2.3-1.4c-0.3,0.2-0.5,0.4-0.6,0.8c-0.1,0.3-0.2,0.9-0.2,1.5v3.8L206,59.7
  L206,59.7z"/>
  <path class="st0" d="M222.8,57.3l1.3,0.2c-0.5,2.6-4.1,3.1-5.7,1.4c-1.3-1.2-1.2-4.4,0-5.6c1.2-1.3,3.7-1.4,4.9,0
  c0.7,0.7,1,1.9,0.9,3.1h-5.4c0.1,0.8,0.3,1.4,0.7,1.8c0.6,0.7,1.9,0.9,2.7,0.3C222.4,58.2,222.6,57.8,222.8,57.3z M218.8,55.3h4.1
  c-0.1-0.6-0.2-1.1-0.5-1.4c-0.7-0.9-2.2-0.9-3-0.2C219,54.2,218.8,54.7,218.8,55.3z"/>
  <path class="st0" d="M228.5,58.6l0.2,1.1c-1.8,0.4-2.8,0-2.7-2.1v-4.2h-0.9v-1h0.9v-1.8l1.2-0.7v2.6h1.2v1h-1.2v4.3
  c0,0.3,0,0.6,0.1,0.7C227.5,58.7,228.1,58.6,228.5,58.6z"/>
  <path class="st0" d="M234,62.5V52.3h1.1v0.9c0.3-0.4,0.6-0.6,0.9-0.8c1.4-0.7,3.4,0,4,1.6c0.5,1.2,0.5,2.8,0,3.9
  c-0.6,1.5-2.5,2.3-3.9,1.6c-0.3-0.2-0.6-0.4-0.8-0.7v3.6C235.2,62.5,234,62.5,234,62.5z M235,56c-0.2,2.2,1.9,3.7,3.4,2.1
  c0.8-0.8,0.8-3.4,0-4.2c-0.8-0.9-2-0.9-2.8,0C235.2,54.4,235,55.1,235,56z"/>
  <path class="st0" d="M241.9,51v-1.4h1.2V51H241.9z M241.9,59.7v-7.3h1.2v7.3H241.9z"/>
  <path class="st0" d="M247.9,58.6l0.2,1.1c-0.9,0.2-2.1,0.2-2.5-0.7c-0.1-0.2-0.1-0.7-0.1-1.5v-4.2h-0.9v-1h0.9v-1.8l1.2-0.7v2.6
  h1.2v1h-1.2v4.3c0,0.3,0,0.6,0.1,0.7c0,0.1,0.1,0.2,0.2,0.2C247.2,58.7,247.5,58.6,247.9,58.6z"/>
  <path class="st1" d="M18.6,2.3c5,5,3,16.8,3,16.8C21,21.3,21,12.9,17,16.9C5.9,27.3-6.5,15,3.9,3.9C8.4-0.6,15-1.3,18.6,2.3"/>
  <path class="st1" d="M33,15.2c-0.1,5.1-7.6,5.1-7.7,0C25.5,10.1,32.9,10.1,33,15.2"/>
  <path class="st2" d="M29.2,22.8c-3.5,0-6.4,2-7.8,5C17.5,19.5,5.1,22.2,5,31.4c0.1,9.2,12.5,11.8,16.3,3.6
			c3.9,8.2,16.3,5.6,16.3-3.6C37.7,26.6,33.9,22.8,29.2,22.8z"/>
</svg>
