<?xml version="1.0" encoding="utf-8"?>
<svg viewBox="350.751 543.997 93.333 41.372" width="93.333" height="41.372" xmlns="http://www.w3.org/2000/svg">
  <g>
    <g transform="matrix(1.333333, 0, 0, -1.333333, 0, 1122.52002)" id="g10">
      <path id="path12" style="fill:#e52325;fill-opacity:1;fill-rule:nonzero;stroke:none" d="m 266.42,426.689 h -3.357 v 3.356 h 3.357 z"/>
      <path id="path14" style="fill:#e52325;fill-opacity:1;fill-rule:nonzero;stroke:none" d="m 266.42,422.842 h -3.357 v 3.395 h 3.357 z"/>
      <path id="path16" style="fill:#e52325;fill-opacity:1;fill-rule:nonzero;stroke:none" d="m 266.42,419.033 h -3.357 v 3.357 h 3.357 z"/>
      <path id="path18" style="fill:#e52325;fill-opacity:1;fill-rule:nonzero;stroke:none" d="m 266.42,415.224 h -3.357 v 3.357 h 3.357 z"/>
      <path id="path20" style="fill:#e52325;fill-opacity:1;fill-rule:nonzero;stroke:none" d="m 266.42,411.377 h -3.357 v 3.394 h 3.357 z"/>
      <g transform="translate(263.0631,407.568)" id="g22">
        <path id="path24" style="fill:#e52325;fill-opacity:1;fill-rule:nonzero;stroke:none" d="M 0,0 V 3.357 H 3.357 V 0"/>
      </g>
      <g transform="translate(270.2672,433.892)" id="g26">
        <path id="path28" style="fill:#e52325;fill-opacity:1;fill-rule:nonzero;stroke:none" d="M 0,0 V -3.394 H -3.394 V 0"/>
      </g>
      <path id="path30" style="fill:#e52325;fill-opacity:1;fill-rule:nonzero;stroke:none" d="m 270.267,426.689 h -3.394 v 3.356 h 3.394 z"/>
      <path id="path32" style="fill:#e52325;fill-opacity:1;fill-rule:nonzero;stroke:none" d="m 270.267,422.842 h -3.394 v 3.395 h 3.394 z"/>
      <path id="path34" style="fill:#e52325;fill-opacity:1;fill-rule:nonzero;stroke:none" d="m 270.267,419.033 h -3.394 v 3.357 h 3.394 z"/>
      <path id="path36" style="fill:#e52325;fill-opacity:1;fill-rule:nonzero;stroke:none" d="m 270.267,415.224 h -3.394 v 3.357 h 3.394 z"/>
      <path id="path38" style="fill:#e52325;fill-opacity:1;fill-rule:nonzero;stroke:none" d="m 270.267,411.377 h -3.394 v 3.394 h 3.394 z"/>
      <g transform="translate(266.8731,407.568)" id="g40">
        <path id="path42" style="fill:#e52325;fill-opacity:1;fill-rule:nonzero;stroke:none" d="M 0,0 V 3.357 H 3.394 V 0"/>
      </g>
      <g transform="translate(274.0761,433.892)" id="g44">
        <path id="path46" style="fill:#e52325;fill-opacity:1;fill-rule:nonzero;stroke:none" d="M 0,0 V -3.394 H -3.357 V 0"/>
      </g>
      <path id="path48" style="fill:#e52325;fill-opacity:1;fill-rule:nonzero;stroke:none" d="m 274.076,422.842 h -3.357 v 3.395 h 3.357 z"/>
      <path id="path50" style="fill:#e52325;fill-opacity:1;fill-rule:nonzero;stroke:none" d="m 278.038,411.377 h -3.394 v 3.394 h 3.394 z"/>
      <path id="path52" style="fill:#e52325;fill-opacity:1;fill-rule:nonzero;stroke:none" d="m 281.848,422.842 h -3.357 v 3.395 h 3.357 z"/>
      <path id="path54" style="fill:#e52325;fill-opacity:1;fill-rule:nonzero;stroke:none" d="m 281.848,415.224 h -3.357 v 3.357 h 3.357 z"/>
      <path id="path56" style="fill:#e52325;fill-opacity:1;fill-rule:nonzero;stroke:none" d="m 281.848,411.377 h -3.357 v 3.394 h 3.357 z"/>
      <g transform="translate(278.4911,407.568)" id="g58">
        <path id="path60" style="fill:#e52325;fill-opacity:1;fill-rule:nonzero;stroke:none" d="M 0,0 V 3.357 H 3.357 V 0"/>
      </g>
      <path id="path62" style="fill:#e52325;fill-opacity:1;fill-rule:nonzero;stroke:none" d="M 285.695,422.842 H 282.3 v 3.395 h 3.395 z"/>
      <path id="path64" style="fill:#e52325;fill-opacity:1;fill-rule:nonzero;stroke:none" d="M 285.695,415.224 H 282.3 v 3.357 h 3.395 z"/>
      <g transform="translate(282.3001,407.568)" id="g66">
        <path id="path68" style="fill:#e52325;fill-opacity:1;fill-rule:nonzero;stroke:none" d="M 0,0 V 3.357 H 3.395 V 0"/>
      </g>
      <path id="path70" style="fill:#e52325;fill-opacity:1;fill-rule:nonzero;stroke:none" d="m 289.503,422.842 h -3.356 v 3.395 h 3.356 z"/>
      <path id="path72" style="fill:#e52325;fill-opacity:1;fill-rule:nonzero;stroke:none" d="m 289.503,419.033 h -3.356 v 3.357 h 3.356 z"/>
      <path id="path74" style="fill:#e52325;fill-opacity:1;fill-rule:nonzero;stroke:none" d="m 289.503,415.224 h -3.356 v 3.357 h 3.356 z"/>
      <path id="path76" style="fill:#e52325;fill-opacity:1;fill-rule:nonzero;stroke:none" d="m 289.503,411.377 h -3.356 v 3.394 h 3.356 z"/>
      <g transform="translate(286.1472,407.568)" id="g78">
        <path id="path80" style="fill:#e52325;fill-opacity:1;fill-rule:nonzero;stroke:none" d="M 0,0 V 3.357 H 3.356 V 0"/>
      </g>
      <path id="path82" style="fill:#e52325;fill-opacity:1;fill-rule:nonzero;stroke:none" d="m 293.313,419.033 h -3.357 v 3.357 h 3.357 z"/>
      <path id="path84" style="fill:#e52325;fill-opacity:1;fill-rule:nonzero;stroke:none" d="m 293.313,415.224 h -3.357 v 3.357 h 3.357 z"/>
      <path id="path86" style="fill:#e52325;fill-opacity:1;fill-rule:nonzero;stroke:none" d="m 293.313,411.377 h -3.357 v 3.394 h 3.357 z"/>
      <g transform="translate(289.9561,407.568)" id="g88">
        <path id="path90" style="fill:#e52325;fill-opacity:1;fill-rule:nonzero;stroke:none" d="M 0,0 V 3.357 H 3.357 V 0"/>
      </g>
      <path id="path92" style="fill:#e52325;fill-opacity:1;fill-rule:nonzero;stroke:none" d="m 300.365,422.842 h -3.394 v 3.395 h 3.394 z"/>
      <path id="path94" style="fill:#e52325;fill-opacity:1;fill-rule:nonzero;stroke:none" d="m 300.365,419.033 h -3.394 v 3.357 h 3.394 z"/>
      <path id="path96" style="fill:#e52325;fill-opacity:1;fill-rule:nonzero;stroke:none" d="m 300.365,415.224 h -3.394 v 3.357 h 3.394 z"/>
      <path id="path98" style="fill:#e52325;fill-opacity:1;fill-rule:nonzero;stroke:none" d="m 300.365,411.377 h -3.394 v 3.394 h 3.394 z"/>
      <g transform="translate(296.9712,407.568)" id="g100">
        <path id="path102" style="fill:#e52325;fill-opacity:1;fill-rule:nonzero;stroke:none" d="M 0,0 V 3.357 H 3.394 V 0"/>
      </g>
      <path id="path104" style="fill:#e52325;fill-opacity:1;fill-rule:nonzero;stroke:none" d="m 304.174,422.842 h -3.356 v 3.395 h 3.356 z"/>
      <path id="path106" style="fill:#e52325;fill-opacity:1;fill-rule:nonzero;stroke:none" d="m 304.174,419.033 h -3.356 v 3.357 h 3.356 z"/>
      <path id="path108" style="fill:#e52325;fill-opacity:1;fill-rule:nonzero;stroke:none" d="m 304.174,415.224 h -3.356 v 3.357 h 3.356 z"/>
      <path id="path110" style="fill:#e52325;fill-opacity:1;fill-rule:nonzero;stroke:none" d="m 304.174,411.377 h -3.356 v 3.394 h 3.356 z"/>
      <g transform="translate(300.8181,407.568)" id="g112">
        <path id="path114" style="fill:#e52325;fill-opacity:1;fill-rule:nonzero;stroke:none" d="M 0,0 V 3.357 H 3.356 V 0"/>
      </g>
      <path id="path116" style="fill:#e52325;fill-opacity:1;fill-rule:nonzero;stroke:none" d="m 308.021,419.033 h -3.394 v 3.357 h 3.394 z"/>
      <path id="path118" style="fill:#e52325;fill-opacity:1;fill-rule:nonzero;stroke:none" d="m 311.83,422.842 h -3.356 v 3.395 h 3.356 z"/>
      <path id="path120" style="fill:#e52325;fill-opacity:1;fill-rule:nonzero;stroke:none" d="m 311.83,419.033 h -3.356 v 3.357 h 3.356 z"/>
      <path id="path122" style="fill:#e52325;fill-opacity:1;fill-rule:nonzero;stroke:none" d="m 317.789,419.033 h -3.394 v 3.357 h 3.394 z"/>
      <path id="path124" style="fill:#e52325;fill-opacity:1;fill-rule:nonzero;stroke:none" d="m 317.789,415.224 h -3.394 v 3.357 h 3.394 z"/>
      <path id="path126" style="fill:#e52325;fill-opacity:1;fill-rule:nonzero;stroke:none" d="m 317.789,411.377 h -3.394 v 3.394 h 3.394 z"/>
      <path id="path128" style="fill:#e52325;fill-opacity:1;fill-rule:nonzero;stroke:none" d="m 321.599,422.842 h -3.357 v 3.395 h 3.357 z"/>
      <path id="path130" style="fill:#e52325;fill-opacity:1;fill-rule:nonzero;stroke:none" d="m 321.599,419.033 h -3.357 v 3.357 h 3.357 z"/>
      <path id="path132" style="fill:#e52325;fill-opacity:1;fill-rule:nonzero;stroke:none" d="m 321.599,415.224 h -3.357 v 3.357 h 3.357 z"/>
      <path id="path134" style="fill:#e52325;fill-opacity:1;fill-rule:nonzero;stroke:none" d="m 321.599,411.377 h -3.357 v 3.394 h 3.357 z"/>
      <g transform="translate(318.2422,407.568)" id="g136">
        <path id="path138" style="fill:#e52325;fill-opacity:1;fill-rule:nonzero;stroke:none" d="M 0,0 V 3.357 H 3.357 V 0"/>
      </g>
      <path id="path140" style="fill:#e52325;fill-opacity:1;fill-rule:nonzero;stroke:none" d="m 325.445,422.842 h -3.394 v 3.395 h 3.394 z"/>
      <g transform="translate(322.0511,407.568)" id="g142">
        <path id="path144" style="fill:#e52325;fill-opacity:1;fill-rule:nonzero;stroke:none" d="M 0,0 V 3.357 H 3.394 V 0"/>
      </g>
      <path id="path146" style="fill:#e52325;fill-opacity:1;fill-rule:nonzero;stroke:none" d="m 329.254,422.842 h -3.356 v 3.395 h 3.356 z"/>
      <path id="path148" style="fill:#e52325;fill-opacity:1;fill-rule:nonzero;stroke:none" d="m 329.254,419.033 h -3.356 v 3.357 h 3.356 z"/>
      <path id="path150" style="fill:#e52325;fill-opacity:1;fill-rule:nonzero;stroke:none" d="m 329.254,415.224 h -3.356 v 3.357 h 3.356 z"/>
      <path id="path152" style="fill:#e52325;fill-opacity:1;fill-rule:nonzero;stroke:none" d="m 329.254,411.377 h -3.356 v 3.394 h 3.356 z"/>
      <g transform="translate(325.8982,407.568)" id="g154">
        <path id="path156" style="fill:#e52325;fill-opacity:1;fill-rule:nonzero;stroke:none" d="M 0,0 V 3.357 H 3.356 V 0"/>
      </g>
      <g transform="translate(333.0631,419.033)" id="g158">
        <path id="path160" style="fill:#e52325;fill-opacity:1;fill-rule:nonzero;stroke:none" d="M 0,0 H -3.356 V 3.357 H 0"/>
      </g>
      <g transform="translate(333.0631,415.224)" id="g162">
        <path id="path164" style="fill:#e52325;fill-opacity:1;fill-rule:nonzero;stroke:none" d="M 0,0 H -3.356 V 3.357 H 0"/>
      </g>
      <g transform="translate(333.0631,411.377)" id="g166">
        <path id="path168" style="fill:#e52325;fill-opacity:1;fill-rule:nonzero;stroke:none" d="M 0,0 H -3.356 V 3.394 H 0"/>
      </g>
    </g>
    <path d="M 352.536 585.305 L 351.807 585.305 L 350.875 582.263 L 351.552 582.263 L 351.98 583.673 C 352.051 583.907 352.119 584.187 352.182 584.486 L 352.186 584.486 C 352.248 584.199 352.32 583.907 352.388 583.673 L 352.82 582.258 L 353.46 582.258 L 352.536 585.305" style="fill: rgb(66, 79, 93); fill-opacity: 1; fill-rule: nonzero; stroke: none;" id="path-1"/>
    <path d="M 353.838 585.305 L 353.838 582.263 L 354.458 582.263 L 354.458 584.638 L 355.269 584.638 L 355.269 585.305 L 353.838 585.305" style="fill: rgb(66, 79, 93); fill-opacity: 1; fill-rule: nonzero; stroke: none;" id="path162"/>
    <path d="M 356.83 583.509 C 356.787 583.369 356.74 583.193 356.71 583.059 L 356.705 583.059 C 356.678 583.193 356.639 583.351 356.595 583.491 L 356.375 584.228 L 357.046 584.228 L 356.83 583.509 Z M 357.35 585.305 L 357.197 584.773 L 356.229 584.773 L 356.072 585.305 L 355.447 585.305 L 356.375 582.263 L 357.11 582.263 L 358.031 585.305 L 357.35 585.305" style="fill: rgb(66, 79, 93); fill-opacity: 1; fill-rule: nonzero; stroke: none;" id="path-2"/>
    <path d="M 359.569 583.509 C 359.524 583.369 359.477 583.193 359.448 583.059 L 359.443 583.059 C 359.414 583.193 359.376 583.351 359.333 583.491 L 359.112 584.228 L 359.785 584.228 L 359.569 583.509 Z M 360.087 585.305 L 359.933 584.773 L 358.968 584.773 L 358.809 585.305 L 358.185 585.305 L 359.112 582.263 L 359.847 582.263 L 360.77 585.305 L 360.087 585.305" style="fill: rgb(66, 79, 93); fill-opacity: 1; fill-rule: nonzero; stroke: none;" id="path166"/>
    <path d="M 363.828 585.305 L 363.66 583.842 C 363.631 583.585 363.607 583.351 363.593 583.176 L 363.588 583.176 C 363.556 583.369 363.512 583.58 363.464 583.777 L 363.061 585.305 L 362.416 585.305 L 362.056 583.895 C 361.999 583.679 361.941 583.409 361.902 583.188 L 361.897 583.188 C 361.888 583.415 361.868 583.638 361.839 583.883 L 361.691 585.305 L 361.071 585.305 L 361.46 582.263 L 362.239 582.263 L 362.647 583.808 C 362.69 583.977 362.734 584.176 362.768 584.381 L 362.773 584.381 C 362.805 584.164 362.844 583.999 362.891 583.819 L 363.315 582.263 L 364.107 582.263 L 364.487 585.305 L 363.828 585.305" style="fill: rgb(66, 79, 93); fill-opacity: 1; fill-rule: nonzero; stroke: none;" id="path-3"/>
    <path d="M 365.514 585.369 C 365.355 585.369 365.164 585.34 365.024 585.299 L 365.049 584.633 C 365.192 584.702 365.381 584.743 365.576 584.743 C 365.783 584.743 365.957 584.627 365.957 584.398 C 365.957 583.936 364.953 584.194 364.953 583.199 C 364.953 582.602 365.321 582.205 366.009 582.205 C 366.144 582.205 366.326 582.229 366.466 582.252 L 366.447 582.884 C 366.31 582.837 366.129 582.807 365.985 582.807 C 365.721 582.807 365.609 582.931 365.609 583.118 C 365.609 583.552 366.634 583.369 366.634 584.304 C 366.634 584.943 366.211 585.369 365.514 585.369" style="fill: rgb(66, 79, 93); fill-opacity: 1; fill-rule: nonzero; stroke: none;" id="path170"/>
    <path d="M 368.684 585.369 C 368.526 585.369 368.335 585.34 368.194 585.299 L 368.217 584.633 C 368.362 584.702 368.551 584.743 368.747 584.743 C 368.953 584.743 369.126 584.627 369.126 584.398 C 369.126 583.936 368.122 584.194 368.122 583.199 C 368.122 582.602 368.491 582.205 369.178 582.205 C 369.314 582.205 369.495 582.229 369.636 582.252 L 369.616 582.884 C 369.481 582.837 369.299 582.807 369.155 582.807 C 368.89 582.807 368.78 582.931 368.78 583.118 C 368.78 583.552 369.804 583.369 369.804 584.304 C 369.804 584.943 369.38 585.369 368.684 585.369" style="fill: rgb(66, 79, 93); fill-opacity: 1; fill-rule: nonzero; stroke: none;" id="path172"/>
    <path d="M 371.287 582.906 L 371.287 585.305 L 370.667 585.305 L 370.667 582.906 L 370.015 582.906 L 370.015 582.263 L 371.941 582.263 L 371.941 582.906 L 371.287 582.906" style="fill: rgb(66, 79, 93); fill-opacity: 1; fill-rule: nonzero; stroke: none;" id="path174"/>
    <path d="M 372.405 585.305 L 372.405 582.263 L 373.944 582.263 L 373.944 582.855 L 373.027 582.855 L 373.027 583.463 L 373.899 583.463 L 373.899 584.036 L 373.027 584.036 L 373.027 584.702 L 373.944 584.702 L 373.944 585.305 L 372.405 585.305" style="fill: rgb(66, 79, 93); fill-opacity: 1; fill-rule: nonzero; stroke: none;" id="path176"/>
    <path d="M 375.716 585.358 C 374.958 585.358 374.596 584.926 374.596 584.235 L 374.596 582.263 L 375.217 582.263 L 375.217 584.066 C 375.217 584.533 375.399 584.731 375.749 584.731 C 376.13 584.731 376.278 584.474 376.278 584.036 L 376.278 582.263 L 376.888 582.263 L 376.888 584.13 C 376.888 584.807 376.538 585.358 375.716 585.358" style="fill: rgb(66, 79, 93); fill-opacity: 1; fill-rule: nonzero; stroke: none;" id="path178"/>
    <path d="M 379.208 585.305 L 378.458 583.819 C 378.372 583.65 378.284 583.434 378.223 583.263 L 378.217 583.263 C 378.227 583.409 378.233 583.562 378.233 583.802 L 378.233 585.305 L 377.637 585.305 L 377.637 582.263 L 378.468 582.263 L 379.193 583.713 C 379.289 583.895 379.376 584.088 379.453 584.293 L 379.458 584.293 C 379.448 584.112 379.442 583.86 379.442 583.546 L 379.437 582.263 L 380.039 582.263 L 380.039 585.305 L 379.208 585.305" style="fill: rgb(66, 79, 93); fill-opacity: 1; fill-rule: nonzero; stroke: none;" id="path180"/>
    <path d="M 381.656 582.85 C 381.584 582.85 381.494 582.85 381.436 582.855 L 381.436 583.761 C 381.484 583.771 381.57 583.777 381.628 583.777 C 381.897 583.777 382.074 583.609 382.074 583.305 C 382.074 583.053 381.935 582.85 381.656 582.85 Z M 381.642 584.375 C 381.59 584.375 381.488 584.368 381.436 584.362 L 381.436 585.305 L 380.816 585.305 L 380.816 582.263 C 381.037 582.252 381.393 582.245 381.7 582.245 C 382.358 582.245 382.734 582.614 382.734 583.263 C 382.734 583.948 382.276 584.375 381.642 584.375" style="fill: rgb(66, 79, 93); fill-opacity: 1; fill-rule: nonzero; stroke: none;" id="path182"/>
    <path d="M 384.356 585.358 C 383.598 585.358 383.237 584.926 383.237 584.235 L 383.237 582.263 L 383.857 582.263 L 383.857 584.066 C 383.857 584.533 384.039 584.731 384.392 584.731 C 384.769 584.731 384.919 584.474 384.919 584.036 L 384.919 582.263 L 385.529 582.263 L 385.529 584.13 C 385.529 584.807 385.177 585.358 384.356 585.358" style="fill: rgb(66, 79, 93); fill-opacity: 1; fill-rule: nonzero; stroke: none;" id="path184"/>
    <path d="M 387.849 585.305 L 387.1 583.819 C 387.012 583.65 386.925 583.434 386.864 583.263 L 386.859 583.263 C 386.868 583.409 386.873 583.562 386.873 583.802 L 386.873 585.305 L 386.277 585.305 L 386.277 582.263 L 387.109 582.263 L 387.834 583.713 C 387.93 583.895 388.016 584.088 388.094 584.293 L 388.099 584.293 C 388.089 584.112 388.085 583.86 388.085 583.546 L 388.08 582.263 L 388.68 582.263 L 388.68 585.305 L 387.849 585.305" style="fill: rgb(66, 79, 93); fill-opacity: 1; fill-rule: nonzero; stroke: none;" id="path186"/>
    <path d="M 390.413 582.906 L 390.413 585.305 L 389.793 585.305 L 389.793 582.906 L 389.14 582.906 L 389.14 582.263 L 391.067 582.263 L 391.067 582.906 L 390.413 582.906" style="fill: rgb(66, 79, 93); fill-opacity: 1; fill-rule: nonzero; stroke: none;" id="path188"/>
    <path d="M 393.827 585.305 L 393.097 585.305 L 392.166 582.263 L 392.842 582.263 L 393.272 583.673 C 393.342 583.907 393.41 584.187 393.473 584.486 L 393.477 584.486 C 393.54 584.199 393.611 583.907 393.68 583.673 L 394.111 582.258 L 394.75 582.258 L 393.827 585.305" style="fill: rgb(66, 79, 93); fill-opacity: 1; fill-rule: nonzero; stroke: none;" id="path190"/>
    <path d="M 396.196 582.872 C 395.861 582.872 395.562 583.182 395.562 583.771 C 395.562 584.304 395.759 584.69 396.181 584.69 C 396.532 584.69 396.834 584.409 396.834 583.79 C 396.834 583.188 396.575 582.872 396.196 582.872 Z M 396.147 585.358 C 395.331 585.358 394.899 584.743 394.899 583.819 C 394.899 582.827 395.532 582.211 396.238 582.211 C 396.95 582.211 397.497 582.702 397.497 583.749 C 397.497 584.749 396.873 585.358 396.147 585.358" style="fill: rgb(66, 79, 93); fill-opacity: 1; fill-rule: nonzero; stroke: none;" id="path192"/>
    <path d="M 399.13 582.872 C 398.794 582.872 398.495 583.182 398.495 583.771 C 398.495 584.304 398.694 584.69 399.116 584.69 C 399.466 584.69 399.77 584.409 399.77 583.79 C 399.77 583.188 399.51 582.872 399.13 582.872 Z M 399.082 585.358 C 398.265 585.358 397.833 584.743 397.833 583.819 C 397.833 582.827 398.467 582.211 399.173 582.211 C 399.885 582.211 400.432 582.702 400.432 583.749 C 400.432 584.749 399.808 585.358 399.082 585.358" style="fill: rgb(66, 79, 93); fill-opacity: 1; fill-rule: nonzero; stroke: none;" id="path194"/>
    <path d="M 401.781 582.82 C 401.715 582.82 401.652 582.827 401.594 582.833 L 401.594 583.609 C 401.657 583.619 401.733 583.619 401.8 583.619 C 402.041 583.619 402.195 583.451 402.195 583.199 C 402.195 582.96 402.038 582.82 401.781 582.82 Z M 402.232 585.305 L 401.618 584.117 L 401.594 584.117 L 401.594 585.305 L 400.975 585.305 L 400.975 582.263 C 401.176 582.252 401.556 582.245 401.873 582.245 C 402.487 582.245 402.853 582.534 402.853 583.123 C 402.853 583.591 402.607 583.883 402.248 583.989 C 402.295 584.072 402.363 584.194 402.436 584.323 L 402.987 585.305 L 402.232 585.305" style="fill: rgb(66, 79, 93); fill-opacity: 1; fill-rule: nonzero; stroke: none;" id="path196"/>
    <path d="M 405.591 585.352 C 404.759 585.352 404.341 584.767 404.341 583.854 C 404.341 582.994 404.763 582.216 405.715 582.216 C 405.865 582.216 406.065 582.24 406.225 582.292 L 406.172 582.954 C 406.012 582.89 405.846 582.855 405.682 582.855 C 405.255 582.855 405.009 583.229 405.009 583.783 C 405.009 584.375 405.277 584.678 405.711 584.678 C 405.884 584.678 406.056 584.638 406.19 584.557 L 406.243 585.223 C 406.037 585.305 405.82 585.352 405.591 585.352" style="fill: rgb(66, 79, 93); fill-opacity: 1; fill-rule: nonzero; stroke: none;" id="path198"/>
    <path d="M 407.914 585.358 C 407.156 585.358 406.795 584.926 406.795 584.235 L 406.795 582.263 L 407.415 582.263 L 407.415 584.066 C 407.415 584.533 407.597 584.731 407.949 584.731 C 408.329 584.731 408.477 584.474 408.477 584.036 L 408.477 582.263 L 409.087 582.263 L 409.087 584.13 C 409.087 584.807 408.736 585.358 407.914 585.358" style="fill: rgb(66, 79, 93); fill-opacity: 1; fill-rule: nonzero; stroke: none;" id="path200"/>
    <path d="M 409.836 585.305 L 409.836 582.263 L 410.455 582.263 L 410.455 584.638 L 411.268 584.638 L 411.268 585.305 L 409.836 585.305" style="fill: rgb(66, 79, 93); fill-opacity: 1; fill-rule: nonzero; stroke: none;" id="path202"/>
    <path d="M 412.53 582.906 L 412.53 585.305 L 411.911 585.305 L 411.911 582.906 L 411.258 582.906 L 411.258 582.263 L 413.184 582.263 L 413.184 582.906 L 412.53 582.906" style="fill: rgb(66, 79, 93); fill-opacity: 1; fill-rule: nonzero; stroke: none;" id="path204"/>
    <path d="M 414.749 585.358 C 413.99 585.358 413.631 584.926 413.631 584.235 L 413.631 582.263 L 414.25 582.263 L 414.25 584.066 C 414.25 584.533 414.432 584.731 414.783 584.731 C 415.162 584.731 415.312 584.474 415.312 584.036 L 415.312 582.263 L 415.922 582.263 L 415.922 584.13 C 415.922 584.807 415.571 585.358 414.749 585.358" style="fill: rgb(66, 79, 93); fill-opacity: 1; fill-rule: nonzero; stroke: none;" id="path206"/>
    <path d="M 417.478 582.82 C 417.411 582.82 417.348 582.827 417.29 582.833 L 417.29 583.609 C 417.353 583.619 417.43 583.619 417.498 583.619 C 417.736 583.619 417.892 583.451 417.892 583.199 C 417.892 582.96 417.732 582.82 417.478 582.82 Z M 417.93 585.305 L 417.315 584.117 L 417.29 584.117 L 417.29 585.305 L 416.671 585.305 L 416.671 582.263 C 416.872 582.252 417.252 582.245 417.569 582.245 C 418.183 582.245 418.549 582.534 418.549 583.123 C 418.549 583.591 418.305 583.883 417.944 583.989 C 417.99 584.072 418.059 584.194 418.131 584.323 L 418.682 585.305 L 417.93 585.305" style="fill: rgb(66, 79, 93); fill-opacity: 1; fill-rule: nonzero; stroke: none;" id="path208"/>
    <path d="M 419.182 585.305 L 419.182 582.263 L 420.721 582.263 L 420.721 582.855 L 419.802 582.855 L 419.802 583.463 L 420.676 583.463 L 420.676 584.036 L 419.802 584.036 L 419.802 584.702 L 420.721 584.702 L 420.721 585.305 L 419.182 585.305" style="fill: rgb(66, 79, 93); fill-opacity: 1; fill-rule: nonzero; stroke: none;" id="path210"/>
    <path d="M 421.401 585.305 L 421.401 582.263 L 422.939 582.263 L 422.939 582.855 L 422.021 582.855 L 422.021 583.463 L 422.896 583.463 L 422.896 584.036 L 422.021 584.036 L 422.021 584.702 L 422.939 584.702 L 422.939 585.305 L 421.401 585.305" style="fill: rgb(66, 79, 93); fill-opacity: 1; fill-rule: nonzero; stroke: none;" id="path212"/>
    <path d="M 423.621 585.305 L 423.621 582.263 L 424.241 582.263 L 424.241 584.638 L 425.051 584.638 L 425.051 585.305 L 423.621 585.305" style="fill: rgb(66, 79, 93); fill-opacity: 1; fill-rule: nonzero; stroke: none;" id="path214"/>
    <path d="M 426.575 585.305 L 426.575 582.263 L 428.111 582.263 L 428.111 582.855 L 427.194 582.855 L 427.194 583.463 L 428.07 583.463 L 428.07 584.036 L 427.194 584.036 L 427.194 584.702 L 428.111 584.702 L 428.111 585.305 L 426.575 585.305" style="fill: rgb(66, 79, 93); fill-opacity: 1; fill-rule: nonzero; stroke: none;" id="path216"/>
    <path d="M 429.601 582.82 C 429.533 582.82 429.471 582.827 429.413 582.833 L 429.413 583.609 C 429.476 583.619 429.552 583.619 429.62 583.619 C 429.861 583.619 430.014 583.451 430.014 583.199 C 430.014 582.96 429.855 582.82 429.601 582.82 Z M 430.052 585.305 L 429.437 584.117 L 429.413 584.117 L 429.413 585.305 L 428.794 585.305 L 428.794 582.263 C 428.995 582.252 429.375 582.245 429.691 582.245 C 430.307 582.245 430.671 582.534 430.671 583.123 C 430.671 583.591 430.426 583.883 430.067 583.989 C 430.115 584.072 430.181 584.194 430.253 584.323 L 430.806 585.305 L 430.052 585.305" style="fill: rgb(66, 79, 93); fill-opacity: 1; fill-rule: nonzero; stroke: none;" id="path218"/>
    <path d="M 431.925 582.855 L 431.925 583.514 L 432.771 583.514 L 432.771 584.094 L 431.925 584.094 L 431.925 585.305 L 431.306 585.305 L 431.306 582.263 L 432.818 582.263 L 432.818 582.855 L 431.925 582.855" style="fill: rgb(66, 79, 93); fill-opacity: 1; fill-rule: nonzero; stroke: none;" id="path220"/>
    <path d="M 434.499 585.358 C 433.76 585.358 433.207 584.849 433.207 583.842 C 433.207 582.936 433.726 582.211 434.61 582.211 C 434.879 582.211 435.153 582.258 435.421 582.364 L 435.306 583.011 C 435.085 582.902 434.865 582.843 434.624 582.843 C 434.187 582.843 433.865 583.182 433.865 583.783 C 433.865 584.368 434.143 584.69 434.553 584.69 C 434.658 584.69 434.764 584.673 434.852 584.638 L 434.852 583.685 L 435.47 583.685 L 435.47 585.136 C 435.172 585.276 434.856 585.358 434.499 585.358" style="fill: rgb(66, 79, 93); fill-opacity: 1; fill-rule: nonzero; stroke: none;" id="path222"/>
    <path d="M 437.286 582.872 C 436.949 582.872 436.652 583.182 436.652 583.771 C 436.652 584.304 436.849 584.69 437.271 584.69 C 437.622 584.69 437.924 584.409 437.924 583.79 C 437.924 583.188 437.665 582.872 437.286 582.872 Z M 437.237 585.358 C 436.419 585.358 435.987 584.743 435.987 583.819 C 435.987 582.827 436.622 582.211 437.328 582.211 C 438.04 582.211 438.587 582.702 438.587 583.749 C 438.587 584.749 437.962 585.358 437.237 585.358" style="fill: rgb(66, 79, 93); fill-opacity: 1; fill-rule: nonzero; stroke: none;" id="path224"/>
    <path d="M 439.129 585.305 L 439.129 582.263 L 440.667 582.263 L 440.667 582.855 L 439.75 582.855 L 439.75 583.463 L 440.623 583.463 L 440.623 584.036 L 439.75 584.036 L 439.75 584.702 L 440.667 584.702 L 440.667 585.305 L 439.129 585.305" style="fill: rgb(66, 79, 93); fill-opacity: 1; fill-rule: nonzero; stroke: none;" id="path226"/>
    <path d="M 442.261 582.861 C 442.17 582.861 442.055 582.866 441.968 582.878 L 441.968 584.673 C 442.025 584.684 442.137 584.69 442.247 584.69 C 442.693 584.69 443.015 584.381 443.015 583.765 C 443.015 583.17 442.761 582.861 442.261 582.861 Z M 442.184 585.322 C 441.847 585.322 441.578 585.31 441.349 585.299 L 441.349 582.263 C 441.573 582.258 442.016 582.245 442.323 582.245 C 443.136 582.245 443.674 582.667 443.674 583.732 C 443.674 584.837 443.026 585.322 442.184 585.322" style="fill: rgb(66, 79, 93); fill-opacity: 1; fill-rule: nonzero; stroke: none;" id="path228"/>
  </g>
</svg>