<svg width="211" height="69" viewBox="0 0 211 69" fill="none" xmlns="http://www.w3.org/2000/svg">
<g clip-path="url(#clip0_664_2395)">
<path d="M27.1332 42.2372C27.2062 43.8782 32.4187 44.7609 35.6852 43.5018C41.0979 41.414 41.5959 37.6662 40.7704 36.732C39.4687 35.2616 37.8178 36.4612 37.2684 37.2221C33.263 42.8627 27.052 40.4093 27.1332 42.2372Z" fill="#636466"/>
<path d="M25.0601 35.7436C25.0303 35.9736 24.9331 36.1895 24.7807 36.3642C24.6283 36.5389 24.4275 36.6645 24.2038 36.725C23.9801 36.7855 23.7435 36.7783 23.5239 36.7043C23.3042 36.6303 23.1115 36.4928 22.9699 36.3091C22.8284 36.1255 22.7445 35.904 22.7288 35.6727C22.7131 35.4413 22.7662 35.2105 22.8816 35.0094C22.997 34.8083 23.1694 34.6459 23.377 34.5428C23.5846 34.4397 23.8181 34.4006 24.0479 34.4302C24.2006 34.45 24.3478 34.4996 24.4813 34.5762C24.6148 34.6529 24.7319 34.7551 24.8259 34.8771C24.9199 34.9991 24.989 35.1384 25.0291 35.287C25.0693 35.4357 25.0798 35.5908 25.0601 35.7436Z" fill="#636466"/>
<path d="M39.8124 30.2113C39.766 30.5682 39.615 30.9033 39.3783 31.1743C39.1416 31.4453 38.8299 31.64 38.4827 31.7338C38.1354 31.8275 37.7682 31.8162 37.4274 31.7011C37.0866 31.586 36.7875 31.3724 36.568 31.0873C36.3486 30.8022 36.2185 30.4584 36.1943 30.0993C36.1701 29.7402 36.2529 29.382 36.4321 29.07C36.6114 28.758 36.879 28.5062 37.2013 28.3464C37.5236 28.1866 37.886 28.126 38.2427 28.1723C38.4796 28.203 38.7081 28.2801 38.9152 28.3992C39.1223 28.5183 39.3039 28.6771 39.4497 28.8665C39.5954 29.0558 39.7025 29.272 39.7647 29.5028C39.8269 29.7336 39.8431 29.9743 39.8124 30.2113Z" fill="#636466"/>
<path d="M25.2631 21.4702C25.1657 21.3065 25.0485 21.1556 24.914 21.0207C22.048 17.6358 14.7219 17.6629 11.4391 19.9971C9.61235 21.2996 6.6462 24.6006 7.55282 27.1758C8.23211 29.1147 11.3417 29.7971 13.09 30.1735C14.2943 30.4307 16.7679 31.0075 18.5027 30.141C18.9702 29.8889 19.3377 29.4849 19.5446 28.9955C20.7672 26.3685 22.679 24.1225 25.0764 22.4965C25.2388 22.3611 25.6041 22.2041 25.2631 21.4702Z" fill="#3B92B2"/>
<path d="M44.2562 25.394C45.0685 25.0151 45.8363 24.5474 46.5457 23.9994C53.6039 18.9518 47.6689 9.20604 41.3847 8.95962C34.2698 8.68883 29.7745 19.4338 29.7745 19.4338C29.7366 19.5855 29.7042 19.7263 29.6798 19.8536C29.5553 20.5576 30.4051 20.5251 30.7786 20.5062C32.0175 20.4363 33.2604 20.5145 34.4809 20.7391C37.5392 21.287 40.368 22.7254 42.6134 24.8741C42.8326 25.0826 43.5309 25.6837 44.2562 25.394Z" fill="#FFD600"/>
<path d="M62.9029 26.8102C59.9259 22.8918 52.3482 24.7088 48.8651 26.7722C47.8448 27.3734 45.1655 29.1335 45.3712 30.3413C45.4804 30.9849 45.5545 31.6339 45.5931 32.2856C45.8115 33.589 45.8361 34.9176 45.6662 36.2283C45.5409 37.1988 45.3085 38.1523 44.9734 39.0716C44.8678 39.3722 44.6513 40.0058 45.0952 40.2847C46.6026 41.219 49.4984 41.5927 50.7162 41.7579C55.1113 42.3617 60.8136 42.0882 63.0409 37.6527C64.5078 34.7389 65.1167 29.713 62.9029 26.8102Z" fill="#F7921E"/>
<path d="M30.2834 48.5493C29.7421 51.2004 30.3998 55.6116 30.7624 56.8193C31.3876 58.9233 34.7299 59.9199 36.7164 60.3396C38.5188 60.7133 44.7298 60.9543 45.4551 58.9558C47.2548 54.0139 43.6933 47.4878 40.8219 45.687C40.6741 45.5895 40.501 45.5374 40.3239 45.5374C40.1469 45.5374 39.9737 45.5895 39.8259 45.687C37.3239 47.3823 34.3221 48.1802 31.3091 47.9509C31.0818 47.9157 30.4268 47.8426 30.2834 48.5493Z" fill="#F1563F"/>
<path d="M18.1102 35.6244C16.776 35.4565 15.0953 36.0171 14.2509 36.5885C8.07778 40.7911 5.56088 48.6089 10.8572 54.7315C13.753 58.0893 14.5676 55.0537 16.5865 52.4948C18.232 50.4124 20.646 49.3454 22.2482 47.2712C22.6538 46.7353 23.0064 46.1612 23.3009 45.5571C23.6717 44.807 23.3442 44.5254 23.2089 44.3954C20.9403 42.3054 19.4592 39.4982 19.0141 36.4449C18.9848 36.2233 18.8779 36.0192 18.7124 35.869C18.5469 35.7188 18.3335 35.6321 18.1102 35.6244Z" fill="#65BD60"/>
<path d="M63.0977 48.3301V59.6112C63.1017 59.6892 63.0899 59.7672 63.0629 59.8405C63.0359 59.9138 62.9943 59.9808 62.9407 60.0375C62.887 60.0942 62.8224 60.1394 62.7508 60.1704C62.6792 60.2014 62.602 60.2175 62.5239 60.2178H62.3805C62.3024 60.2175 62.2253 60.2014 62.1536 60.1704C62.082 60.1394 62.0174 60.0942 61.9638 60.0375C61.9101 59.9808 61.8685 59.9138 61.8415 59.8405C61.8146 59.7672 61.8027 59.6892 61.8067 59.6112V54.1954H56.0098V59.6112C56.0141 59.7674 55.9565 59.9189 55.8495 60.0325C55.7424 60.1462 55.5947 60.2129 55.4387 60.2178H55.2791C55.2016 60.2157 55.1253 60.1983 55.0545 60.1667C54.9837 60.1351 54.9198 60.0898 54.8666 60.0335C54.8133 59.9772 54.7716 59.9109 54.7439 59.8384C54.7163 59.766 54.7031 59.6888 54.7053 59.6112V48.3301C54.7031 48.2525 54.7163 48.1753 54.7439 48.1029C54.7716 48.0304 54.8133 47.9641 54.8666 47.9078C54.9198 47.8515 54.9837 47.8062 55.0545 47.7746C55.1253 47.7429 55.2016 47.7256 55.2791 47.7235H55.4387C55.5947 47.7284 55.7424 47.795 55.8495 47.9087C55.9565 48.0224 56.0141 48.1739 56.0098 48.3301V52.9335H61.8067V48.3301C61.8027 48.2521 61.8146 48.1741 61.8415 48.1008C61.8685 48.0275 61.9101 47.9605 61.9638 47.9038C62.0174 47.8471 62.082 47.8018 62.1536 47.7709C62.2253 47.7399 62.3024 47.7237 62.3805 47.7235H62.5239C62.602 47.7237 62.6792 47.7399 62.7508 47.7709C62.8224 47.8018 62.887 47.8471 62.9407 47.9038C62.9943 47.9605 63.0359 48.0275 63.0629 48.1008C63.0899 48.1741 63.1017 48.2521 63.0977 48.3301ZM73.6091 47.737H73.4494C73.3719 47.7391 73.2956 47.7565 73.2248 47.7881C73.1541 47.8197 73.0902 47.865 73.0369 47.9213C72.9836 47.9777 72.942 48.044 72.9143 48.1164C72.8866 48.1889 72.8735 48.2661 72.8757 48.3436V55.7037C72.8757 58.0325 72.0232 59.0697 70.1071 59.0697C68.191 59.0697 67.3196 58.0325 67.3196 55.7037V48.3301C67.3239 48.1739 67.2663 48.0224 67.1593 47.9087C67.0522 47.795 66.9045 47.7284 66.7485 47.7235H66.5861C66.4301 47.7284 66.2824 47.795 66.1754 47.9087C66.0684 48.0224 66.0107 48.1739 66.0151 48.3301V55.6902C66.0151 58.7149 67.4305 60.3126 70.1071 60.3126C72.7837 60.3126 74.1828 58.7149 74.1828 55.6902V48.3301C74.1836 48.1758 74.124 48.0274 74.0168 47.9165C73.9095 47.8057 73.7632 47.7413 73.6091 47.737ZM77.9934 47.737H77.8337C77.7562 47.7391 77.6799 47.7565 77.6091 47.7881C77.5383 47.8197 77.4745 47.865 77.4212 47.9213C77.3679 47.9777 77.3263 48.044 77.2986 48.1164C77.2709 48.1889 77.2578 48.2661 77.2599 48.3436V59.6248C77.2578 59.7023 77.2709 59.7795 77.2986 59.852C77.3263 59.9244 77.3679 59.9907 77.4212 60.047C77.4745 60.1034 77.5383 60.1486 77.6091 60.1803C77.6799 60.2119 77.7562 60.2292 77.8337 60.2314H77.9934C78.1494 60.2264 78.2971 60.1598 78.4041 60.0461C78.5111 59.9324 78.5688 59.7809 78.5644 59.6248V48.3301C78.5652 48.1763 78.506 48.0282 78.3993 47.9175C78.2926 47.8067 78.147 47.742 77.9934 47.737ZM85.6036 53.383L84.5779 52.7602C83.0921 51.8558 82.5644 51.371 82.5644 50.4395C82.5644 49.7382 82.8729 48.9312 85.2707 48.9312C85.9473 48.9312 87.2869 49.0449 87.4168 49.0585C87.4845 49.0585 87.5467 49.0585 87.6036 49.0585C88.1963 49.0585 88.2423 48.6252 88.2423 48.4925V48.4113C88.2423 47.8697 87.7145 47.8101 87.5494 47.7939C86.7984 47.7044 86.0432 47.6547 85.287 47.645C82.678 47.645 81.2437 48.6333 81.2437 50.4287C81.2437 52.1211 82.3425 52.9281 83.8959 53.8867L84.9541 54.5393C86.7538 55.6604 87.2247 55.9935 87.2247 56.9575C87.2247 57.9892 86.9081 59.0426 84.5508 59.0426C83.7573 59.0333 82.965 58.98 82.1774 58.8828H82.0799C82.0012 58.8743 81.9215 58.8832 81.8465 58.9088C81.7716 58.9345 81.7032 58.9763 81.6461 59.0313C81.5891 59.0863 81.5448 59.1532 81.5164 59.2272C81.488 59.3012 81.4762 59.3805 81.4818 59.4596V59.5246C81.4818 60.0445 81.9609 60.123 82.1665 60.1582C82.956 60.2731 83.7531 60.3275 84.5508 60.3207C87.8661 60.3207 88.5616 58.4956 88.5616 56.9629C88.5616 55.2732 87.4439 54.477 85.6036 53.3695V53.383ZM103.612 47.737H103.436C103.31 47.7415 103.189 47.7867 103.092 47.8658C102.994 47.945 102.925 48.0537 102.894 48.1757L99.6333 58.9451C99.6214 58.9813 99.6069 59.0166 99.59 59.0507H99.5196C99.4977 59.0188 99.482 58.9829 99.4736 58.9451L96.2124 48.1865C96.1841 48.0623 96.1159 47.9507 96.0181 47.869C95.9203 47.7873 95.7984 47.74 95.6712 47.7343H95.4953C95.4061 47.733 95.3178 47.753 95.2378 47.7925C95.1578 47.8321 95.0884 47.8901 95.0352 47.9618C94.9775 48.0417 94.9398 48.1343 94.9252 48.2318C94.9106 48.3294 94.9195 48.429 94.9513 48.5223L98.1989 59.3134C98.282 59.6018 98.4566 59.8553 98.6962 60.0357C98.9359 60.2162 99.2278 60.3138 99.5277 60.3138C99.8277 60.3138 100.12 60.2162 100.359 60.0357C100.599 59.8553 100.773 59.6018 100.857 59.3134L104.153 48.5142C104.185 48.4204 104.194 48.3204 104.179 48.2224C104.164 48.1245 104.127 48.0314 104.069 47.9509C104.015 47.8821 103.945 47.8269 103.866 47.7898C103.786 47.7527 103.699 47.7346 103.612 47.737ZM113.817 59.4921C113.853 59.5877 113.865 59.6905 113.852 59.7917C113.84 59.893 113.804 59.9898 113.747 60.0743C113.694 60.1407 113.627 60.1939 113.551 60.2296C113.474 60.2653 113.39 60.2826 113.306 60.2801H113.114C112.989 60.2776 112.869 60.2344 112.771 60.1572C112.673 60.0799 112.604 59.9729 112.572 59.8522L111.295 55.7335H107.13L105.885 59.8577C105.847 59.9742 105.776 60.0767 105.679 60.152C105.583 60.2273 105.466 60.2719 105.344 60.2801H105.135C105.052 60.2818 104.969 60.2641 104.893 60.2284C104.818 60.1927 104.751 60.1399 104.7 60.0743C104.642 59.9905 104.605 59.8944 104.592 59.7938C104.578 59.6932 104.588 59.5908 104.621 59.4948L107.901 48.6631C107.977 48.371 108.15 48.1132 108.391 47.9318C108.633 47.7503 108.928 47.6559 109.23 47.6639C109.528 47.6555 109.82 47.7484 110.058 47.9274C110.297 48.1064 110.467 48.361 110.543 48.6496L113.817 59.4921ZM107.506 54.4283H110.919L109.295 49.0125C109.265 48.9068 109.241 48.9068 109.216 48.9068C109.2 48.9025 109.182 48.9025 109.165 48.9068C109.153 48.9311 109.144 48.9565 109.138 48.9827L107.506 54.4283ZM123.979 47.737H123.787C123.711 47.7387 123.635 47.7559 123.565 47.7876C123.495 47.8193 123.432 47.8649 123.38 47.9216C123.328 47.9783 123.289 48.0449 123.263 48.1175C123.238 48.19 123.227 48.2669 123.233 48.3436V58.3818L118.226 48.3111C118.126 48.078 117.95 47.8861 117.726 47.7675C117.502 47.649 117.244 47.6109 116.995 47.6598C116.746 47.7086 116.522 47.8413 116.359 48.0357C116.197 48.2302 116.106 48.4746 116.101 48.7281V59.6112C116.099 59.6886 116.112 59.7658 116.139 59.8382C116.166 59.9106 116.208 59.977 116.261 60.0333C116.314 60.0897 116.378 60.135 116.448 60.1667C116.519 60.1983 116.595 60.2157 116.672 60.2178H116.832C116.91 60.2157 116.986 60.1983 117.057 60.1667C117.127 60.1351 117.191 60.0898 117.245 60.0335C117.298 59.9772 117.339 59.9109 117.367 59.8384C117.395 59.766 117.408 59.6888 117.406 59.6112V49.5919L122.434 59.6708C122.525 59.8519 122.652 60.0123 122.808 60.142C123.022 60.2845 123.28 60.346 123.536 60.3153C123.677 60.3135 123.817 60.2827 123.946 60.2247C124.075 60.1668 124.191 60.0829 124.287 59.9784C124.383 59.8738 124.456 59.7508 124.502 59.6169C124.548 59.4829 124.567 59.3409 124.556 59.1996V48.3301C124.558 48.253 124.545 48.1762 124.517 48.1043C124.489 48.0325 124.447 47.967 124.393 47.9117C124.339 47.8564 124.275 47.8124 124.204 47.7824C124.133 47.7524 124.057 47.737 123.979 47.737ZM139.676 47.737H139.533C139.455 47.7373 139.378 47.7534 139.306 47.7844C139.234 47.8154 139.17 47.8606 139.116 47.9173C139.062 47.974 139.021 48.0411 138.994 48.1143C138.967 48.1876 138.955 48.2656 138.959 48.3436V52.9471H133.176V48.3436C133.178 48.2661 133.165 48.1889 133.137 48.1164C133.109 48.044 133.068 47.9777 133.014 47.9213C132.961 47.865 132.897 47.8197 132.826 47.7881C132.756 47.7565 132.679 47.7391 132.602 47.737H132.442C132.365 47.7391 132.288 47.7565 132.218 47.7881C132.147 47.8197 132.083 47.865 132.03 47.9213C131.976 47.9777 131.935 48.044 131.907 48.1164C131.879 48.1889 131.866 48.2661 131.868 48.3436V59.6248C131.866 59.7023 131.879 59.7795 131.907 59.852C131.935 59.9244 131.976 59.9907 132.03 60.047C132.083 60.1034 132.147 60.1486 132.218 60.1803C132.288 60.2119 132.365 60.2292 132.442 60.2314H132.602C132.679 60.2292 132.756 60.2119 132.826 60.1803C132.897 60.1486 132.961 60.1034 133.014 60.047C133.068 59.9907 133.109 59.9244 133.137 59.852C133.165 59.7795 133.178 59.7023 133.176 59.6248V54.2089H138.97V59.6248C138.966 59.7028 138.978 59.7808 139.005 59.854C139.032 59.9273 139.073 59.9943 139.127 60.051C139.181 60.1078 139.245 60.153 139.317 60.184C139.388 60.215 139.466 60.2311 139.544 60.2314H139.687C139.765 60.2311 139.842 60.215 139.914 60.184C139.986 60.153 140.05 60.1078 140.104 60.051C140.157 59.9943 140.199 59.9273 140.226 59.854C140.253 59.7808 140.265 59.7028 140.261 59.6248V48.3301C140.263 48.2532 140.25 48.1766 140.222 48.105C140.194 48.0333 140.152 47.9679 140.099 47.9126C140.045 47.8574 139.981 47.8134 139.911 47.7832C139.84 47.7531 139.764 47.7374 139.687 47.737H139.676ZM149.53 47.737H145.414C143.909 47.737 143.178 48.4221 143.178 49.8302V58.1381C143.178 59.5462 143.909 60.2314 145.414 60.2314H149.541C149.62 60.2373 149.7 60.2268 149.775 60.2003C149.851 60.1739 149.92 60.1321 149.978 60.0776C150.036 60.0232 150.082 59.9572 150.114 59.8839C150.145 59.8106 150.161 59.7316 150.161 59.6519V59.5246C150.16 59.4474 150.143 59.3712 150.112 59.3007C150.08 59.2302 150.035 59.1669 149.978 59.1147C149.921 59.0624 149.854 59.0223 149.781 58.9969C149.709 58.9715 149.631 58.9612 149.554 58.9668H145.414C144.694 58.9668 144.483 58.8584 144.483 58.1327V54.3416H149.541C149.619 54.3457 149.697 54.3338 149.77 54.3068C149.843 54.2798 149.91 54.2382 149.967 54.1845C150.024 54.1309 150.069 54.0662 150.1 53.9945C150.131 53.9229 150.147 53.8456 150.147 53.7676V53.6078C150.146 53.5306 150.13 53.4544 150.098 53.3839C150.067 53.3134 150.021 53.2501 149.964 53.1979C149.908 53.1456 149.841 53.1055 149.768 53.0801C149.695 53.0547 149.618 53.0444 149.541 53.05H144.477V49.8167C144.477 49.091 144.688 48.9827 145.408 48.9827H149.535C149.612 48.9882 149.69 48.9779 149.763 48.9525C149.835 48.9271 149.902 48.887 149.959 48.8347C150.016 48.7825 150.061 48.7192 150.093 48.6487C150.124 48.5782 150.141 48.502 150.142 48.4248V48.2976C150.14 48.2211 150.122 48.1458 150.091 48.0761C150.059 48.0064 150.014 47.9436 149.959 47.8914C149.903 47.8393 149.837 47.7987 149.765 47.7722C149.694 47.7457 149.617 47.7338 149.541 47.737H149.53ZM160.023 47.737H152.445C152.367 47.733 152.289 47.7448 152.216 47.7718C152.142 47.7988 152.075 47.8404 152.019 47.8941C151.962 47.9478 151.917 48.0124 151.886 48.0841C151.855 48.1558 151.839 48.233 151.839 48.3111V48.4546C151.838 48.5316 151.854 48.6077 151.885 48.6781C151.916 48.7484 151.962 48.8113 152.019 48.8625C152.077 48.9138 152.144 48.9522 152.218 48.9752C152.291 48.9983 152.368 49.0054 152.445 48.9962H155.581V59.6248C155.579 59.7023 155.592 59.7795 155.62 59.852C155.648 59.9244 155.689 59.9907 155.743 60.047C155.796 60.1034 155.86 60.1486 155.931 60.1803C156.001 60.2119 156.078 60.2292 156.155 60.2314H156.315C156.392 60.2292 156.469 60.2119 156.539 60.1803C156.61 60.1486 156.674 60.1034 156.727 60.047C156.781 59.9907 156.822 59.9244 156.85 59.852C156.878 59.7795 156.891 59.7023 156.889 59.6248V48.9827H160.009C160.085 48.9919 160.163 48.9848 160.236 48.9617C160.309 48.9387 160.377 48.9002 160.434 48.849C160.492 48.7977 160.538 48.7349 160.569 48.6645C160.6 48.5942 160.616 48.518 160.615 48.4411V48.2976C160.611 48.1465 160.548 48.0031 160.439 47.8983C160.33 47.7934 160.184 47.7355 160.033 47.737H160.023ZM176.745 48.2136C176.745 48.0511 176.621 47.8887 176.339 47.8887H173.903C173.806 47.884 173.71 47.9069 173.626 47.9549C173.542 48.0028 173.473 48.0738 173.427 48.1595L170.179 52.9552V48.3517C170.179 48.2907 170.167 48.2303 170.143 48.1742C170.119 48.1181 170.084 48.0674 170.04 48.025C169.996 47.9826 169.944 47.9494 169.887 47.9274C169.83 47.9054 169.769 47.895 169.709 47.8968H167.617C167.556 47.895 167.495 47.9054 167.438 47.9274C167.381 47.9494 167.329 47.9826 167.285 48.025C167.241 48.0674 167.206 48.1181 167.182 48.1742C167.158 48.2303 167.146 48.2907 167.146 48.3517V59.5977C167.146 59.7222 167.196 59.8413 167.284 59.9291C167.373 60.0169 167.492 60.0662 167.617 60.0662H169.711C169.773 60.0669 169.835 60.0553 169.892 60.0321C169.95 60.0089 170.002 59.9746 170.047 59.931C170.091 59.8875 170.126 59.8356 170.15 59.7784C170.175 59.7212 170.187 59.6598 170.188 59.5977V54.9428L173.165 59.771C173.208 59.8608 173.276 59.9363 173.361 59.9886C173.446 60.0409 173.544 60.0678 173.644 60.0662H176.396C176.667 60.0662 176.769 59.9118 176.769 59.7575C176.771 59.6597 176.74 59.5642 176.68 59.4867L172.894 53.838L176.648 48.5034C176.71 48.4139 176.748 48.3091 176.756 48.2001L176.745 48.2136ZM181.522 47.8887H179.389C179.33 47.8874 179.271 47.8985 179.216 47.9212C179.161 47.9438 179.112 47.9775 179.071 48.0203C179.029 48.063 178.997 48.1138 178.977 48.1694C178.956 48.225 178.947 48.2843 178.951 48.3436V59.5977C178.947 59.6576 178.956 59.7175 178.977 59.7739C178.997 59.8302 179.029 59.8819 179.07 59.9256C179.111 59.9694 179.16 60.0044 179.215 60.0286C179.27 60.0527 179.329 60.0655 179.389 60.0662H181.533C181.593 60.0658 181.653 60.0534 181.709 60.0295C181.765 60.0057 181.816 59.971 181.858 59.9274C181.9 59.8837 181.934 59.8321 181.956 59.7755C181.978 59.7189 181.989 59.6585 181.987 59.5977V48.3301C181.989 48.2699 181.978 48.2101 181.956 48.1542C181.933 48.0983 181.9 48.0476 181.857 48.0051C181.815 47.9625 181.764 47.9291 181.708 47.9067C181.652 47.8844 181.593 47.8736 181.533 47.8751L181.522 47.8887ZM194.128 47.8887H192.233C192.173 47.8872 192.112 47.8979 192.055 47.92C191.999 47.9422 191.947 47.9754 191.903 48.0177C191.859 48.06 191.824 48.1106 191.8 48.1666C191.776 48.2225 191.763 48.2827 191.762 48.3436V54.913L188.049 48.4465C187.844 48.0836 187.646 47.8751 187.237 47.8751H185.614C185.413 47.8751 185.22 47.955 185.078 48.0972C184.936 48.2394 184.856 48.4322 184.856 48.6333V59.5977C184.857 59.7222 184.907 59.8413 184.995 59.9291C185.083 60.0169 185.202 60.0662 185.327 60.0662H187.221C187.346 60.0662 187.465 60.0169 187.553 59.9291C187.642 59.8413 187.691 59.7222 187.692 59.5977V53.2883L191.297 59.4975C191.379 59.6799 191.515 59.8324 191.687 59.9342C191.859 60.036 192.059 60.0821 192.258 60.0662H193.825C193.925 60.0672 194.025 60.0485 194.118 60.011C194.212 59.9734 194.297 59.9179 194.369 59.8475C194.441 59.7771 194.498 59.6932 194.537 59.6006C194.577 59.508 194.598 59.4086 194.599 59.308V48.3301C194.598 48.27 194.586 48.2105 194.563 48.1551C194.54 48.0997 194.506 48.0495 194.463 48.0072C194.42 47.965 194.37 47.9316 194.314 47.9089C194.258 47.8863 194.199 47.8748 194.139 47.8751L194.128 47.8887ZM206.769 52.9525V55.0159C206.769 58.3764 204.904 60.2259 201.516 60.2259C200.368 60.2261 199.221 60.1446 198.085 59.9822C197.998 59.9777 197.913 59.9554 197.836 59.9166C197.758 59.8777 197.69 59.8233 197.634 59.7567C197.579 59.69 197.538 59.6126 197.514 59.5293C197.49 59.4461 197.483 59.3587 197.495 59.2727V48.6821C197.484 48.5962 197.49 48.509 197.515 48.4259C197.539 48.3428 197.58 48.2655 197.635 48.199C197.691 48.1324 197.759 48.078 197.836 48.0391C197.914 48.0001 197.998 47.9775 198.085 47.9726C199.225 47.8124 200.375 47.7337 201.527 47.737C204.915 47.737 206.78 49.5811 206.78 52.9389L206.769 52.9525ZM200.542 57.5668C200.791 57.5668 201.191 57.5884 201.527 57.5884C202.68 57.5884 203.743 57.277 203.743 55.0024V52.9389C203.743 50.6643 202.68 50.3529 201.527 50.3529C201.194 50.3529 200.794 50.3529 200.542 50.3745V57.5668Z" fill="#636466"/>
</g>
<defs>
<clipPath id="clip0_664_2395">
<rect width="199.395" height="51.6183" fill="white" transform="translate(7.38501 8.95419)"/>
</clipPath>
</defs>
</svg>
