<svg xmlns="http://www.w3.org/2000/svg" viewBox="0 0 311.81 127.56"><path fill="none" d="M0 0h311.46v127.01H0z"/><path fill="#1d1d1b" d="M60.03 12.89h.88v61.17h-.88V12.89z"/><path d="M46.1 41.35a7.77 7.77 0 01-.1 7c-1.19 2.61-5.31 4.62-5.79 4.8A9.64 9.64 0 0148.5 60a11.67 11.67 0 01-2.35 11c-2.19 2.3-4.82 3.4-9.53 3.31-3.16-.06-4.89-.32-8-.29-1.35 0-2.27.1-2.27.1L26.22 73c.91-.21 2.23.1 3.08-1.22.35-.54.6-4.25.67-7 .09-3.47.13-8.9.13-8.9s0-6-.13-9.91c0-.62 0-1-.06-1.58-.09-1.77-.33-4.54-.33-4.54-.13-.7-.08-1.28-1.1-1.76a6.41 6.41 0 00-2.86-.44v-.93a60.85 60.85 0 009.45.06c4.82-.32 9.2.37 11 4.52zm-4.18.08a7.68 7.68 0 01.72 7.57 6.77 6.77 0 01-6.11 3.7 4.87 4.87 0 01-1.73-.32l-.33 1.87a6.72 6.72 0 012.36-.3c3.31 0 5.14 1.87 6.84 4.6a10.8 10.8 0 01-.28 10.91c-2 2.65-4.71 3.41-8 2.84a6.67 6.67 0 01-2-.61s-.15-5.8-.2-9.5c-.08-6.06 0-9.48 0-15.54 0-3.07.11-7.89.11-7.89a9.48 9.48 0 016.69.89 6.33 6.33 0 011.88 1.8z" fill="#1d1d1b" fill-rule="evenodd"/><path d="M31.67 14.13a1.13 1.13 0 111.13 1.12 1.14 1.14 0 01-1.13-1.12zM29.16 14.32a1.12 1.12 0 111.12 1.12 1.12 1.12 0 01-1.12-1.12zM28.07 18.58a1.12 1.12 0 111.12 1.12 1.12 1.12 0 01-1.12-1.12zM27.51 16.18a1.13 1.13 0 111.13 1.12 1.13 1.13 0 01-1.13-1.12zM25.18 15.13a1.12 1.12 0 111.12 1.12 1.12 1.12 0 01-1.12-1.12zM22.8 16.08a1.12 1.12 0 111.12 1.12 1.13 1.13 0 01-1.12-1.12zM21.19 18.11a1.12 1.12 0 111.12 1.12 1.13 1.13 0 01-1.12-1.12zM21.39 20.67a1.13 1.13 0 111.12 1.12 1.13 1.13 0 01-1.12-1.12zM27.4 31c0-.76 4.21-1.38 9.4-1.38s9.41.62 9.41 1.38-4.21 1.36-9.41 1.36-9.4-.61-9.4-1.37zM36.78 14.68A1.92 1.92 0 0134.85 13a4.2 4.2 0 011.93-.35 4.22 4.22 0 011.94.35 1.91 1.91 0 01-1.94 1.66zM39.59 14.09a1.12 1.12 0 111.12 1.12 1.12 1.12 0 01-1.12-1.12zM42.09 14.26a1.12 1.12 0 111.12 1.12 1.12 1.12 0 01-1.12-1.12zM43.75 16.1a1.12 1.12 0 111.12 1.12 1.12 1.12 0 01-1.12-1.12zM46.07 15a1.12 1.12 0 111.12 1.12A1.12 1.12 0 0146.07 15zM43.2 18.5a1.12 1.12 0 111.12 1.12 1.12 1.12 0 01-1.12-1.12zM48.47 16a1.13 1.13 0 012.25 0 1.13 1.13 0 11-2.25 0zM50.12 18a1.12 1.12 0 111.12 1.12A1.12 1.12 0 0150.12 18zM49.93 20.53a1.12 1.12 0 111.12 1.12 1.12 1.12 0 01-1.12-1.12z" fill="#1d1d1b"/><path d="M38.71 12.31a2 2 0 00-1.11-1.38l-.53-.93.09-.11.88.45V8.89l-.85.46-.12-.12.53-.87H36l.52.86-.12.13-.85-.46v1.43l.88-.46.1.12-.53.94a2 2 0 00-1.11 1.39S35 12 36.27 12v-1a1.79 1.79 0 01.51-.07 1.75 1.75 0 01.51.07v1c1.31 0 1.42.35 1.42.35zM36.78 18.92a3.2 3.2 0 00-1.3.18 6.91 6.91 0 00-1.42-4.53c-.05-.37.52-.58.52-.58A2.53 2.53 0 0039 14s.57.21.52.58a6.91 6.91 0 00-1.42 4.53 3.16 3.16 0 00-1.3-.18z" fill="#1d1d1b" fill-rule="evenodd"/><path d="M36.78 19.32a1.58 1.58 0 011.24.35c0 .56-.26.64-.45.84a.63.63 0 00.29 1 .77.77 0 00.68-.36c.11-.16.14-.36.34-.39s.38.32.45.6-.13 1.69-.71 1.58c-.39-.08-.22-.55-.71-.73a.84.84 0 00-.71 0c-.37.16-.22 1 0 1.54a1.28 1.28 0 00.62.73c1.07.47 1.78-1.73 1.89-2.08a.43.43 0 01-.17-.54.44.44 0 01.83 0 .4.4 0 01-.08.45.36.36 0 01-.28.15c-.08.48-.24 2 .58 2.26.34.12.94-.32 1.25-.8s.67-1.37.17-1.5a.57.57 0 00-.61.1c-.36.31-.45.65-.78.53s-.11-.62 0-1 .28-1.12.65-1.13.26.65.77.79a.52.52 0 00.52-.22.75.75 0 00.14-.59c0-.3-.26-.43-.25-.74 0-.85 2-.53 2.16.29.1.42-1.15.71-1.05 1.4 0 .24.35.19.6.11.44-.13.43-.47.81-.53.83-.11-.39 2.53-.85 2-.17-.2-.06-.46-.26-.62a.7.7 0 00-.24-.13c-.63-.21-1.08.69-1 1.34 0 .41.1.81.49.91.55.14 1.55-.61 2.21-1.8a.47.47 0 010-.52.45.45 0 01.42-.21.4.4 0 01.31.16.42.42 0 010 .54.42.42 0 01-.41.18c-.25.55-.95 2-.12 2.23.46.15 1.33-.52 1.46-.64.42-.38 1.17-1 .77-1.23s-1.07.62-1.46.2c-.25-.25.07-.88.37-1.34.18-.27.27-.54.59-.6.52-.1.32.92.83 1.07 1 .29.28-1.49 1.19-1.58.4 0 .68 0 .85.34a1.15 1.15 0 010 .6 23.23 23.23 0 00-4 4.95c-.33-.92-4.16-1.6-9.36-1.6s-9.08.66-9.4 1.58a19.58 19.58 0 00-4-4.93 1.15 1.15 0 010-.6c.17-.32.45-.38.85-.34.91.09.14 1.87 1.19 1.58.51-.15.31-1.17.83-1.07.32.06.41.33.59.6.3.46.62 1.09.38 1.34-.4.42-.92-.55-1.47-.2s.35.85.77 1.23c.13.12 1 .79 1.46.64.83-.26.13-1.68-.12-2.23a.42.42 0 01-.41-.18.44.44 0 010-.54.41.41 0 01.31-.16.44.44 0 01.42.21.45.45 0 010 .52c.66 1.19 1.66 1.94 2.21 1.8.39-.1.46-.5.49-.91.05-.65-.4-1.55-1-1.34a.75.75 0 00-.25.13c-.2.16-.09.42-.26.62-.46.55-1.68-2.09-.85-2 .38.06.37.4.82.53.24.08.56.13.59-.11.1-.69-1.15-1-1.05-1.4.21-.82 2.12-1.14 2.16-.29 0 .31-.25.44-.25.74a.75.75 0 00.14.59.52.52 0 00.51.22c.52-.14.35-.81.78-.79s.55.63.65 1.13.18.93 0 1-.42-.22-.78-.53a.55.55 0 00-.6-.1c-.51.13-.15 1 .16 1.5s.91.92 1.25.8c.83-.29.66-1.78.58-2.26a.36.36 0 01-.28-.15.4.4 0 01-.08-.45.44.44 0 01.83 0 .43.43 0 01-.17.54c.11.35.82 2.55 1.89 2.08a1.28 1.28 0 00.62-.73c.26-.54.41-1.38 0-1.54a.84.84 0 00-.71 0c-.49.18-.32.65-.71.73-.58.11-.79-1.27-.71-1.58s.16-.66.45-.6.23.23.34.39a.77.77 0 00.68.36.63.63 0 00.29-1c-.19-.2-.45-.28-.45-.84a1.58 1.58 0 011.24-.35z" fill="#1d1d1b"/><path d="M36.78 26.43l-1.88 1.11 1.88 1.12 1.89-1.13-1.89-1.1zm6.45 2.3l-2.92-.35v-1.45l2.92.32v1.48zm1.22-.47l1.14-.26.76 1.18-.71.36-1.19-1.28zm-14.12.47l2.92-.35v-1.45l-2.92.32v1.48zm-1.22-.47L28 28l-.77 1.18.71.36 1.19-1.28zm7.67-2c5.2 0 9.43.52 9.26 1.68 0 .32.3.69.79 1.34-.23.23-.89.24-.82.87-.71-.73-5.57-1.15-9.23-1.15s-8.52.44-9.23 1.16c.08-.63-.59-.64-.82-.87.49-.65.79-1 .79-1.34-.16-1.16 4.06-1.68 9.26-1.68z" fill="#1d1d1b" fill-rule="evenodd"/><path fill="#1d1d1b" d="M12.91 12.89h.88v61.17h-.88V12.89zM80 50l-5.8-6.15V50h-1.6V37.93h1.6v5.65l5.47-5.65h2l-5.68 5.61L82.27 50zM87.42 50.2a4.09 4.09 0 01.07-8.2 3.8 3.8 0 014 4.12 3.87 3.87 0 01-4.07 4.08zm0-7.09a2.51 2.51 0 00-2.47 2.81c0 1.69.83 3.19 2.7 3.19 1.62 0 2.34-1.3 2.34-2.85.01-1.82-.99-3.15-2.6-3.15zM99.57 50v-5.16a1.51 1.51 0 00-1.71-1.64 2.83 2.83 0 00-1.87.63V50h-1.5v-7.82H96V43a4.49 4.49 0 012.53-1 2.33 2.33 0 012.5 2.46c.07 1.21 0 5.56 0 5.56zM105.51 39.87a1 1 0 111-1 1 1 0 01-1 1zM104.79 50v-7.82h1.5V50zM115.18 50v-5.16a1.51 1.51 0 00-1.71-1.64 2.86 2.86 0 00-1.87.63V50h-1.49v-7.82h1.49V43a4.53 4.53 0 012.58-.95 2.33 2.33 0 012.5 2.46c.07 1.21 0 5.56 0 5.56zM122.79 55.19c-2.26 0-3.56-1-3.56-2.32 0-1.46 1.8-2.31 1.8-2.31s-1.24-.36-1.24-1.36c0-.7.92-1.28 1.47-1.53a2.83 2.83 0 01-1.53-2.6 3.11 3.11 0 013.3-3 4 4 0 011.71.35h2.5v.92h-1.42a3.16 3.16 0 01.54 1.75A3.09 3.09 0 01123 48.1a6.21 6.21 0 01-.85-.09c-.41.14-1 .43-1 .83s.88.63 2.7.82c2.43.27 3.39.87 3.39 2.27.04 1.77-1.85 3.26-4.45 3.26zm1-4.16l-1.73-.23s-1.51.61-1.51 1.85c0 .78 1 1.48 2.65 1.48 1.53 0 2.64-.81 2.64-1.78.03-.54-.04-1.05-2.02-1.35zM123 43a1.78 1.78 0 00-1.78 2c0 1.29.63 2.17 1.82 2.17s1.81-.82 1.81-2c.01-1.37-.62-2.17-1.85-2.17zM76.05 74.06h-3.44V61.93h3.19c2.3 0 4 .76 4 2.86a3.11 3.11 0 01-1.76 2.7s2.66.53 2.66 2.94c.01 2.66-2.17 3.63-4.65 3.63zM75.6 63h-1.39v4.07a11 11 0 001.3.06c1.92 0 2.57-1 2.57-2.18S77.16 63 75.6 63zm2.34 5.74a4.52 4.52 0 00-2.49-.5h-1.24v4.56a10.35 10.35 0 001.87.11c1.55 0 2.86-.63 2.86-2.33a2.11 2.11 0 00-1-1.83zM87.33 74.21A4.1 4.1 0 0187.4 66a3.81 3.81 0 014 4.13 3.88 3.88 0 01-4.07 4.08zm0-7.1a2.51 2.51 0 00-2.47 2.81c0 1.69.83 3.19 2.7 3.19 1.62 0 2.34-1.3 2.34-2.85-.03-1.82-1-3.15-2.6-3.15zM99.37 74v-.77a4.66 4.66 0 01-2.59.86 2.26 2.26 0 01-2.45-2.43c-.07-1.2 0-5.52 0-5.52h1.49v5.16c.07 1.08.5 1.62 1.65 1.62a2.8 2.8 0 001.89-.68v-6.1h1.5V74zM109.56 74v-.72a3.47 3.47 0 01-2.36.85c-1.94 0-3.36-1.57-3.36-3.85a4 4 0 014.1-4.31 4.47 4.47 0 011.62.27v-5h1.5V74zm0-6.51a2.79 2.79 0 00-1.6-.45c-1.26 0-2.57.66-2.57 3 0 1.9.88 3 2.57 3a2.54 2.54 0 001.6-.61zM117.79 74.21c-1.94 0-3.74-1.28-3.74-4.06 0-2.44 1.51-4.14 3.74-4.14 2.07 0 3.08 1.61 3.08 3.42v.42h-5.37V70a2.74 2.74 0 002.79 3 3.9 3.9 0 002.54-1l.36 1a5.14 5.14 0 01-3.4 1.21zm-.25-7.21a2 2 0 00-1.93 1.94h3.71c0-1-.45-1.94-1.78-1.94zM131.69 74.21h-1.1l-2-6.07-2.07 6.07h-1.1l-2.71-8h1.58l1.8 5.85 1.87-5.85h1.42L131.2 72l1.8-5.85h1.48zM138.72 62.9a1 1 0 10-1 1 1 1 0 001-1zm-.19 11.1v-7.82H137V74zM143.75 73.83c-.06 2-.26 3.31-.8 4.1a2.53 2.53 0 01-2.21 1.19 6.8 6.8 0 01-.7 0l-.18-1h.47a1.56 1.56 0 001.42-.68c.34-.54.47-1.39.54-4.16.05-2.41 0-7.07 0-7.07h1.49s.04 4.54-.03 7.62zm-.69-10a1 1 0 111-1 1 1 0 01-1 1.04zM152.69 74v-5.16c-.08-1.08-.56-1.64-1.71-1.64a2.87 2.87 0 00-1.88.63V74h-1.49v-7.82h1.49V67a4.52 4.52 0 012.58-1 2.33 2.33 0 012.5 2.47c.07 1.21 0 5.56 0 5.56zM159.64 74.19a7.63 7.63 0 01-2.45-.42v-1.35a6.07 6.07 0 002.54.67c1 0 1.48-.33 1.48-1s-.65-1-1.7-1.42-2.12-1.05-2.12-2.42 1.28-2.25 2.7-2.25a5.76 5.76 0 012 .31v1.24a4.3 4.3 0 00-2-.47c-.88 0-1.31.4-1.31 1s.88 1.08 1.82 1.5c1.11.48 2 1 2 2.16-.01 1.64-1.43 2.45-2.96 2.45zM167.47 74.21a1.6 1.6 0 01-1.62-1 7.4 7.4 0 01-.2-2.3c0-1.64.06-3.44.06-3.44h-1.25v-1.11h1.25l.46-1.93h1v1.94h2.32v1h-2.32s0 1.49-.06 2.93a8.78 8.78 0 00.11 2 .75.75 0 00.81.58 2.64 2.64 0 001.58-.68l.18 1a3.79 3.79 0 01-2.32 1.01zM174.11 62.9a1 1 0 10-1 1 1 1 0 001-1zm-.2 11.1v-7.82h-1.49V74zM180.77 74.21a3.75 3.75 0 01-3.92-4.06A3.86 3.86 0 01181 66a4.8 4.8 0 012.29.54l-.29 1.2a5 5 0 00-2.29-.65c-1.36 0-2.41 1-2.41 2.74 0 2.07 1.21 3.21 2.83 3.21a3.43 3.43 0 002.37-1l.35 1a4.57 4.57 0 01-3.08 1.17zM191.41 74v-5.16c-.07-1.08-.55-1.66-1.7-1.66a3 3 0 00-1.88.59V74h-1.53V61.26h1.49V67a4.6 4.6 0 012.58-.94 2.33 2.33 0 012.5 2.47c.07 1.21 0 5.56 0 5.56zM198.56 74.21a1.58 1.58 0 01-1.62-1 7.11 7.11 0 01-.2-2.3v-3.44h-1.24v-1.11h1.24l.47-1.93h1v1.94h2.32v1h-2.32v2.93a8.78 8.78 0 00.11 2 .74.74 0 00.81.58 2.67 2.67 0 001.58-.68l.18 1a3.82 3.82 0 01-2.33 1.01zM204.23 63.87a1 1 0 111-1 1 1 0 01-1 1zM203.5 74v-7.82h1.5V74zM213.89 74v-5.16c-.08-1.08-.56-1.64-1.71-1.64a2.87 2.87 0 00-1.88.63V74h-1.49v-7.82h1.49V67a4.52 4.52 0 012.58-1 2.33 2.33 0 012.5 2.47c.07 1.21 0 5.56 0 5.56zM221.5 79.19c-2.26 0-3.56-1-3.56-2.32 0-1.46 1.8-2.31 1.8-2.31s-1.24-.35-1.24-1.36c0-.71.92-1.28 1.48-1.53a2.82 2.82 0 01-1.54-2.6 3.12 3.12 0 013.3-3.06 4 4 0 011.71.36H226v.92h-1.42a3.16 3.16 0 01.54 1.75 3.1 3.1 0 01-3.33 3.06 6.21 6.21 0 01-.85-.09c-.41.14-1 .43-1 .83s.88.63 2.7.82c2.43.27 3.39.87 3.39 2.27-.03 1.77-1.93 3.26-4.53 3.26zm1-4.16l-1.73-.23s-1.51.61-1.51 1.85c0 .78 1 1.48 2.65 1.48 1.53 0 2.64-.81 2.64-1.78.03-.54-.04-1.05-2.02-1.35zm-.78-8.03a1.78 1.78 0 00-1.78 2c0 1.29.63 2.17 1.82 2.17a1.73 1.73 0 001.82-2c0-1.37-.64-2.17-1.86-2.17zM19 87.17a4.71 4.71 0 00-1.83-.34c-1.11 0-1.76.4-1.76 1.34 0 .6.48 1.13 1.59 1.73s2 1.27 2 2.48c0 1.7-1.38 2.49-3.07 2.49a5.91 5.91 0 01-2.47-.51l.06-1.06A4.76 4.76 0 0016 94c1.25 0 2-.54 2-1.5s-.54-1.21-1.63-1.8-1.91-1.33-1.91-2.47c0-1.51 1.11-2.31 2.73-2.31a6.75 6.75 0 012 .29zM24.26 94.79a2.38 2.38 0 01-.59-.05L24 93a5.09 5.09 0 01-1.3 1.35 2.37 2.37 0 01-1.43.48c-.67 0-1-.58-1-1.48a5.08 5.08 0 011.63-3.9 2.57 2.57 0 011.68-.45 2.11 2.11 0 011.25.35L25 89h.62s-.31 1.34-.57 2.73c-.31 1.64-.38 2.28-.38 2.28a2.71 2.71 0 001-.3l.3.62a3.08 3.08 0 01-1.71.46zm-.82-5.1a1.55 1.55 0 00-1.13.53 5 5 0 00-1 3.08c0 .59.22.67.47.67.76 0 2.22-1.54 2.47-2.48l.28-1.49a1.73 1.73 0 00-1.09-.31zM34.19 94.75a3.2 3.2 0 01-.64 0c.28-2 .73-3.88.73-4.45 0-.3 0-.42-.31-.42-1 0-2.21 1.62-2.39 2.23-.18 1-.38 2.06-.46 2.69h-1c.27-2 .74-3.93.74-4.5 0-.3 0-.42-.31-.42-.91 0-2.19 1.43-2.45 2.37-.09.35-.45 2.55-.45 2.55h-.94c.11-.91.79-4.46 1-5.68h1c-.11.67-.33 1.64-.33 1.64S29.45 89 31 89c.63 0 .85.36.85.94 0 .19-.09.78-.09.78S32.89 89 34.42 89c.63 0 .88.36.88.94s-.42 2.61-.65 4a2.79 2.79 0 001-.3l.3.62a3.13 3.13 0 01-1.76.49zM39.48 92a10.08 10.08 0 01-1.74.43 2 2 0 000 .44c0 .74.3 1.16 1 1.16a3.46 3.46 0 002.19-1l.41.66a4.46 4.46 0 01-2.77 1.18c-1 0-1.8-.45-1.8-1.9 0-1.92 1-4 3.08-4 .86 0 1.5.42 1.5 1.21s-.67 1.38-1.87 1.82zm.18-2.3c-.68 0-1.49.59-1.82 2a6.4 6.4 0 001.27-.31c.67-.23 1.24-.49 1.24-1.13 0-.45-.35-.57-.69-.57zM46.24 94.75a3.15 3.15 0 01-.63 0c.27-2 .72-3.88.72-4.45 0-.3 0-.42-.31-.42-.91 0-2.18 1.43-2.44 2.37-.09.35-.46 2.55-.46 2.55h-.93c.1-.91.79-4.46 1-5.68h1c-.1.67-.32 1.64-.32 1.64S44.89 89 46.48 89c.62 0 .87.36.87.94s-.42 2.61-.65 4a2.71 2.71 0 001-.3l.3.62a3.13 3.13 0 01-1.76.49zM57.77 92.54c-.55.75-1.8 2.34-1.8 2.34L55 91a8.89 8.89 0 01-.8 1.88 10.93 10.93 0 01-1.39 2l-1.55-5.81h.95l1 4a10.13 10.13 0 001.4-4h.75l1 4a7.7 7.7 0 00.79-1 3 3 0 00.57-1.66 2.89 2.89 0 00-.28-1.16l.87-.31a2.89 2.89 0 01.36 1.46 3.82 3.82 0 01-.9 2.14zM62.19 92a10.08 10.08 0 01-1.74.43 2 2 0 000 .44c0 .74.3 1.16 1 1.16a3.46 3.46 0 002.19-1l.41.66a4.46 4.46 0 01-2.77 1.18c-1 0-1.8-.45-1.8-1.9 0-1.92 1-4 3.09-4 .85 0 1.49.42 1.49 1.21s-.67 1.38-1.87 1.82zm.19-2.3c-.69 0-1.5.59-1.82 2a6.42 6.42 0 001.26-.31c.67-.23 1.25-.49 1.25-1.13 0-.45-.36-.57-.69-.57zM68.9 90.28a1.11 1.11 0 00-.72-.36c-.68 0-1.45.86-1.93 2.54-.09.31-.39 2.29-.39 2.29h-.93c.1-.91.75-4.19.89-5.68h1c-.08.67-.31 1.66-.31 1.66.52-1.1 1.33-1.75 2-1.75a1 1 0 01.87.48zM73.91 94.79a1.3 1.3 0 01-.73-.21A8.73 8.73 0 0172 93.49a8.09 8.09 0 00-1.2-1.17c-.11.56-.43 2.43-.43 2.43h-.93c0-.43.4-2.22.75-4.14.39-2.14.91-5.09.91-5.09h.9l-1 5.17S72.16 89 73.59 89a1.06 1.06 0 011.07 1.18c0 1.63-2 2.25-2.45 2.27a9.67 9.67 0 00.79.84c.6.56.83.7 1.21.7a1.6 1.6 0 00.65-.21l.21.63a1.67 1.67 0 01-1.16.38zm-.75-5c-.62 0-1.69 1-2.23 2a4.49 4.49 0 00.63.06c1.13 0 2.09-.75 2.09-1.48 0-.37-.22-.54-.49-.54zM78.52 92a10.08 10.08 0 01-1.74.43 2 2 0 000 .44c0 .74.3 1.16 1 1.16A3.46 3.46 0 0080 93l.41.66a4.46 4.46 0 01-2.77 1.18c-1 0-1.8-.45-1.8-1.9 0-1.92 1-4 3.08-4 .86 0 1.5.42 1.5 1.21s-.7 1.41-1.9 1.85zm.19-2.3c-.69 0-1.5.59-1.82 2a6.42 6.42 0 001.26-.31c.67-.23 1.24-.49 1.24-1.13 0-.45-.39-.57-.68-.57zM85.28 94.75a3.15 3.15 0 01-.63 0c.27-2 .73-3.88.73-4.45 0-.3 0-.42-.32-.42-.91 0-2.18 1.43-2.44 2.37-.09.35-.46 2.55-.46 2.55h-.93c.1-.91.79-4.46 1-5.68h1c-.1.67-.32 1.64-.32 1.64S83.93 89 85.52 89c.62 0 .87.36.87.94s-.42 2.61-.65 4a2.71 2.71 0 001-.3l.3.62a3.13 3.13 0 01-1.76.49zM94.31 94.79a2.38 2.38 0 01-.59-.05L94 93a5.09 5.09 0 01-1.3 1.35 2.35 2.35 0 01-1.43.48c-.66 0-1-.58-1-1.48A5.09 5.09 0 0192 89.47a2.55 2.55 0 011.63-.47 2.11 2.11 0 011.25.35l.21-.35h.62s-.31 1.34-.57 2.73c-.31 1.64-.38 2.28-.38 2.28a2.71 2.71 0 001-.3l.3.62a3.08 3.08 0 01-1.75.46zm-.82-5.1a1.55 1.55 0 00-1.13.53 5 5 0 00-1 3.08c0 .59.22.67.46.67.77 0 2.23-1.54 2.47-2.48l.29-1.49a1.73 1.73 0 00-1.09-.31zM100.9 94.79a2.38 2.38 0 01-.59-.05l.31-1.72a5.15 5.15 0 01-1.29 1.35 2.39 2.39 0 01-1.43.48c-.67 0-1-.58-1-1.48a5.08 5.08 0 011.63-3.9 2.55 2.55 0 011.64-.52 2.11 2.11 0 011.25.35l.21-.35h.62s-.31 1.34-.57 2.73c-.31 1.64-.38 2.28-.38 2.28a2.71 2.71 0 001-.3l.3.62a3.08 3.08 0 01-1.7.51zm-.82-5.1a1.55 1.55 0 00-1.13.53 5 5 0 00-1 3.08c0 .59.22.67.47.67.76 0 2.22-1.54 2.47-2.48l.32-1.47a1.73 1.73 0 00-1.13-.33zM107.44 94.75a3.2 3.2 0 01-.64 0c.27-2 .73-3.88.73-4.45 0-.3 0-.42-.31-.42-.91 0-2.19 1.43-2.45 2.37-.09.35-.45 2.55-.45 2.55h-.94c.1-.91.79-4.46 1-5.68h1c-.1.67-.32 1.64-.32 1.64s1.03-1.76 2.61-1.76c.62 0 .87.36.87.94s-.41 2.61-.65 4a2.71 2.71 0 001-.3l.3.62a3.08 3.08 0 01-1.75.49zM115.24 92a10.31 10.31 0 01-1.75.43 2.64 2.64 0 000 .44c0 .74.29 1.16 1 1.16a3.5 3.5 0 002.2-1l.4.66a4.46 4.46 0 01-2.77 1.18c-1 0-1.79-.45-1.79-1.9 0-1.92 1-4 3.08-4 .86 0 1.49.42 1.49 1.21s-.67 1.38-1.86 1.82zm.18-2.3c-.69 0-1.5.59-1.82 2a6.42 6.42 0 001.26-.31c.68-.23 1.25-.49 1.25-1.13 0-.45-.35-.57-.69-.57zM120.59 92a10.08 10.08 0 01-1.74.43 2 2 0 000 .44c0 .74.3 1.16 1 1.16A3.46 3.46 0 00122 93l.41.66a4.46 4.46 0 01-2.77 1.18c-1 0-1.8-.45-1.8-1.9 0-1.92 1-4 3.08-4 .86 0 1.5.42 1.5 1.21s-.63 1.41-1.83 1.85zm.18-2.3c-.68 0-1.49.59-1.81 2a6.42 6.42 0 001.26-.31c.67-.23 1.24-.49 1.24-1.13 0-.45-.35-.57-.69-.57zM127.35 94.75a3.15 3.15 0 01-.63 0c.27-2 .72-3.88.72-4.45 0-.3 0-.42-.31-.42-.91 0-2.18 1.43-2.44 2.37-.09.35-.46 2.55-.46 2.55h-.93c.1-.91.79-4.46 1-5.68h1c-.1.67-.32 1.64-.32 1.64S126 89 127.59 89c.62 0 .87.36.87.94s-.42 2.61-.65 4a2.71 2.71 0 001-.3l.3.62a3.13 3.13 0 01-1.76.49zM134.59 94.85a3.6 3.6 0 01-2.09-.65l1.5-8.68h.94l-.94 4.86a3 3 0 012.31-1.44c.87 0 1.48.65 1.48 2 .04 2.14-.97 3.91-3.2 3.91zm1.5-5c-1 0-2 1.08-2.37 2.38l-.28 1.53a2.47 2.47 0 001.31.37c1.42 0 2.09-1.28 2.09-3.07 0-.84-.28-1.24-.75-1.24zM141.64 92a10.08 10.08 0 01-1.74.43 2 2 0 000 .44c0 .74.3 1.16 1 1.16a3.47 3.47 0 002.2-1l.4.66a4.46 4.46 0 01-2.77 1.18c-1 0-1.79-.45-1.79-1.9 0-1.92 1-4 3.08-4 .86 0 1.5.42 1.5 1.21s-.68 1.38-1.88 1.82zm.18-2.3c-.69 0-1.49.59-1.82 2a6.24 6.24 0 001.26-.31c.68-.23 1.25-.49 1.25-1.13 0-.45-.35-.57-.69-.57zM148 90h-1.69s-.18 1-.37 2.07a10.37 10.37 0 00-.15 1.36c0 .46.22.59.53.59a2.26 2.26 0 001.22-.6v.83a2.7 2.7 0 01-1.67.6 1 1 0 01-1.08-1 20.69 20.69 0 01.3-2.22c.13-.86.26-1.56.26-1.56h-.88l.13-.77h.87l.45-1.44h.73l-.25 1.45h1.69zM151.25 92a10.08 10.08 0 01-1.74.43 2 2 0 000 .44c0 .74.3 1.16 1 1.16a3.5 3.5 0 002.2-1l.4.66a4.46 4.46 0 01-2.77 1.18c-1 0-1.79-.45-1.79-1.9 0-1.92 1-4 3.08-4 .86 0 1.49.42 1.49 1.21s-.68 1.38-1.87 1.82zm.18-2.3c-.69 0-1.49.59-1.82 2a6.42 6.42 0 001.26-.31c.68-.23 1.25-.49 1.25-1.13 0-.45-.35-.57-.69-.57zM158 90.28a1.15 1.15 0 00-.73-.36c-.68 0-1.44.86-1.93 2.54-.09.31-.39 2.29-.39 2.29H154c.1-.91.75-4.19.9-5.68h1c-.08.67-.31 1.66-.31 1.66.52-1.1 1.34-1.75 2-1.75a1 1 0 01.88.48zM161.13 92a10.08 10.08 0 01-1.74.43 2 2 0 000 .44c0 .74.3 1.16 1 1.16a3.5 3.5 0 002.2-1l.4.66a4.46 4.46 0 01-2.77 1.18c-1 0-1.79-.45-1.79-1.9 0-1.92 1-4 3.08-4 .86 0 1.49.42 1.49 1.21s-.68 1.38-1.87 1.82zm.18-2.3c-.69 0-1.49.59-1.82 2a6.42 6.42 0 001.26-.31c.68-.23 1.25-.49 1.25-1.13 0-.45-.35-.57-.69-.57zM170 90a2.71 2.71 0 00-1.27-.28c-.68 0-1.06.26-1.06.71s.31.67 1 1.13c.42.27 1.24.78 1.24 1.63 0 1.16-.84 1.7-2.12 1.7a3.16 3.16 0 01-1.69-.51l.13-.93a3.05 3.05 0 001.69.65c.74 0 1-.22 1-.68s-.34-.77-1-1.17-1.21-.9-1.21-1.64c0-1.12.9-1.65 2-1.65a3 3 0 011.31.24zM174.92 94.79a2.38 2.38 0 01-.59-.05l.32-1.72a5.09 5.09 0 01-1.3 1.35 2.39 2.39 0 01-1.43.48c-.67 0-.95-.58-.95-1.48a5.08 5.08 0 011.63-3.9 2.57 2.57 0 011.64-.52 2.11 2.11 0 011.25.35l.21-.35h.62s-.31 1.34-.57 2.73c-.31 1.64-.38 2.28-.38 2.28a2.79 2.79 0 001-.3l.29.62a3.08 3.08 0 01-1.74.51zm-.82-5.1a1.55 1.55 0 00-1.13.53 5 5 0 00-1 3.08c0 .59.22.67.47.67.76 0 2.22-1.54 2.47-2.48l.32-1.47a1.73 1.73 0 00-1.13-.33zM184.85 94.75a3.2 3.2 0 01-.64 0c.28-2 .73-3.88.73-4.45 0-.3 0-.42-.31-.42-1 0-2.21 1.62-2.39 2.23-.18 1-.38 2.06-.46 2.69h-1c.27-2 .74-3.93.74-4.5 0-.3 0-.42-.31-.42-.91 0-2.19 1.43-2.45 2.37-.09.35-.45 2.55-.45 2.55h-.94c.11-.91.79-4.46 1-5.68h1c-.1.67-.32 1.64-.32 1.64s1.06-1.76 2.64-1.76c.63 0 .85.36.85.94 0 .19-.09.78-.09.78s1.1-1.72 2.63-1.72c.63 0 .88.36.88.94s-.42 2.61-.65 4a2.79 2.79 0 001-.3l.3.62a3.13 3.13 0 01-1.76.49zM190.14 92a10.08 10.08 0 01-1.74.43 2 2 0 000 .44c0 .74.3 1.16 1 1.16a3.46 3.46 0 002.19-1l.4.66a4.42 4.42 0 01-2.76 1.18c-1 0-1.8-.45-1.8-1.9 0-1.92 1-4 3.08-4 .86 0 1.5.42 1.5 1.21s-.67 1.38-1.87 1.82zm.18-2.3c-.69 0-1.49.59-1.82 2a6.24 6.24 0 001.26-.31c.68-.23 1.25-.49 1.25-1.13-.01-.45-.35-.57-.69-.57zM196.9 94.75a3.33 3.33 0 01-.64 0c.28-2 .73-3.88.73-4.45 0-.3 0-.42-.31-.42-.91 0-2.18 1.43-2.44 2.37-.09.35-.46 2.55-.46 2.55h-.93c.1-.91.79-4.46 1-5.68h1c-.1.67-.33 1.64-.33 1.64s1.03-1.76 2.62-1.76c.62 0 .87.36.87.94s-.42 2.61-.65 4a2.71 2.71 0 001-.3l.3.62a3.13 3.13 0 01-1.76.49zM200.36 94.75h-.94l1.49-9.23h.93zM205 92a10.31 10.31 0 01-1.75.43 2.64 2.64 0 000 .44c0 .74.29 1.16 1 1.16a3.5 3.5 0 002.2-1l.4.66a4.46 4.46 0 01-2.77 1.18c-1 0-1.79-.45-1.79-1.9 0-1.92 1-4 3.08-4 .85 0 1.49.42 1.49 1.21s-.64 1.38-1.86 1.82zm.18-2.3c-.69 0-1.5.59-1.82 2a6.42 6.42 0 001.26-.31c.67-.23 1.25-.49 1.25-1.13.03-.45-.32-.57-.66-.57zM211.89 92.54l-2 2.34s-.36-1.68-.69-3.13-.54-2-.85-2a1.09 1.09 0 00-.63.24l-.08-.71a2.13 2.13 0 011.21-.36c.69 0 .81.65 1.15 2.18.28 1.29.41 2 .41 2a14.83 14.83 0 001-1.22 2.49 2.49 0 00.54-1.57 2.89 2.89 0 00-.28-1.16l.86-.31a2.79 2.79 0 01.37 1.46 3.56 3.56 0 01-1.01 2.24zM214.63 94.75h-.93l.92-5.68h.94zm.73-7.4a.54.54 0 01-.55-.58.75.75 0 01.73-.81c.37 0 .52.25.52.6a.73.73 0 01-.7.79zM220.68 94.75a3.2 3.2 0 01-.64 0c.27-2 .73-3.88.73-4.45 0-.3 0-.42-.31-.42-.92 0-2.19 1.43-2.45 2.37-.09.35-.45 2.55-.45 2.55h-.94c.1-.91.79-4.46 1-5.68h1c-.1.67-.32 1.64-.32 1.64s1.02-1.76 2.61-1.76c.62 0 .87.36.87.94s-.41 2.61-.65 4a2.71 2.71 0 001-.3l.3.62a3.12 3.12 0 01-1.75.49zM228.05 91.68a10.06 10.06 0 00-.37 2.52c0 .31.07 1 .07 1.28a2.65 2.65 0 01-.81 2.26 3.1 3.1 0 01-2.14.67 3.8 3.8 0 01-2.43-.85l.3-.85a3.76 3.76 0 002.26.88 1.87 1.87 0 001.56-.63 2.39 2.39 0 00.31-1.46c0-.6-.05-1-.05-1.32a2 2 0 01.14-1 3.6 3.6 0 01-2.65 1.62c-.66 0-1-.58-1-1.48a5.09 5.09 0 011.64-3.9 2.54 2.54 0 011.64-.52 2.1 2.1 0 011.24.35l.24-.35h.62s-.29 1.4-.57 2.78zm-1.63-2a1.55 1.55 0 00-1.13.53 5 5 0 00-1 3.08c0 .59.22.67.47.67a2.2 2.2 0 001.43-.8 4.05 4.05 0 001-1.55l.35-1.6a1.68 1.68 0 00-1.12-.32z"/></svg>
