<svg xmlns="http://www.w3.org/2000/svg" width="94.35mm" height="30.05mm" viewBox="0 0 267.45 85.18"><defs><style>.cls-1{fill:#157b89;}.cls-2{fill:#20201e;}</style></defs><title>logo-groepintro</title><g id="Layer_2" data-name="Layer 2"><g id="Layer_1-2" data-name="Layer 1"><path class="cls-1" d="M21.36,54.54H11.75a2.1,2.1,0,0,0,0,4.19H19a7.54,7.54,0,1,1-7.24-9.64h6.15a2.09,2.09,0,0,0,0-4.18H11.73A11.73,11.73,0,1,0,23.45,56.64a2.09,2.09,0,0,0-2.09-2.1"/><path class="cls-1" d="M55.8,64.11a5.39,5.39,0,1,1,5.39-5.39,5.4,5.4,0,0,1-5.39,5.39m0-15a9.57,9.57,0,1,0,9.57,9.57,9.59,9.59,0,0,0-9.57-9.57"/><path class="cls-1" d="M87.54,64.11h-7.6a5.39,5.39,0,1,1,5-7.48h-4.3a2.09,2.09,0,1,0,0,4.18h6.81a2.08,2.08,0,0,0,2.09-2.09,9.58,9.58,0,1,0-9.57,9.57h7.6a2.09,2.09,0,0,0,0-4.18"/><path class="cls-1" d="M106,64.11a5.39,5.39,0,0,1-5.39-5.34v-.1A5.39,5.39,0,1,1,106,64.11m0-15a9.53,9.53,0,0,0-5.42,1.68,2.08,2.08,0,0,0-4.15.28v7.56s0,0,0,0,0,0,0,.05V83.08a2.09,2.09,0,1,0,4.18,0V66.63A9.57,9.57,0,1,0,106,49.15"/><path class="cls-1" d="M40.9,49.15H38.55a9.5,9.5,0,0,0-5.41,1.68,2.09,2.09,0,0,0-4.16.28V66.33a2.1,2.1,0,0,0,4.19,0V58.59a5.39,5.39,0,0,1,5.38-5.26H40.9a2.09,2.09,0,1,0,0-4.18"/><path class="cls-2" d="M226.92,63.49a7,7,0,1,1,7-7,7,7,0,0,1-7,7m0-19a12,12,0,1,0,12,12,12,12,0,0,0-12-12"/><path class="cls-2" d="M128.27,44.91a2.33,2.33,0,0,0-2.33,2.33v19a2.33,2.33,0,1,0,4.66,0v-19a2.33,2.33,0,0,0-2.33-2.33"/><path class="cls-2" d="M158.15,44.91a2.33,2.33,0,0,0-2.33,2.33v10L144.18,45.6a.1.1,0,0,0-.05,0,1.81,1.81,0,0,0-.3-.25l-.24-.13-.16-.09-.32-.1a.53.53,0,0,1-.12,0,2.37,2.37,0,0,0-.92,0l-.14,0a2.46,2.46,0,0,0-.29.09l-.18.09-.22.13a1.12,1.12,0,0,0-.24.19l-.12.09,0,0a2.78,2.78,0,0,0-.26.32,2.12,2.12,0,0,0-.11.21,1.14,1.14,0,0,0-.1.19c0,.09-.06.19-.09.28s0,.1,0,.15a2.49,2.49,0,0,0-.05.46v19a2.33,2.33,0,1,0,4.66,0V52.88l11,11v2.36a2.33,2.33,0,1,0,4.66,0v-19a2.33,2.33,0,0,0-2.33-2.33"/><path class="cls-2" d="M196.53,49.57h4a3.91,3.91,0,0,1,0,7.82h-4Zm8.41,11.26a8.56,8.56,0,0,0-4.39-15.92H194.2a2.33,2.33,0,0,0-2.33,2.33v19a2.33,2.33,0,0,0,4.66,0V62.05h3.05l5.81,5.83a2.32,2.32,0,0,0,1.65.69,2.33,2.33,0,0,0,1.65-4Z"/><path class="cls-2" d="M182.9,44.91H168.77a2.33,2.33,0,0,0,0,4.66h4.67V66.24a2.33,2.33,0,1,0,4.66,0V49.57h4.8a2.33,2.33,0,0,0,0-4.66"/><path class="cls-1" d="M253.36,36a.86.86,0,0,0,.53.77h.05a24.26,24.26,0,0,0,8.56,1A15.93,15.93,0,0,0,261,13.42a26.85,26.85,0,0,1-8-12.17h0a1,1,0,0,0,0-.1h0a1.56,1.56,0,0,0-3,0l0,0a26.85,26.85,0,0,1-2.4,5.45.56.56,0,0,0,0,.12,27.09,27.09,0,0,1-5.39,6.52c3.77,0,10.69.87,15.61,6.3a8,8,0,0,1,1,1l0,0a9.22,9.22,0,0,1,2,5.72,9.33,9.33,0,0,1-6.75,9s-.71.21-.67.8"/><path class="cls-2" d="M248.17,18.05a.82.82,0,0,0,.65-.8.81.81,0,0,0-.53-.77h0a24.29,24.29,0,0,0-8.57-1,15.95,15.95,0,0,0,1.51,24.35,26.79,26.79,0,0,1,8,12.17h0a1,1,0,0,0,0,.1h0a1.56,1.56,0,0,0,3,0l0,0a26.85,26.85,0,0,1,2.4-5.45s0-.08,0-.12A26.86,26.86,0,0,1,260,40.09c-3.77,0-10.69-.87-15.61-6.3a8,8,0,0,1-1-1l0,0a9.3,9.3,0,0,1,4.78-14.67Z"/><path class="cls-2" d="M45.67,82.34h1.24a1,1,0,0,0,1.08.92,1,1,0,0,0,1.08-.94,1.11,1.11,0,0,0-1.08-1A2.85,2.85,0,0,1,46.88,81a2,2,0,0,1-1.21-1.9A2.24,2.24,0,0,1,48,76.88,2.16,2.16,0,0,1,50.27,79H49a.92.92,0,0,0-1-.89,1,1,0,0,0-1.08,1,1,1,0,0,0,1.08.94,2.75,2.75,0,0,1,1.1.25,2.1,2.1,0,0,1,1.2,2,2.32,2.32,0,0,1-4.62,0"/><path class="cls-2" d="M56.23,79.89l.9,2.57h-1.8Zm-2.95,4.5h1.33l.32-.86h2.6l.33.86h1.33l-3-7.62Z"/><polygon class="cls-2" points="69.22 76.98 66.52 82.74 63.7 76.98 62.45 76.98 62.45 84.39 63.68 84.39 63.68 79.75 65.95 84.39 67.11 84.39 69.24 79.84 69.24 84.39 70.47 84.39 70.47 76.98 69.22 76.98"/><polygon class="cls-2" points="74.58 76.99 74.58 84.39 79.52 84.39 79.52 83.15 75.82 83.15 75.82 81.3 78.89 81.3 78.89 80.07 75.82 80.07 75.82 78.22 79.52 78.22 79.52 76.99 74.58 76.99"/><polygon class="cls-2" points="88.17 76.99 88.17 82.25 84.48 76.99 83.23 76.99 83.23 84.39 84.47 84.39 84.47 79.12 88.15 84.39 89.39 84.39 89.39 76.99 88.17 76.99"/><path class="cls-2" d="M108.56,80.07h1.23s1.24,0,1.24-.93-1.24-.92-1.24-.92h-1.23Zm1,1.23h-1v3.09h-1.23V77h2.46s2.47,0,2.47,2.15a2,2,0,0,1-1.42,2l1.51,3.28H111Z"/><rect class="cls-2" x="116.14" y="76.99" width="1.24" height="7.4"/><path class="cls-2" d="M126.7,82.54l.87.88A3.71,3.71,0,0,1,125,84.49,3.81,3.81,0,1,1,127.57,78l-.87.87a2.44,2.44,0,0,0-1.74-.72,2.38,2.38,0,0,0-2.46,2.57A2.41,2.41,0,0,0,125,83.26a2.48,2.48,0,0,0,1.74-.72"/><polygon class="cls-2" points="135.61 76.99 135.61 80.05 132.53 80.05 132.53 76.99 131.29 76.99 131.29 84.39 132.53 84.39 132.53 81.3 135.61 81.3 135.61 84.39 136.85 84.39 136.85 76.99 135.61 76.99"/><polygon class="cls-2" points="140.34 76.99 140.34 78.12 141.89 78.12 141.89 84.39 143.12 84.39 143.12 78.12 144.67 78.12 144.67 76.99 140.34 76.99"/><rect class="cls-2" x="148.17" y="76.99" width="1.24" height="7.4"/><polygon class="cls-2" points="158.47 76.99 158.47 82.25 154.78 76.99 153.53 76.99 153.53 84.39 154.76 84.39 154.76 79.12 158.44 84.39 159.69 84.39 159.69 76.99 158.47 76.99"/><path class="cls-2" d="M170.38,80.18V84.4H169.3l-.07-.68a2.8,2.8,0,0,1-2.1.77,3.47,3.47,0,0,1-3.54-3.8,3.7,3.7,0,0,1,3.7-3.81A3.64,3.64,0,0,1,169.9,78l-.87.87a2.47,2.47,0,0,0-4.21,1.85,2.3,2.3,0,0,0,2.47,2.57,2.45,2.45,0,0,0,1.85-.84V81.27h-2V80.18Z"/><path class="cls-2" d="M185.41,80.18V84.4h-1.08l-.06-.68a2.83,2.83,0,0,1-2.11.77,3.47,3.47,0,0,1-3.54-3.8,3.7,3.7,0,0,1,3.7-3.81A3.61,3.61,0,0,1,184.93,78l-.87.87a2.42,2.42,0,0,0-1.74-.72,2.4,2.4,0,0,0-2.46,2.57,2.3,2.3,0,0,0,2.46,2.57,2.43,2.43,0,0,0,1.85-.84V81.27h-2V80.18Z"/><path class="cls-2" d="M190.68,80.07h1.22s1.24,0,1.24-.93-1.24-.92-1.24-.92h-1.22Zm1,1.23h-1v3.09h-1.24V77h2.46s2.48,0,2.48,2.15a2,2,0,0,1-1.43,2l1.51,3.28H193.1Z"/><path class="cls-2" d="M201.58,78.1c-3.19,0-3.2,5.19,0,5.19s3.21-5.19,0-5.19m0,6.38c-4.89,0-4.87-7.59,0-7.59s4.86,7.59,0,7.59"/><polygon class="cls-2" points="209.08 76.99 209.08 84.39 214.02 84.39 214.02 83.15 210.32 83.15 210.32 81.3 213.4 81.3 213.4 80.07 210.32 80.07 210.32 78.22 214.02 78.22 214.02 76.99 209.08 76.99"/><rect class="cls-2" x="217.76" y="76.99" width="1.24" height="7.4"/></g></g></svg>