<?xml version="1.0" encoding="UTF-8"?>
<svg width="283px" height="91px" viewBox="0 0 283 91" version="1.1" xmlns="http://www.w3.org/2000/svg" xmlns:xlink="http://www.w3.org/1999/xlink">
    <title>Sociare_CMYK</title>
    <g id="Sociare_CMYK" stroke="none" stroke-width="1" fill="none" fill-rule="evenodd">
        <path d="M161.4253,31.7586 L161.4253,68.7536 L141.5113,68.7536 L141.5113,31.0246 L141.5853,31.0246 C141.7703,25.8336 146.1273,21.6746 151.5093,21.6746 C157.0093,21.6746 161.4653,26.0086 161.4653,31.3546 C161.4653,31.4906 161.4313,31.6226 161.4253,31.7586" id="Fill-1" fill="#969B21"></path>
        <path d="M151.3819,19.5406 C155.5089,19.5406 158.8489,16.2916 158.8489,12.2816 C158.8489,8.2736 155.5089,5.0236 151.3819,5.0236 C147.2569,5.0236 143.9149,8.2736 143.9149,12.2816 C143.9149,16.2916 147.2569,19.5406 151.3819,19.5406" id="Fill-3" fill="#969B21"></path>
        <path d="M142.479,38.3062 L142.479,75.3012 L122.565,75.3012 L122.565,37.5722 L122.639,37.5722 C122.824,32.3812 127.181,28.2222 132.563,28.2222 C138.063,28.2222 142.519,32.5542 142.519,37.9002 C142.519,38.0382 142.485,38.1702 142.479,38.3062" id="Fill-5" fill="#CBCA81"></path>
        <path d="M132.4357,26.0893 C136.5627,26.0893 139.9027,22.8383 139.9027,18.8283 C139.9027,14.8203 136.5627,11.5723 132.4357,11.5723 C128.3107,11.5723 124.9687,14.8203 124.9687,18.8283 C124.9687,22.8383 128.3107,26.0893 132.4357,26.0893" id="Fill-7" fill="#CBCA81"></path>
        <path d="M151.2841,49.5324 L151.2841,86.5274 L131.3701,86.5274 L131.3701,48.7984 L131.4461,48.7984 C131.6291,43.6074 135.9861,39.4484 141.3701,39.4484 C146.8701,39.4484 151.3271,43.7824 151.3271,49.1284 C151.3271,49.2644 151.2901,49.3964 151.2841,49.5324" id="Fill-9" fill="#004955"></path>
        <path d="M141.2428,37.3157 C145.3678,37.3157 148.7098,34.0647 148.7098,30.0547 C148.7098,26.0467 145.3678,22.7987 141.2428,22.7987 C137.1178,22.7987 133.7758,26.0467 133.7758,30.0547 C133.7758,34.0647 137.1178,37.3157 141.2428,37.3157" id="Fill-11" fill="#004955"></path>
        <path d="M269.7926,73.347 L273.0706,72.124 L273.0706,71.722 L269.8396,70.545 C269.4966,70.422 269.2606,70.322 269.1286,70.25 L269.1286,70.794 C269.3116,70.824 269.4566,70.86 269.6966,70.943 L272.5026,71.911 L269.6866,72.892 C269.4266,72.981 269.2606,73.034 269.1286,73.051 L269.1286,73.655 C269.3016,73.547 269.4966,73.458 269.7926,73.347 L269.7926,73.347 Z M269.4966,70.145 C269.4796,70.043 269.4666,69.82 269.4666,69.554 L269.4666,68.307 L272.7216,70.222 L273.0706,70.222 L273.0706,67.824 L272.6926,67.824 C272.7176,67.935 272.7216,68.048 272.7216,68.414 L272.7216,69.754 L269.4666,67.824 L269.1286,67.824 L269.1286,70.145 L269.4966,70.145 Z M269.7496,67.363 L273.0706,66.612 L273.0706,66.188 L269.7036,65.365 L273.0706,64.533 L273.0706,64.099 L269.7986,63.367 C269.5206,63.31 269.3266,63.25 269.1286,63.174 L269.1286,63.653 C269.2306,63.659 269.4096,63.687 269.5136,63.706 L269.7206,63.753 L272.4386,64.301 L269.1286,65.101 L269.1286,65.548 L272.4386,66.363 L269.7156,66.931 C269.4966,66.973 269.3116,66.997 269.1286,67.003 L269.1286,67.552 C269.2846,67.48 269.4136,67.439 269.7496,67.363 L269.7496,67.363 Z" id="Fill-13" fill="#9BB7BE"></path>
        <path d="M15.4476,39.5291 L26.1956,39.5291 C35.5446,39.5291 43.0906,47.1581 43.0906,56.5931 C43.0906,65.9431 35.5446,73.4911 26.1956,73.4911 C16.7606,73.4911 9.2126,65.9431 9.2126,56.5931 C9.2126,54.8671 10.6056,53.4741 12.3306,53.4741 C13.9716,53.4741 15.3666,54.8671 15.3666,56.5931 C15.3666,62.4981 20.2046,67.3361 26.1956,67.3361 C32.1816,67.3361 36.9386,62.4151 36.9386,56.5081 C36.9386,53.6381 35.7916,50.8491 33.8216,48.8811 C31.7736,46.8301 28.9846,45.6811 26.1956,45.6811 L12.9866,45.6811 C9.7886,45.6811 9.1316,41.0861 9.1316,38.6271 C9.1316,29.1941 16.6776,21.4821 26.1126,21.4821 C27.8356,21.4821 29.1456,22.8761 29.1456,24.6011 C29.1456,26.2411 27.8356,27.6351 26.1126,27.6351 C20.2046,27.6351 15.3666,32.3921 15.3666,38.2971 C15.3666,38.7081 15.3666,39.1181 15.4476,39.5291 L15.4476,39.5291 Z M68.1086,73.4911 C58.6756,73.4911 51.1306,65.8621 51.1306,56.5081 L51.1306,38.4631 C51.1306,29.1111 58.7586,21.4821 68.1086,21.4821 C77.4606,21.4821 85.0086,29.1111 85.0086,38.4631 L85.0086,56.4291 C85.0086,65.7771 77.4606,73.4911 68.1086,73.4911 L68.1086,73.4911 Z M68.1086,67.3361 C74.0146,67.3361 78.8566,62.4151 78.8566,56.4291 L78.8566,38.4631 C78.8566,32.4751 74.0146,27.6351 68.1086,27.6351 C62.1226,27.6351 57.2826,32.4751 57.2826,38.4631 L57.2826,56.5081 C57.2826,62.4981 62.1226,67.3361 68.1086,67.3361 L68.1086,67.3361 Z M100.1836,56.5931 C100.1836,62.5791 105.0206,67.4191 111.0116,67.4191 C112.6516,67.4191 114.0456,68.8151 114.0456,70.4531 C114.0456,72.1761 112.6516,73.5711 111.0116,73.5711 C101.5766,73.5711 94.0286,65.9431 94.0286,56.5931 L94.0286,38.4631 C94.0286,29.1111 101.6596,21.5631 111.0116,21.5631 L117.6556,21.5631 C119.3786,21.5631 120.6896,22.8761 120.6896,24.6011 C120.6896,26.3221 119.3786,27.7161 117.6556,27.7161 L111.0116,27.7161 C105.0206,27.7161 100.1836,32.5551 100.1836,38.4631 L100.1836,56.5931 Z M186.8866,21.5631 C196.2386,21.5631 203.8676,29.1111 203.8676,38.4631 L203.8676,54.1311 C203.8676,55.8551 202.4716,57.2461 200.7486,57.2461 C199.1086,57.2461 197.7136,55.8551 197.7136,54.1311 L197.7136,38.4631 C197.7136,35.6741 196.5666,32.8851 194.5156,30.9171 C192.5476,28.8641 189.7586,27.7161 186.8866,27.7161 C183.6876,27.7161 181.2256,29.0301 178.9306,31.2451 C178.2726,31.9001 177.6156,32.2281 176.6346,32.2281 C174.9926,32.2281 173.5976,30.8341 173.5976,29.1941 C173.5976,28.3731 173.8436,27.7161 174.3356,27.1411 C177.3706,23.6141 182.3746,21.5631 186.8866,21.5631 L186.8866,21.5631 Z M190.0866,42.7261 C190.0866,44.4501 188.7736,45.8451 187.0506,45.8451 C180.8986,45.8451 176.2246,50.7661 176.2246,56.8371 C176.2246,62.6601 181.3066,67.4191 187.0506,67.4191 C188.6906,67.4191 190.0866,68.7321 190.0866,70.4531 C190.0866,72.1761 188.6906,73.5711 187.0506,73.5711 C177.6156,73.5711 170.0696,65.9431 170.0696,56.5931 C170.0696,47.3221 177.7796,39.6931 187.0506,39.6931 C188.7736,39.6931 190.0866,41.0861 190.0866,42.7261 L190.0866,42.7261 Z M235.2846,24.6011 C235.2846,26.2411 233.8896,27.6351 232.2486,27.6351 C226.2606,27.6351 221.4206,32.4751 221.4206,38.4631 L221.4206,70.4531 C221.4206,72.1761 220.0276,73.5711 218.3846,73.5711 C216.6616,73.5711 215.2666,72.1761 215.2666,70.4531 L215.2666,38.4631 C215.2666,29.1111 222.8966,21.4821 232.2486,21.4821 C233.8896,21.4821 235.2846,22.8761 235.2846,24.6011 L235.2846,24.6011 Z M257.4286,21.4821 C266.7826,21.4821 274.3286,29.1111 274.3286,38.4631 C274.3286,40.1841 272.9356,41.4971 271.2946,41.4971 L247.7516,41.4971 C247.0126,41.4971 246.7666,42.0711 246.6026,42.7261 C246.4406,43.7921 246.6026,45.9281 246.6026,47.0751 L246.6026,56.5081 C246.6026,62.4981 251.4426,67.3361 257.4286,67.3361 C259.0706,67.3361 260.4666,68.7321 260.4666,70.3721 C260.4666,72.0951 259.0706,73.4911 257.4286,73.4911 C247.9956,73.4911 240.4496,65.8621 240.4496,56.5081 C240.4496,51.7511 240.2866,46.9111 240.5326,42.1521 C240.6986,38.2141 243.8966,35.3441 247.8346,35.3441 L267.7676,35.3441 C266.3726,30.8341 262.1896,27.6351 257.4286,27.6351 C255.7076,27.6351 254.3146,26.3221 254.3146,24.6011 C254.3146,22.8761 255.7076,21.4821 257.4286,21.4821 L257.4286,21.4821 Z" id="Fill-15" fill="#2C6976"></path>
        <path d="M46.3084,83.7846 C46.3084,82.4846 45.5404,81.8036 44.6024,81.2086 C44.3194,81.0336 43.4254,80.5146 43.2454,80.2126 C43.1874,80.1106 43.1764,79.9976 43.1764,79.8706 C43.1764,79.3406 43.6644,79.1636 44.0594,79.1636 C44.5444,79.1636 45.0194,79.3536 45.4834,79.5196 L45.8344,77.9636 C45.1554,77.7766 44.4424,77.6496 43.7424,77.6496 C42.3774,77.6496 41.1434,78.4576 41.1434,80.1236 C41.1434,81.4896 41.9024,82.0426 42.8624,82.6486 C43.2114,82.8766 44.0024,83.3296 44.1934,83.7466 C44.2404,83.8616 44.2644,83.9736 44.2644,84.0886 C44.2644,84.7316 43.6984,84.9466 43.2114,84.9466 C42.5684,84.9466 41.9664,84.7436 41.3814,84.4656 L41.0074,86.0696 C41.8004,86.3606 42.5794,86.5116 43.4154,86.5116 C43.7894,86.5116 44.1724,86.4736 44.5344,86.3716 C45.6424,86.0696 46.3084,85.0466 46.3084,83.7846 L46.3084,83.7846 Z M53.9474,81.9676 C53.9474,79.5936 52.9754,77.6496 50.6584,77.6496 C48.2164,77.6496 46.9614,79.5426 46.9614,82.1426 C46.9614,83.3566 47.2674,84.7946 48.0824,85.6656 C48.6824,86.3096 49.4844,86.5116 50.2974,86.5116 C52.7484,86.5116 53.9474,84.5546 53.9474,81.9676 L53.9474,81.9676 Z M51.8564,81.9296 C51.8564,82.9786 51.6864,84.9466 50.3994,84.9466 C49.1884,84.9466 49.0544,83.1546 49.0544,82.1696 C49.0544,81.1086 49.2574,79.2146 50.5354,79.2146 C51.7094,79.2146 51.8564,80.9576 51.8564,81.9296 L51.8564,81.9296 Z M60.9534,85.1736 L60.2084,83.9246 C59.6534,84.3526 58.8624,84.8466 58.1754,84.8466 C56.8734,84.8466 56.6474,83.1426 56.6474,82.0296 C56.6474,81.4236 56.7264,80.6146 56.9644,80.0726 C57.2244,79.4806 57.7214,79.2146 58.2984,79.2146 C58.8854,79.2146 59.5424,79.4166 60.0934,79.6316 L60.4344,78.0536 C59.7104,77.8006 58.9984,77.6496 58.2304,77.6496 C55.7204,77.6496 54.5584,79.3916 54.5584,82.0806 C54.5584,84.4266 55.4054,86.5116 57.7664,86.5116 C59.0214,86.5116 59.9494,85.9316 60.9534,85.1736 L60.9534,85.1736 Z M63.7334,86.3096 C63.6654,85.8926 63.6654,85.4626 63.6654,85.0466 L63.6654,79.1516 C63.6654,78.7346 63.6764,78.3066 63.7334,77.8896 L61.5634,77.8896 C61.6294,78.3066 61.6294,78.7346 61.6294,79.1516 L61.6294,85.0466 C61.6294,85.4626 61.6294,85.8926 61.5634,86.3096 L63.7334,86.3096 Z M71.7344,81.9676 C71.7344,79.5936 70.7624,77.6496 68.4464,77.6496 C66.0054,77.6496 64.7504,79.5426 64.7504,82.1426 C64.7504,83.3566 65.0574,84.7946 65.8694,85.6656 C66.4674,86.3096 67.2714,86.5116 68.0844,86.5116 C70.5374,86.5116 71.7344,84.5546 71.7344,81.9676 L71.7344,81.9676 Z M69.6434,81.9296 C69.6434,82.9786 69.4734,84.9466 68.1864,84.9466 C66.9764,84.9466 66.8414,83.1546 66.8414,82.1696 C66.8414,81.1086 67.0444,79.2146 68.3224,79.2146 C69.4964,79.2146 69.6434,80.9576 69.6434,81.9296 L69.6434,81.9296 Z M78.7404,85.1736 L77.9954,83.9246 C77.4404,84.3526 76.6494,84.8466 75.9624,84.8466 C74.6624,84.8466 74.4344,83.1426 74.4344,82.0296 C74.4344,81.4236 74.5134,80.6146 74.7514,80.0726 C75.0114,79.4806 75.5084,79.2146 76.0854,79.2146 C76.6724,79.2146 77.3274,79.4166 77.8834,79.6316 L78.2194,78.0536 C77.4984,77.8006 76.7854,77.6496 76.0174,77.6496 C73.5094,77.6496 72.3434,79.3916 72.3434,82.0806 C72.3434,84.4266 73.1944,86.5116 75.5534,86.5116 C76.8084,86.5116 77.7344,85.9316 78.7404,85.1736 L78.7404,85.1736 Z M86.0074,77.8896 L83.9164,77.8896 C83.9734,78.3066 83.9844,78.7346 83.9844,79.1516 L83.9844,82.1426 C83.9844,83.3446 84.0414,84.9466 82.5714,84.9466 C81.3614,84.9466 81.3744,83.6846 81.3744,82.6736 L81.3744,79.1516 C81.3744,78.7346 81.3614,78.2936 81.4404,77.8896 L79.2704,77.8896 C79.3404,78.3066 79.3404,78.7346 79.3404,79.1516 L79.3404,82.9016 C79.3404,83.9736 79.3404,84.9976 80.1084,85.7656 C80.7294,86.3846 81.7464,86.5116 82.5374,86.5116 C83.6124,86.5116 84.6394,86.2966 85.3524,85.3246 C85.9864,84.4656 85.9414,83.2676 85.9414,82.2056 L85.9414,79.1516 C85.9414,78.7346 85.9284,78.2936 86.0074,77.8896 L86.0074,77.8896 Z M92.0084,86.3096 L92.0084,84.6436 C91.6794,84.6806 91.3404,84.6806 91.0134,84.6806 L89.4434,84.6806 L89.4434,79.1516 C89.4434,78.7346 89.4534,78.3066 89.5114,77.8896 L87.3394,77.8896 C87.4074,78.3066 87.4074,78.7346 87.4074,79.1516 L87.4074,85.0466 C87.4074,85.4626 87.4074,85.8926 87.3394,86.3096 L92.0084,86.3096 Z M97.1614,79.5046 L97.1614,77.8896 L91.3744,77.8896 L91.3744,79.5046 C91.6914,79.4556 92.0404,79.4556 92.3574,79.4556 L93.2494,79.4556 L93.2494,85.0466 C93.2494,85.4626 93.2494,85.8926 93.1834,86.3096 L95.3534,86.3096 C95.2744,85.9056 95.2744,85.4626 95.2744,85.0466 L95.2744,79.4556 L96.1104,79.4556 C96.4594,79.4556 96.8104,79.4656 97.1614,79.5046 L97.1614,79.5046 Z M104.4244,77.8896 L102.3354,77.8896 C102.3904,78.3066 102.4034,78.7346 102.4034,79.1516 L102.4034,82.1426 C102.4034,83.3446 102.4604,84.9466 100.9904,84.9466 C99.7804,84.9466 99.7924,83.6846 99.7924,82.6736 L99.7924,79.1516 C99.7924,78.7346 99.7804,78.2936 99.8614,77.8896 L97.6914,77.8896 C97.7574,78.3066 97.7574,78.7346 97.7574,79.1516 L97.7574,82.9016 C97.7574,83.9736 97.7574,84.9976 98.5274,85.7656 C99.1504,86.3846 100.1674,86.5116 100.9564,86.5116 C102.0304,86.5116 103.0584,86.2966 103.7714,85.3246 C104.4034,84.4656 104.3584,83.2676 104.3584,82.2056 L104.3584,79.1516 C104.3584,78.7346 104.3474,78.2936 104.4244,77.8896 L104.4244,77.8896 Z M111.7044,86.3096 C111.4994,85.8926 111.3974,85.4266 111.2614,84.9716 L110.7554,83.3296 C110.5384,82.6356 110.1214,82.2826 109.5004,82.0806 C110.4144,81.7506 111.0594,81.2086 111.0594,80.0616 C111.0594,79.3296 110.7764,78.6856 110.2104,78.2786 C109.6914,77.9156 109.1044,77.8896 108.5044,77.8896 L105.7584,77.8896 C105.8284,78.3066 105.8284,78.7346 105.8284,79.1516 L105.8284,85.0466 C105.8284,85.4626 105.8284,85.8926 105.7584,86.3096 L107.8494,86.3096 C107.7704,85.9056 107.7834,85.4626 107.7834,85.0466 L107.7834,82.8766 L108.0454,82.8766 C108.1664,82.8766 108.2914,82.8886 108.4024,82.9376 C108.7194,83.0886 108.8684,83.7076 108.9574,84.0376 L109.3084,85.2866 C109.3984,85.6166 109.5104,85.9566 109.5574,86.3096 L111.7044,86.3096 Z M109.1614,80.3536 C109.1614,81.0846 108.6874,81.3486 108.0854,81.3486 L107.7834,81.3486 L107.7834,79.3786 C107.8964,79.4046 108.0324,79.3916 108.1554,79.3916 C108.7554,79.3916 109.1614,79.6196 109.1614,80.3536 L109.1614,80.3536 Z M117.2754,86.3096 L117.2754,84.6436 C117.1164,84.6676 116.9584,84.6806 116.8014,84.6806 L114.4164,84.6806 L114.4164,82.7126 L116.0524,82.7126 C116.3374,82.7126 116.6204,82.7226 116.9034,82.7486 L116.9034,81.1086 C116.5974,81.1466 116.2694,81.1466 115.9634,81.1466 L114.4164,81.1466 L114.4164,79.4556 L115.9864,79.4556 C116.3584,79.4556 116.7434,79.4936 117.1164,79.5046 L117.1164,77.8896 L112.3574,77.8896 C112.4144,78.2786 112.4254,78.6976 112.4254,79.1006 L112.4254,85.1096 C112.4254,85.5116 112.4144,85.9166 112.3574,86.3096 L117.2754,86.3096 Z M122.8214,86.3096 L122.8214,84.6436 C122.4964,84.6806 122.1564,84.6806 121.8284,84.6806 L120.2584,84.6806 L120.2584,79.1516 C120.2584,78.7346 120.2694,78.3066 120.3264,77.8896 L118.1564,77.8896 C118.2244,78.3066 118.2244,78.7346 118.2244,79.1516 L118.2244,85.0466 C118.2244,85.4626 118.2244,85.8926 118.1564,86.3096 L122.8214,86.3096 Z M128.4614,86.3096 L128.4614,84.6436 C128.3044,84.6676 128.1464,84.6806 127.9874,84.6806 L125.6044,84.6806 L125.6044,82.7126 L127.2424,82.7126 C127.5254,82.7126 127.8064,82.7226 128.0894,82.7486 L128.0894,81.1086 C127.7854,81.1466 127.4574,81.1466 127.1534,81.1466 L125.6044,81.1466 L125.6044,79.4556 L127.1744,79.4556 C127.5484,79.4556 127.9294,79.4936 128.3044,79.5046 L128.3044,77.8896 L123.5474,77.8896 C123.6024,78.2786 123.6154,78.6976 123.6154,79.1006 L123.6154,85.1096 C123.6154,85.5116 123.6024,85.9166 123.5474,86.3096 L128.4614,86.3096 Z M162.5574,77.8896 L160.4554,77.8896 C160.4314,78.4446 160.3164,78.9876 160.2384,79.5316 L159.7084,83.0656 L158.6024,77.8896 L157.0424,77.8896 L155.9574,83.0656 L155.3814,79.3536 C155.3004,78.8616 155.2094,78.3836 155.1874,77.8896 L152.8944,77.8896 C153.1094,78.5086 153.2564,79.1516 153.4154,79.7956 L155.0094,86.3096 L156.7024,86.3096 L157.7664,81.1596 L158.8154,86.3096 L160.5104,86.3096 L162.1034,79.6066 C162.2404,79.0386 162.3764,78.4446 162.5574,77.8896 L162.5574,77.8896 Z M168.1494,86.3096 L168.1494,84.6436 C167.9924,84.6676 167.8354,84.6806 167.6754,84.6806 L165.2904,84.6806 L165.2904,82.7126 L166.9284,82.7126 C167.2114,82.7126 167.4944,82.7226 167.7774,82.7486 L167.7774,81.1086 C167.4714,81.1466 167.1434,81.1466 166.8394,81.1466 L165.2904,81.1466 L165.2904,79.4556 L166.8624,79.4556 C167.2334,79.4556 167.6184,79.4936 167.9924,79.5046 L167.9924,77.8896 L163.2334,77.8896 C163.2914,78.2786 163.3014,78.6976 163.3014,79.1006 L163.3014,85.1096 C163.3014,85.5116 163.2914,85.9166 163.2334,86.3096 L168.1494,86.3096 Z M174.9744,86.3096 C174.7704,85.8926 174.6704,85.4266 174.5344,84.9716 L174.0254,83.3296 C173.8104,82.6356 173.3934,82.2826 172.7724,82.0806 C173.6874,81.7506 174.3324,81.2086 174.3324,80.0616 C174.3324,79.3296 174.0494,78.6856 173.4854,78.2786 C172.9644,77.9156 172.3774,77.8896 171.7774,77.8896 L169.0304,77.8896 C169.0984,78.3066 169.0984,78.7346 169.0984,79.1516 L169.0984,85.0466 C169.0984,85.4626 169.0984,85.8926 169.0304,86.3096 L171.1214,86.3096 C171.0434,85.9056 171.0534,85.4626 171.0534,85.0466 L171.0534,82.8766 L171.3134,82.8766 C171.4384,82.8766 171.5624,82.8886 171.6774,82.9376 C171.9924,83.0886 172.1384,83.7076 172.2304,84.0376 L172.5794,85.2866 C172.6704,85.6166 172.7834,85.9566 172.8254,86.3096 L174.9744,86.3096 Z M172.4324,80.3536 C172.4324,81.0846 171.9574,81.3486 171.3604,81.3486 L171.0534,81.3486 L171.0534,79.3786 C171.1664,79.4046 171.3024,79.3916 171.4284,79.3916 C172.0264,79.3916 172.4324,79.6196 172.4324,80.3536 L172.4324,80.3536 Z M182.6054,86.3096 C182.3314,86.0316 182.1184,85.7146 181.8804,85.4116 C180.9314,84.2396 180.0374,83.0146 179.1234,81.8036 C179.8354,80.8046 180.5374,79.7956 181.2714,78.8236 C181.5074,78.5086 181.7434,78.1806 182.0034,77.8896 L179.5524,77.8896 C179.4054,78.1936 179.2254,78.4706 179.0544,78.7616 L177.6894,81.1086 L177.6894,79.0636 C177.6894,78.6726 177.6994,78.2786 177.7554,77.8896 L175.6314,77.8896 C175.6894,78.2786 175.7004,78.6726 175.7004,79.0636 L175.7004,85.1356 C175.7004,85.5266 175.6894,85.9166 175.6314,86.3096 L177.7554,86.3096 C177.6994,85.9166 177.6894,85.5266 177.6894,85.1356 L177.6894,82.8126 L179.5764,85.6166 C179.7204,85.8416 179.8674,86.0696 179.9804,86.3096 L182.6054,86.3096 Z M188.6914,81.9166 L186.6704,81.9166 C186.7474,82.3336 186.7364,82.7616 186.7364,83.1786 L186.7364,84.5806 C186.4304,84.7566 186.0924,84.8466 185.7544,84.8466 C184.5094,84.8466 184.2264,83.0276 184.2264,81.9676 C184.2264,80.5656 184.5564,79.2146 186.0374,79.2146 C186.6454,79.2146 187.3474,79.3916 187.9114,79.6576 L188.2624,78.0296 C187.5514,77.7646 186.6454,77.6496 185.9004,77.6496 C183.3694,77.6496 182.1504,79.3406 182.1504,82.0806 C182.1504,84.4266 183.1094,86.5116 185.4374,86.5116 C186.4884,86.5116 187.7874,85.9676 188.6234,85.2736 L188.6234,83.1786 C188.6234,82.7616 188.6134,82.3336 188.6914,81.9166 L188.6914,81.9166 Z M194.6594,86.3096 L194.6594,84.6436 C194.4994,84.6676 194.3424,84.6806 194.1824,84.6806 L191.8004,84.6806 L191.8004,82.7126 L193.4384,82.7126 C193.7214,82.7126 194.0014,82.7226 194.2844,82.7486 L194.2844,81.1086 C193.9784,81.1466 193.6534,81.1466 193.3464,81.1466 L191.8004,81.1466 L191.8004,79.4556 L193.3704,79.4556 C193.7424,79.4556 194.1254,79.4936 194.4994,79.5046 L194.4994,77.8896 L189.7424,77.8896 C189.8004,78.2786 189.8114,78.6976 189.8114,79.1006 L189.8114,85.1096 C189.8114,85.5116 189.8004,85.9166 189.7424,86.3096 L194.6594,86.3096 Z M201.9004,77.8896 L199.6994,77.8896 C199.6434,78.4706 199.4964,79.0386 199.3484,79.6066 L198.3204,83.4936 L197.2564,79.4936 C197.1204,78.9746 196.9504,78.4346 196.9184,77.8896 L194.5464,77.8896 C194.8824,78.5316 195.0744,79.2916 195.3014,79.9846 L197.3714,86.3096 L199.1674,86.3096 L201.2474,79.7826 C201.4494,79.1516 201.6224,78.4836 201.9004,77.8896 L201.9004,77.8896 Z M207.2474,86.3096 L207.2474,84.6436 C207.0894,84.6676 206.9304,84.6806 206.7704,84.6806 L204.3894,84.6806 L204.3894,82.7126 L206.0284,82.7126 C206.3084,82.7126 206.5934,82.7226 206.8724,82.7486 L206.8724,81.1086 C206.5704,81.1466 206.2404,81.1466 205.9364,81.1466 L204.3894,81.1466 L204.3894,79.4556 L205.9594,79.4556 C206.3324,79.4556 206.7154,79.4936 207.0894,79.5046 L207.0894,77.8896 L202.3324,77.8896 C202.3884,78.2786 202.4004,78.6976 202.4004,79.1006 L202.4004,85.1096 C202.4004,85.5116 202.3884,85.9166 202.3324,86.3096 L207.2474,86.3096 Z M214.0734,86.3096 C213.8674,85.8926 213.7674,85.4266 213.6314,84.9716 L213.1244,83.3296 C212.9074,82.6356 212.4914,82.2826 211.8694,82.0806 C212.7844,81.7506 213.4294,81.2086 213.4294,80.0616 C213.4294,79.3296 213.1464,78.6856 212.5804,78.2786 C212.0614,77.9156 211.4744,77.8896 210.8744,77.8896 L208.1274,77.8896 C208.1954,78.3066 208.1954,78.7346 208.1954,79.1516 L208.1954,85.0466 C208.1954,85.4626 208.1954,85.8926 208.1274,86.3096 L210.2184,86.3096 C210.1404,85.9056 210.1504,85.4626 210.1504,85.0466 L210.1504,82.8766 L210.4104,82.8766 C210.5334,82.8766 210.6594,82.8886 210.7724,82.9376 C211.0894,83.0886 211.2374,83.7076 211.3274,84.0376 L211.6764,85.2866 C211.7674,85.6166 211.8804,85.9566 211.9274,86.3096 L214.0734,86.3096 Z M211.5294,80.3536 C211.5294,81.0846 211.0554,81.3486 210.4574,81.3486 L210.1504,81.3486 L210.1504,79.3786 C210.2654,79.4046 210.3994,79.3916 210.5234,79.3916 C211.1254,79.3916 211.5294,79.6196 211.5294,80.3536 L211.5294,80.3536 Z M219.6664,83.7846 C219.6664,82.4846 218.8964,81.8036 217.9604,81.2086 C217.6774,81.0336 216.7864,80.5146 216.6034,80.2126 C216.5454,80.1106 216.5354,79.9976 216.5354,79.8706 C216.5354,79.3406 217.0244,79.1636 217.4204,79.1636 C217.9034,79.1636 218.3794,79.3536 218.8414,79.5196 L219.1924,77.9636 C218.5134,77.7766 217.8004,77.6496 217.1034,77.6496 C215.7334,77.6496 214.5014,78.4576 214.5014,80.1236 C214.5014,81.4896 215.2584,82.0426 216.2204,82.6486 C216.5694,82.8766 217.3624,83.3296 217.5524,83.7466 C217.5984,83.8616 217.6204,83.9736 217.6204,84.0886 C217.6204,84.7316 217.0564,84.9466 216.5694,84.9466 C215.9264,84.9466 215.3284,84.7436 214.7394,84.4656 L214.3674,86.0696 C215.1584,86.3606 215.9374,86.5116 216.7734,86.5116 C217.1474,86.5116 217.5304,86.4736 217.8924,86.3716 C219.0004,86.0696 219.6664,85.0466 219.6664,83.7846 L219.6664,83.7846 Z M225.2824,79.5046 L225.2824,77.8896 L220.7284,77.8896 C220.7984,78.2936 220.7984,78.7236 220.7984,79.1386 L220.7984,85.0466 C220.7984,85.4626 220.7984,85.8926 220.7284,86.3096 L222.8534,86.3096 C222.7854,85.8926 222.7854,85.4626 222.7854,85.0466 L222.7854,82.7126 L224.4464,82.7126 C224.6514,82.7126 224.8534,82.7226 225.0574,82.7486 L225.0574,81.0956 C224.7744,81.1466 224.4784,81.1466 224.2004,81.1466 L222.7854,81.1466 L222.7854,79.4556 L224.2324,79.4556 C224.5834,79.4556 224.9314,79.4656 225.2824,79.5046 L225.2824,79.5046 Z M231.0354,86.3096 L231.0354,84.6436 C230.8774,84.6676 230.7184,84.6806 230.5604,84.6806 L228.1744,84.6806 L228.1744,82.7126 L229.8144,82.7126 C230.0974,82.7126 230.3784,82.7226 230.6634,82.7486 L230.6634,81.1086 C230.3564,81.1466 230.0294,81.1466 229.7244,81.1466 L228.1744,81.1466 L228.1744,79.4556 L229.7464,79.4556 C230.1184,79.4556 230.5034,79.4936 230.8774,79.5046 L230.8774,77.8896 L226.1194,77.8896 C226.1764,78.2786 226.1874,78.6976 226.1874,79.1006 L226.1874,85.1096 C226.1874,85.5116 226.1764,85.9166 226.1194,86.3096 L231.0354,86.3096 Z M238.6854,81.9916 C238.6854,80.6016 238.3004,79.0896 237.1924,78.3066 C236.6414,77.9156 236.0624,77.8896 235.4304,77.8896 L231.9164,77.8896 C231.9864,78.3066 231.9864,78.7346 231.9864,79.1516 L231.9864,85.0586 C231.9864,85.4756 231.9864,85.8926 231.9164,86.3096 L234.7304,86.3096 C235.4304,86.3096 236.0964,86.2966 236.7514,85.9946 C238.1304,85.3636 238.6854,83.5316 238.6854,81.9916 L238.6854,81.9916 Z M236.6064,82.0546 C236.6064,82.6486 236.5384,83.3296 236.3004,83.8616 C235.9494,84.6806 235.2944,84.6806 234.5734,84.6806 L233.9734,84.6806 L233.9734,79.4046 L234.3454,79.4046 C234.7754,79.4046 235.2944,79.4166 235.7024,79.6196 C236.4494,79.9846 236.6064,81.2596 236.6064,82.0546 L236.6064,82.0546 Z M244.6314,86.3096 L244.6314,84.6436 C244.4714,84.6676 244.3144,84.6806 244.1544,84.6806 L241.7704,84.6806 L241.7704,82.7126 L243.4084,82.7126 C243.6934,82.7126 243.9714,82.7226 244.2574,82.7486 L244.2574,81.1086 C243.9504,81.1466 243.6254,81.1466 243.3184,81.1466 L241.7704,81.1466 L241.7704,79.4556 L243.3404,79.4556 C243.7144,79.4556 244.0974,79.4936 244.4714,79.5046 L244.4714,77.8896 L239.7124,77.8896 C239.7704,78.2786 239.7834,78.6976 239.7834,79.1006 L239.7834,85.1096 C239.7834,85.5116 239.7704,85.9166 239.7124,86.3096 L244.6314,86.3096 Z M251.4534,86.3096 C251.2514,85.8926 251.1494,85.4266 251.0134,84.9716 L250.5054,83.3296 C250.2924,82.6356 249.8714,82.2826 249.2504,82.0806 C250.1664,81.7506 250.8094,81.2086 250.8094,80.0616 C250.8094,79.3296 250.5284,78.6856 249.9624,78.2786 C249.4434,77.9156 248.8544,77.8896 248.2564,77.8896 L245.5124,77.8896 C245.5804,78.3066 245.5804,78.7346 245.5804,79.1516 L245.5804,85.0466 C245.5804,85.4626 245.5804,85.8926 245.5124,86.3096 L247.6014,86.3096 C247.5224,85.9056 247.5354,85.4626 247.5354,85.0466 L247.5354,82.8766 L247.7924,82.8766 C247.9164,82.8766 248.0414,82.8886 248.1544,82.9376 C248.4734,83.0886 248.6164,83.7076 248.7094,84.0376 L249.0584,85.2866 C249.1504,85.6166 249.2624,85.9566 249.3074,86.3096 L251.4534,86.3096 Z M248.9114,80.3536 C248.9114,81.0846 248.4374,81.3486 247.8374,81.3486 L247.5354,81.3486 L247.5354,79.3786 C247.6454,79.4046 247.7824,79.3916 247.9054,79.3916 C248.5074,79.3916 248.9114,79.6196 248.9114,80.3536 L248.9114,80.3536 Z M259.2164,86.3096 C258.9214,85.6656 258.7084,84.9716 258.4804,84.3016 L256.3574,77.8896 L254.5594,77.8896 C254.4154,78.5086 254.1874,79.1006 253.9854,79.6956 L252.3904,84.3146 C252.1534,84.9976 251.9494,85.6656 251.6564,86.3096 L253.7794,86.3096 C253.8134,86.1696 253.8264,86.0056 253.8704,85.8676 C254.0174,85.3886 254.1324,84.8946 254.2664,84.4146 C254.4574,84.3906 254.6384,84.3906 254.8304,84.3906 L255.3404,84.3906 C255.6894,84.3906 256.0534,84.3786 256.3894,84.4036 C256.4254,84.4036 256.4574,84.4146 256.4934,84.4146 C256.6274,84.8946 256.8664,85.7926 256.9214,86.3096 L259.2164,86.3096 Z M256.1084,82.8506 C255.9724,82.8376 255.8494,82.8256 255.7134,82.8256 L255.0234,82.8256 C254.9104,82.8256 254.7984,82.8376 254.6854,82.8506 L255.4194,80.1236 L256.1084,82.8506 Z M264.2794,79.5046 L264.2794,77.8896 L258.4934,77.8896 L258.4934,79.5046 C258.8104,79.4556 259.1574,79.4556 259.4744,79.4556 L260.3694,79.4556 L260.3694,85.0466 C260.3694,85.4626 260.3694,85.8926 260.2994,86.3096 L262.4714,86.3096 C262.3904,85.9056 262.3904,85.4626 262.3904,85.0466 L262.3904,79.4556 L263.2264,79.4556 C263.5774,79.4556 263.9284,79.4656 264.2794,79.5046 L264.2794,79.5046 Z M267.0584,86.3096 C266.9904,85.8926 266.9904,85.4626 266.9904,85.0466 L266.9904,79.1516 C266.9904,78.7346 267.0004,78.3066 267.0584,77.8896 L264.8884,77.8896 C264.9564,78.3066 264.9564,78.7346 264.9564,79.1516 L264.9564,85.0466 C264.9564,85.4626 264.9564,85.8926 264.8884,86.3096 L267.0584,86.3096 Z M273.3974,86.3096 L273.3974,84.6436 C273.2404,84.6676 273.0804,84.6806 272.9214,84.6806 L270.5384,84.6806 L270.5384,82.7126 L272.1764,82.7126 C272.4614,82.7126 272.7424,82.7226 273.0254,82.7486 L273.0254,81.1086 C272.7214,81.1466 272.3934,81.1466 272.0874,81.1466 L270.5384,81.1466 L270.5384,79.4556 L272.1084,79.4556 C272.4834,79.4556 272.8664,79.4936 273.2404,79.5046 L273.2404,77.8896 L268.4834,77.8896 C268.5384,78.2786 268.5494,78.6976 268.5494,79.1006 L268.5494,85.1096 C268.5494,85.5116 268.5384,85.9166 268.4834,86.3096 L273.3974,86.3096 Z" id="Fill-17" fill="#969B21"></path>
    </g>
</svg>