<svg version="1.1" xmlns="http://www.w3.org/2000/svg" xmlns:xlink="http://www.w3.org/1999/xlink" x="0px" y="0px"
     viewBox="0 0 261.5 161.5" xml:space="preserve">
	<g style="fill:#9DC42E;">
	  <path d="M141.3,65.7c-0.2,5.7-4.3,10.8-10.1,12c-0.9,0.2-1.8,0.3-2.7,0.3c-3.8,0-7.3-1.7-9.8-4.5L145.4,49v-0.4
		c0-0.2,0-0.4,0-0.7c0.2-17.7,0.1-32.5,0-45.8c0-0.7,0-0.8-0.7-0.8c-4.8,0-8.6,0-13,0c-0.7,0-0.6,0.1-0.6,0.8v17.3
		c0,0-18.2-12.4-29-19.2C101.8,0,101.6,0,101.5,0c-0.1,0.1-0.1,0.3-0.1,0.6c-0.1,18.1-0.2,28.2,0,46.3c0,0.1,0,0.3,0.1,0.4L88.1,59.1
		c-2.3-2.2-5.2-3.8-8.5-4.5c-1.4-0.3-2.7-0.5-4-0.5c-8.3,0-15.7,5.7-17.6,14.2c-0.3,1.3-0.4,2.6-0.4,3.9c0,0.2,0,0.4,0,0.7l5.2-0.2
		c0-0.2,0-0.3,0-0.5c0-0.9,0.1-1.8,0.3-2.8c1.3-6,6.6-10,12.5-10c0.9,0,1.9,0.1,2.9,0.3c2.2,0.5,4.1,1.5,5.7,2.9L52.5,90.6
		c-0.1,0.1-0.1,0.3-0.1,0.6c-0.1,18.1-0.2,28.2,0,46.3c0,0.3,0.1,0.7,0.7,0.7H66c0.7,0,0.7,0,0.7-0.6v-17.3c0,0,17.3,11.9,28.9,19
		c0.4,0.2,0.6,0.3,0.7,0.2c0.1-0.1,0.1-0.4,0.1-0.9c0.2-17.2,0.1-31.5,0-44.5l18.3-16.9c3.4,3.8,8.3,6.1,13.6,6.1
		c1.2,0,2.5-0.1,3.7-0.4c8.3-1.7,14-8.9,14.3-16.9L141.3,65.7z M127.9,36.7c2.3,0,4.1,1.9,4.1,4.2c0,0.3,0,0.6-0.1,0.9l-8.1-0.1
		c-0.1-0.3-0.1-0.6-0.1-0.9C123.8,38.5,125.6,36.7,127.9,36.7z M118.5,41.7l-8.1-0.1c-0.1-0.3-0.1-0.6-0.1-0.9c0-2.3,1.9-4.1,4.1-4.1
		c2.3,0,4.1,1.9,4.1,4.2C118.6,41.1,118.5,41.4,118.5,41.7z"/>
    <path d="M41,1.3l-40.5,0C0,1.3,0,1.5,0,2v11.6c0,0.4,0,0.5,0.5,0.5l12.4-0.8c0,0,0,25.2,0,33.6c0,0.7,0,0.6,0.7,0.6
		c4.5,0,10,0,14.8,0c0.6,0,0.7-0.1,0.7-0.6c0-5.3,0-33.6,0-33.6l12,0.7c0.4,0,0.5-0.1,0.5-0.5V2C41.6,1.5,41.5,1.3,41,1.3z"/>
    <path d="M52.5,46.6c0,0.8,0.1,1,0.8,1l34.6,0c0.7,0,0.8-0.1,0.8-1v-9.6c0-0.9,0-0.9-0.8-0.9l-19.7,0v-5.7l18.6,0
		c0.7,0,0.8-0.1,0.8-0.9V19.2c0-0.8-0.1-1-0.8-1H68.3v-6l19,0c0.7,0,0.8-0.2,0.8-1v-9c0-0.9-0.1-1-0.8-1l-34,0
		c-0.8,0-0.8,0.1-0.8,0.7V46.6z"/>
    <path d="M133.1,90.4c-13.6,0-25,10-25,24.6c0,13.9,10.4,24.7,25,24.7c13.2,0,25-10.2,25-24.6
		C158.1,99.9,146.1,90.4,133.1,90.4z M133.1,123.9c-5.1,0-8.7-3.3-8.7-8.9c0-5,3.3-8.5,8.7-8.5c5.3,0,8.7,3.3,8.7,8.5
		C141.7,120.5,138,123.9,133.1,123.9z"/>
    <path d="M260.8,92.2l-15.5,0c-0.8,0-0.8,0.1-1,0.7c-2.1,5.8-6.6,17.1-6.6,17.1s-5-11-7.6-16.7c-0.5-1.1-0.6-1.1-1.2-1.1
		h-17.2c-0.8,0-0.9,0-0.4,1c7.3,13.2,18.1,31.8,18.1,31.8v12.6c0,0.9,0,1,0.5,1c4.4,0,10.6,0,15.1,0c0.8,0,0.8-0.1,0.8-1v-13.8
		c0,0,8.8-17.3,15.4-30.6C261.5,92.3,261.7,92.2,260.8,92.2z"/>
    <path d="M203,127.1l-19.7,0v-5.7l18.6,0c0.8,0,0.8-0.1,0.8-0.9v-10.4c0-0.8-0.1-1-0.8-1l-18.6,0v-6l19,0
		c0.7,0,0.8-0.2,0.8-1v-9c0-0.9-0.1-1-0.8-1l-34,0c-0.8,0-0.8,0.1-0.8,0.7v44.6c0,0.8,0.1,1,0.8,1l34.6,0c0.7,0,0.8-0.1,0.8-1V128
		C203.7,127.1,203.7,127.1,203,127.1z"/>
    <path d="M171.4,36.4v-5.8c0-0.1-0.1-0.1-0.1-0.1h-1.7c-0.1,0-0.1,0.1-0.1,0.1v5.8c0,1-0.2,1.2-1.6,1.2
		c-1.4,0-1.6-0.3-1.6-1.2v-5.8c0-0.1,0-0.1-0.1-0.1h-1.7c-0.1,0-0.1,0.1-0.1,0.1v5.8c0,2.1,1.3,3,3.5,3
		C170.1,39.5,171.4,38.5,171.4,36.4z"/>
    <path d="M182.2,24.8h1.7c0.1,0,0.1-0.1,0.1-0.1v-4.5l-0.1-1.5l0.6,1.4l2.6,4.6c0,0.1,0.1,0.1,0.2,0.1h2
		c0.1,0,0.1-0.1,0.1-0.1v-8.6c0-0.1-0.1-0.1-0.1-0.1h-1.7c-0.1,0-0.1,0.1-0.1,0.1v4.5l0.1,1.5l-0.6-1.4l-2.6-4.7
		c0-0.1-0.1-0.1-0.2-0.1h-2c-0.1,0-0.1,0.1-0.1,0.1v8.6C182.1,24.7,182.1,24.8,182.2,24.8z"/>
    <path d="M162.6,10.3h5.7c0.1,0,0.1-0.1,0.1-0.1V8.7c0-0.1-0.1-0.1-0.1-0.1h-3.9v-2h3c0.1,0,0.1-0.1,0.1-0.1V5
		c0-0.1,0-0.1-0.1-0.1h-3V3.1h3.9c0.1,0,0.1-0.1,0.1-0.1V1.6c0-0.1-0.1-0.1-0.1-0.1h-5.7c-0.1,0-0.1,0.1-0.1,0.1v8.6
		C162.5,10.2,162.5,10.3,162.6,10.3z"/>
    <path d="M154.3,10.3h5.7c0.1,0,0.1-0.1,0.1-0.1V8.7c0-0.1-0.1-0.1-0.1-0.1h-3.9v-2h3c0.1,0,0.1-0.1,0.1-0.1V5
		c0-0.1,0-0.1-0.1-0.1h-3V3.1h3.9c0.1,0,0.1-0.1,0.1-0.1V1.6c0-0.1-0.1-0.1-0.1-0.1h-5.7c-0.1,0-0.1,0.1-0.1,0.1v8.6
		C154.2,10.2,154.3,10.3,154.3,10.3z"/>
		<path d="M157.9,15.8c-2.7,0-4,0.9-4,4.5c0,3.7,1.3,4.7,4,4.7c2.7,0,4-1,4-4.7C161.9,16.7,160.6,15.8,157.9,15.8z
     M157.9,23.1c-1.6,0-1.8-0.3-1.8-2.8c0-2.4,0.2-2.7,1.8-2.7c1.6,0,1.8,0.3,1.8,2.7C159.8,22.8,159.5,23.1,157.9,23.1z"/>
    <path d="M169,16h-4.2c-0.1,0-0.1,0.1-0.1,0.1v8.6c0,0.1,0.1,0.1,0.1,0.1h1.7c0.1,0,0.1-0.1,0.1-0.1v-2.9h2.1
    c1.8,0,3-0.7,3-2.8C171.6,16.8,170.4,16,169,16z M168.8,20.1h-2.2v-2.5h2.3c0.5,0,0.7,0.3,0.7,1.2
    C169.5,19.8,169.3,20.1,168.8,20.1z"/>
    <path d="M156.1,39.2v-3.6h3.2v3.6c0,0.1,0.1,0.1,0.1,0.1h1.7c0.1,0,0.1-0.1,0.1-0.1v-8.6c0-0.1-0.1-0.1-0.1-0.1h-1.7
		c-0.1,0-0.1,0.1-0.1,0.1v3.1h-3.2v-3.1c0-0.1-0.1-0.1-0.1-0.1h-1.7c-0.1,0-0.1,0.1-0.1,0.1v8.6c0,0.1,0.1,0.1,0.1,0.1h1.7
		C156.1,39.3,156.1,39.2,156.1,39.2z"/>
    <path d="M176.3,39.2v-8.6c0-0.1-0.1-0.1-0.1-0.1h-1.7c-0.1,0-0.1,0.1-0.1,0.1v8.6c0,0.1,0.1,0.1,0.1,0.1h1.7
		C176.2,39.3,176.3,39.2,176.3,39.2z"/>
    <path d="M182.8,33.9c-1.6-0.2-1.7-0.3-1.7-0.9c0-0.7,0.1-0.9,1.5-0.9c0.8,0,1.6,0.1,2.3,0.3c0,0,0.1,0,0.1-0.1l0.2-1.6
		c0-0.1,0-0.2-0.1-0.2c-0.8-0.2-1.7-0.3-2.4-0.3c-2.6,0-3.8,0.7-3.8,2.9c0,1.6,0.8,2.3,2.7,2.5c1.7,0.2,1.8,0.4,1.8,1
		c0,0.7-0.2,0.9-1.5,0.9c-0.8,0-1.7-0.1-2.4-0.3c0,0-0.1,0-0.1,0.1l-0.2,1.6c0,0.1,0,0.2,0.1,0.2c0.8,0.2,1.8,0.3,2.6,0.3
		c2.6,0,3.8-0.7,3.8-2.9C185.6,34.9,184.8,34.1,182.8,33.9z"/>
    <path d="M179.8,24.7v-1.4c0-0.1-0.1-0.1-0.1-0.1h-3.9v-2h3c0.1,0,0.1-0.1,0.1-0.1v-1.4c0-0.1,0-0.1-0.1-0.1h-3v-1.8h3.9
		c0.1,0,0.1-0.1,0.1-0.1v-1.4c0-0.1-0.1-0.1-0.1-0.1H174c-0.1,0-0.1,0.1-0.1,0.1v8.6c0,0.1,0.1,0.1,0.1,0.1h5.7
		C179.7,24.8,179.8,24.7,179.8,24.7z"/>
    <path d="M175.7,10.1c0,0.1,0.1,0.1,0.2,0.1h2c0.1,0,0.1-0.1,0.1-0.1V1.6c0-0.1-0.1-0.1-0.1-0.1h-1.7
		c-0.1,0-0.1,0.1-0.1,0.1v4.5l0.1,1.5l-0.6-1.4l-2.6-4.7c0-0.1-0.1-0.1-0.2-0.1h-2c-0.1,0-0.1,0.1-0.1,0.1v8.6c0,0.1,0.1,0.1,0.1,0.1
		h1.7c0.1,0,0.1-0.1,0.1-0.1V5.6l-0.1-1.5l0.6,1.4L175.7,10.1z"/>
    <path d="M81.5,150.6h-2.9c-0.1,0-0.2,0.1-0.2,0.1l-1.2,5.4l-0.2,2l-0.2-2l-1.2-5.4c0-0.1-0.1-0.1-0.2-0.1h-2.9
		c-0.1,0-0.1,0.1-0.1,0.1V161c0,0.1,0,0.1,0.1,0.1h1.8c0.1,0,0.1-0.1,0.1-0.1v-5.4l-0.1-2.6l0.5,2.6c0.3,1.6,0.7,3.2,1.1,4.7
		c0,0.1,0.1,0.1,0.2,0.1h2c0.1,0,0.2-0.1,0.2-0.1l1.1-4.7l0.5-2.6l-0.1,2.6v5.4c0,0.1,0,0.1,0.1,0.1h1.8c0.1,0,0.1-0.1,0.1-0.1v-10.2
		C81.6,150.7,81.5,150.6,81.5,150.6z"/>
    <path d="M201.7,150.6h-1.8c-0.1,0-0.1,0.1-0.1,0.1v5.4l0.2,1.7l-0.4-1.6l-2.1-5.5c0-0.1-0.1-0.1-0.2-0.1h-2.2
		c-0.1,0-0.1,0.1-0.1,0.1V161c0,0.1,0,0.1,0.1,0.1h1.8c0.1,0,0.1-0.1,0.1-0.1v-5.4l-0.2-1.7l0.5,1.6l2.1,5.5c0,0.1,0.1,0.1,0.2,0.1
		h2.2c0.1,0,0.1-0.1,0.1-0.1v-10.2C201.8,150.7,201.7,150.6,201.7,150.6z"/>
    <path d="M59,155.4h-1.9c-0.1,0-0.1,0.1-0.1,0.1v3.6c-0.2,0-0.4,0.1-0.7,0.1c-1.4,0-1.5-0.4-1.5-3.4
		c0-2.9,0.2-3.3,1.6-3.3c0.8,0,1.5,0.1,2.1,0.3c0,0,0.1,0,0.1-0.1l0.3-1.9c0-0.1,0-0.2-0.1-0.2c-0.7-0.2-1.6-0.3-2.4-0.3
		c-2.8,0-4,1.1-4,5.4c0,4.3,1.1,5.5,3.9,5.5c0.8,0,1.9-0.1,2.7-0.2c0.1,0,0.1-0.1,0.1-0.2v-5.3C59.1,155.5,59,155.4,59,155.4z"/>
    <path d="M91.4,150.6h-5.5c-0.1,0-0.1,0.1-0.1,0.1V161c0,0.1,0,0.1,0.1,0.1h5.5c0.1,0,0.1-0.1,0.1-0.1v-1.7
		c0-0.1,0-0.1-0.1-0.1h-3.5v-2.4h2.6c0.1,0,0.1-0.1,0.1-0.1v-1.7c0-0.1,0-0.1-0.1-0.1h-2.6v-2.1h3.5c0.1,0,0.1-0.1,0.1-0.1v-1.7
		C91.5,150.7,91.4,150.6,91.4,150.6z"/>
    <path d="M68.7,150.6h-5.5c-0.1,0-0.1,0.1-0.1,0.1V161c0,0.1,0,0.1,0.1,0.1h5.5c0.1,0,0.1-0.1,0.1-0.1v-1.7
		c0-0.1,0-0.1-0.1-0.1h-3.5v-2.4h2.6c0.1,0,0.1-0.1,0.1-0.1v-1.7c0-0.1,0-0.1-0.1-0.1h-2.6v-2.1h3.5c0.1,0,0.1-0.1,0.1-0.1v-1.7
		C68.8,150.7,68.8,150.6,68.7,150.6z"/>
    <path d="M232.3,150.6h-1.9c-0.1,0-0.1,0.1-0.1,0.1v6.9c0,1.2,0,1.5-1.3,1.5c-1.2,0-1.3-0.3-1.3-1.5v-6.9
		c0-0.1-0.1-0.1-0.1-0.1h-1.9c-0.1,0-0.1,0.1-0.1,0.1v6.9c0,2.5,1.2,3.6,3.4,3.6c2.2,0,3.4-1.2,3.4-3.6v-6.9
		C232.4,150.7,232.4,150.6,232.3,150.6z"/>
    <path d="M212,150.6h-6.8c-0.1,0-0.1,0.1-0.1,0.1v1.9c0,0.1,0,0.1,0.1,0.1h2.4v8.2c0,0.1,0,0.1,0.1,0.1h1.9
		c0.1,0,0.1-0.1,0.1-0.1v-8.2h2.4c0.1,0,0.1-0.1,0.1-0.1v-1.9C212.1,150.7,212,150.6,212,150.6z"/>
    <path d="M245.7,150.6h-2.9c-0.1,0-0.2,0.1-0.2,0.1l-1.2,5.4l-0.2,2l-0.2-2l-1.2-5.4c0-0.1-0.1-0.1-0.2-0.1h-2.9
		c-0.1,0-0.1,0.1-0.1,0.1V161c0,0.1,0,0.1,0.1,0.1h1.8c0.1,0,0.1-0.1,0.1-0.1v-5.4l-0.1-2.6l0.5,2.6c0.3,1.6,0.7,3.2,1.1,4.7
		c0,0.1,0.1,0.1,0.2,0.1h2c0.1,0,0.2-0.1,0.2-0.1l1.1-4.7l0.5-2.6l-0.1,2.6v5.4c0,0.1,0,0.1,0.1,0.1h1.8c0.1,0,0.1-0.1,0.1-0.1v-10.2
		C245.8,150.7,245.7,150.6,245.7,150.6z"/>
    <path d="M222.1,160.4l-1.8-3.3c1-0.3,1.6-1.2,1.6-3.1c0-2.5-1.2-3.4-2.5-3.4h-4c-0.1,0-0.1,0.1-0.1,0.1V161
		c0,0.1,0,0.1,0.1,0.1h1.9c0.1,0,0.1-0.1,0.1-0.1v-3.5h0.8l1.9,4c0,0,0,0.1,0.1,0.1l0.1,0l1.8-0.9c0,0,0,0,0-0.1
		C222.2,160.5,222.1,160.4,222.1,160.4z M219,155.5h-1.6v-3h1.7c0.4,0,0.6,0.3,0.6,1.5C219.7,155.2,219.5,155.5,219,155.5z"/>
    <path d="M191.1,150.6h-5.5c-0.1,0-0.1,0.1-0.1,0.1V161c0,0.1,0,0.1,0.1,0.1h5.5c0.1,0,0.1-0.1,0.1-0.1v-1.7
		c0-0.1,0-0.1-0.1-0.1h-3.5v-2.4h2.6c0.1,0,0.1-0.1,0.1-0.1v-1.7c0-0.1,0-0.1-0.1-0.1h-2.6v-2.1h3.5c0.1,0,0.1-0.1,0.1-0.1v-1.7
		C191.2,150.7,191.2,150.6,191.1,150.6z"/>
    <path d="M160.1,150.6h-4c-0.1,0-0.1,0.1-0.1,0.1V161c0,0.1,0,0.1,0.1,0.1h1.9c0.1,0,0.1-0.1,0.1-0.1v-3.5h1.7
			c1.7,0,2.8-0.9,2.8-3.4C162.6,151.6,161.5,150.6,160.1,150.6z M159.7,155.5h-1.6v-3h1.7c0.4,0,0.6,0.3,0.6,1.5
			C160.4,155.1,160.2,155.5,159.7,155.5z"/>
    <path d="M150.2,150.8c0-0.1-0.1-0.2-0.1-0.2h-2.4c-0.1,0-0.1,0.1-0.1,0.2l-2.6,9.9c0,0.1,0,0.1,0.1,0.2l1.7,0.5
			c0.1,0,0.1,0,0.2-0.1l0.6-2.4h2.8l0.6,2.4c0,0.1,0.1,0.2,0.2,0.1l1.7-0.5c0.1,0,0.1-0.1,0.1-0.2L150.2,150.8z M147.9,156.9l0.7-3.4
			l0.2-1.4l0.2,1.4l0.7,3.4H147.9z"/>
    <path d="M100.6,150.6h-5.5c-0.1,0-0.1,0.1-0.1,0.1V161c0,0.1,0,0.1,0.1,0.1h5.5c0.1,0,0.1-0.1,0.1-0.1v-1.7
		c0-0.1,0-0.1-0.1-0.1h-3.5v-2.4h2.6c0.1,0,0.1-0.1,0.1-0.1v-1.7c0-0.1,0-0.1-0.1-0.1h-2.6v-2.1h3.5c0.1,0,0.1-0.1,0.1-0.1v-1.7
		C100.7,150.7,100.7,150.6,100.6,150.6z"/>
    <path d="M169.4,154.7c-1.3-0.2-1.3-0.3-1.3-1.1c0-0.9,0.1-1.1,1.4-1.1c0.7,0,1.3,0.1,2,0.4c0,0,0.1,0,0.1-0.1l0.2-1.9
		c0-0.1,0-0.2-0.1-0.2c-0.7-0.2-1.6-0.3-2.3-0.3c-2.5,0-3.6,0.9-3.6,3.5c0,2,0.8,2.7,2.6,3c1.4,0.2,1.4,0.5,1.4,1.2
		c0,0.9-0.1,1.1-1.4,1.1c-0.7,0-1.4-0.1-2-0.3c0,0-0.1,0-0.1,0.1l-0.2,1.9c0,0.1,0,0.2,0.1,0.2c0.7,0.2,1.7,0.3,2.4,0.3
		c2.5,0,3.6-0.9,3.6-3.5C172.1,155.9,171.4,155,169.4,154.7z"/>
    <path d="M179.6,152.5c0.8,0,1.5,0.1,2,0.3c0,0,0.1,0,0.1-0.1l0.3-1.9c0-0.1,0-0.2-0.1-0.2c-0.7-0.2-1.5-0.3-2.3-0.3
		c-2.8,0-3.9,1.1-3.9,5.4c0,4.3,1.1,5.5,3.9,5.5c0.8,0,1.6-0.1,2.3-0.3c0.1,0,0.1-0.1,0.1-0.2l-0.3-1.9c0-0.1-0.1-0.1-0.1-0.1
		c-0.5,0.2-1.2,0.3-2,0.3c-1.3,0-1.5-0.3-1.5-3.4C178.1,152.9,178.3,152.5,179.6,152.5z"/>
    <path d="M111.2,150.6h-1.8c-0.1,0-0.1,0.1-0.1,0.1v5.4l0.2,1.7l-0.4-1.6l-2.1-5.5c0-0.1-0.1-0.1-0.2-0.1h-2.2
		c-0.1,0-0.1,0.1-0.1,0.1V161c0,0.1,0,0.1,0.1,0.1h1.8c0.1,0,0.1-0.1,0.1-0.1v-5.4l-0.2-1.7l0.5,1.6l2.1,5.5c0,0.1,0.1,0.1,0.2,0.1
		h2.2c0.1,0,0.1-0.1,0.1-0.1v-10.2C111.3,150.7,111.2,150.6,111.2,150.6z"/>
    <path d="M118.8,154.7c-1.3-0.2-1.3-0.3-1.3-1.1c0-0.9,0.1-1.1,1.4-1.1c0.7,0,1.3,0.1,2,0.4c0,0,0.1,0,0.1-0.1l0.2-1.9
		c0-0.1,0-0.2-0.1-0.2c-0.7-0.2-1.6-0.3-2.3-0.3c-2.5,0-3.6,0.9-3.6,3.5c0,2,0.8,2.7,2.6,3c1.4,0.2,1.4,0.5,1.4,1.2
		c0,0.9-0.1,1.1-1.4,1.1c-0.7,0-1.4-0.1-2-0.3c0,0-0.1,0-0.1,0.1l-0.2,1.9c0,0.1,0,0.2,0.1,0.2c0.7,0.2,1.7,0.3,2.4,0.3
		c2.5,0,3.6-0.9,3.6-3.5C121.5,155.9,120.7,155,118.8,154.7z"/>
    <path d="M141.6,150.6h-1.9c-0.1,0-0.1,0.1-0.1,0.1v3.7h-2.6v-3.7c0-0.1,0-0.1-0.1-0.1h-1.9c-0.1,0-0.1,0.1-0.1,0.1V161
		c0,0.1,0,0.1,0.1,0.1h1.9c0.1,0,0.1-0.1,0.1-0.1v-4.3h2.6v4.3c0,0.1,0,0.1,0.1,0.1h1.9c0.1,0,0.1-0.1,0.1-0.1v-10.2
		C141.7,150.7,141.7,150.6,141.6,150.6z"/>
    <path d="M129,152.5c0.8,0,1.5,0.1,2,0.3c0,0,0.1,0,0.1-0.1l0.3-1.9c0-0.1,0-0.2-0.1-0.2c-0.7-0.2-1.5-0.3-2.3-0.3
		c-2.8,0-3.9,1.1-3.9,5.4c0,4.3,1.1,5.5,3.9,5.5c0.8,0,1.6-0.1,2.3-0.3c0.1,0,0.1-0.1,0.1-0.2l-0.3-1.9c0-0.1-0.1-0.1-0.1-0.1
		c-0.5,0.2-1.2,0.3-2,0.3c-1.3,0-1.5-0.3-1.5-3.4C127.5,152.9,127.7,152.5,129,152.5z"/>
		</g>
</svg>
