<?xml version="1.0" encoding="UTF-8" standalone="no"?>
<!-- Generator: Adobe Illustrator 16.2.1, SVG Export Plug-In . SVG Version: 6.00 Build 0)  -->

<svg
   xmlns:dc="http://purl.org/dc/elements/1.1/"
   xmlns:cc="http://creativecommons.org/ns#"
   xmlns:rdf="http://www.w3.org/1999/02/22-rdf-syntax-ns#"
   xmlns:svg="http://www.w3.org/2000/svg"
   xmlns="http://www.w3.org/2000/svg"
   xmlns:sodipodi="http://sodipodi.sourceforge.net/DTD/sodipodi-0.dtd"
   xmlns:inkscape="http://www.inkscape.org/namespaces/inkscape"
   version="1.2"
   id="Layer_1"
   x="0px"
   y="0px"
   width="79.863564"
   height="37.497501"
   viewBox="0 0 79.863563 37.497502"
   xml:space="preserve"
   sodipodi:docname="trace.svg"
   inkscape:version="0.92.1 r15371"><metadata
     id="metadata83"><rdf:RDF><cc:Work
         rdf:about=""><dc:format>image/svg+xml</dc:format><dc:type
           rdf:resource="http://purl.org/dc/dcmitype/StillImage" /><dc:title></dc:title></cc:Work></rdf:RDF></metadata><defs
     id="defs81" /><sodipodi:namedview
     pagecolor="#ffffff"
     bordercolor="#666666"
     borderopacity="1"
     objecttolerance="10"
     gridtolerance="10"
     guidetolerance="10"
     inkscape:pageopacity="0"
     inkscape:pageshadow="2"
     inkscape:window-width="1847"
     inkscape:window-height="1227"
     id="namedview79"
     showgrid="false"
     fit-margin-top="0"
     fit-margin-left="0"
     fit-margin-right="0"
     fit-margin-bottom="0"
     inkscape:zoom="5.4321556"
     inkscape:cx="39.191"
     inkscape:cy="20.526"
     inkscape:window-x="0"
     inkscape:window-y="0"
     inkscape:window-maximized="0"
     inkscape:current-layer="Layer_1" /><rect
     x="0.017000103"
     y="0"
     width="25.867001"
     height="25.743"
     id="rect2"
     style="fill:#c1bd85" /><rect
     x="26.92"
     y="0"
     width="25.865"
     height="25.743"
     id="rect4"
     style="fill:#c1bd85" /><rect
     x="53.82"
     y="0"
     width="25.865999"
     height="25.743"
     id="rect6"
     style="fill:#c1bd85" /><g
     id="g16"
     transform="translate(-2.85,-4.7509999)"><path
       d="m 31.152,38.085 c -0.568,0 -1.012,-0.129 -1.382,-0.483 l 0.328,-0.326 c 0.267,0.278 0.63,0.387 1.048,0.387 0.554,0 0.896,-0.197 0.896,-0.592 0,-0.292 -0.171,-0.456 -0.561,-0.49 L 30.926,36.534 C 30.27,36.478 29.92,36.186 29.92,35.635 c 0,-0.613 0.521,-0.98 1.238,-0.98 0.479,0 0.91,0.115 1.211,0.36 l -0.321,0.32 c -0.239,-0.184 -0.548,-0.266 -0.896,-0.266 -0.492,0 -0.753,0.211 -0.753,0.552 0,0.286 0.165,0.456 0.589,0.49 l 0.54,0.048 c 0.589,0.054 0.992,0.279 0.992,0.906 10e-4,0.645 -0.554,1.02 -1.368,1.02"
       id="path8"
       inkscape:connector-curvature="0" /><path
       d="m 34.45,38.085 c -0.848,0 -1.492,-0.572 -1.492,-1.716 0,-1.144 0.645,-1.716 1.492,-1.716 0.465,0 0.76,0.122 1.108,0.497 l -0.335,0.312 c -0.253,-0.278 -0.451,-0.374 -0.773,-0.374 -0.328,0 -0.603,0.129 -0.78,0.381 -0.157,0.219 -0.219,0.478 -0.219,0.899 0,0.421 0.062,0.681 0.219,0.899 0.178,0.252 0.452,0.381 0.78,0.381 0.322,0 0.521,-0.103 0.773,-0.381 l 0.335,0.319 c -0.348,0.377 -0.643,0.499 -1.108,0.499"
       id="path10"
       inkscape:connector-curvature="0" /><path
       d="m 38.31,38.044 v -2.07 c 0,-0.586 -0.314,-0.885 -0.821,-0.885 -0.506,0 -0.842,0.306 -0.842,0.885 v 2.07 h -0.492 v -4.848 h 0.492 v 1.865 c 0.247,-0.279 0.568,-0.408 0.945,-0.408 0.759,0 1.211,0.483 1.211,1.238 v 2.152 H 38.31 Z"
       id="path12"
       inkscape:connector-curvature="0" /><path
       d="m 41.567,36.498 h -0.944 c -0.506,0 -0.753,0.204 -0.753,0.593 0,0.388 0.24,0.572 0.772,0.572 0.287,0 0.541,-0.021 0.754,-0.225 0.115,-0.109 0.171,-0.301 0.171,-0.579 z m 0,1.546 v -0.32 c -0.274,0.273 -0.521,0.361 -0.973,0.361 -0.465,0 -0.738,-0.088 -0.95,-0.306 -0.164,-0.164 -0.254,-0.416 -0.254,-0.683 0,-0.585 0.411,-0.966 1.164,-0.966 h 1.013 v -0.32 c 0,-0.49 -0.246,-0.735 -0.862,-0.735 -0.431,0 -0.65,0.102 -0.849,0.381 L 39.521,35.15 c 0.301,-0.389 0.643,-0.497 1.19,-0.497 0.903,0 1.347,0.388 1.347,1.116 v 2.274 h -0.491 z"
       id="path14"
       inkscape:connector-curvature="0" /></g><polygon
     points="43.408,37.077 43.408,38.044 42.915,38.044 42.915,33.196 43.408,33.196 43.408,36.437 44.927,34.694 45.543,34.694 44.4,35.974 45.741,38.044 45.132,38.044 44.064,36.328 "
     id="polygon18"
     transform="translate(-2.85,-4.7509999)" /><g
     id="g34"
     transform="translate(-2.85,-4.7509999)"><path
       d="m 48.088,35.572 c -0.13,-0.307 -0.432,-0.504 -0.787,-0.504 -0.355,0 -0.657,0.197 -0.787,0.504 -0.074,0.185 -0.089,0.286 -0.103,0.559 h 1.779 c -0.013,-0.273 -0.027,-0.374 -0.102,-0.559 m -1.677,0.926 c 0,0.735 0.349,1.157 0.993,1.157 0.389,0 0.614,-0.115 0.882,-0.381 l 0.336,0.293 c -0.342,0.34 -0.657,0.518 -1.232,0.518 -0.889,0 -1.471,-0.531 -1.471,-1.716 0,-1.083 0.526,-1.717 1.382,-1.717 0.869,0 1.382,0.627 1.382,1.621 v 0.225 z"
       id="path20"
       inkscape:connector-curvature="0" /><path
       d="m 50.229,38.044 c -0.588,0 -0.855,-0.381 -0.855,-0.892 v -3.956 h 0.493 v 3.935 c 0,0.327 0.109,0.491 0.451,0.491 h 0.267 v 0.422 z"
       id="path22"
       inkscape:connector-curvature="0" /><path
       d="m 52.139,38.085 c -0.568,0 -1.012,-0.129 -1.382,-0.483 l 0.327,-0.326 c 0.268,0.278 0.631,0.387 1.049,0.387 0.554,0 0.896,-0.197 0.896,-0.592 0,-0.292 -0.171,-0.456 -0.561,-0.49 l -0.555,-0.047 c -0.656,-0.056 -1.006,-0.348 -1.006,-0.899 0,-0.613 0.521,-0.98 1.238,-0.98 0.479,0 0.91,0.115 1.211,0.36 l -0.321,0.32 c -0.239,-0.184 -0.548,-0.266 -0.896,-0.266 -0.492,0 -0.753,0.211 -0.753,0.552 0,0.286 0.165,0.456 0.589,0.49 l 0.54,0.048 c 0.589,0.054 0.992,0.279 0.992,0.906 0,0.645 -0.555,1.02 -1.368,1.02"
       id="path24"
       inkscape:connector-curvature="0" /><path
       d="M 57.646,38.044 V 35.98 c 0,-0.593 -0.322,-0.892 -0.828,-0.892 -0.506,0 -0.835,0.306 -0.835,0.892 v 2.063 h -0.492 v -3.35 h 0.492 v 0.367 c 0.24,-0.272 0.568,-0.408 0.945,-0.408 0.362,0 0.655,0.108 0.861,0.312 0.239,0.232 0.349,0.545 0.349,0.934 v 2.145 h -0.492 z"
       id="path26"
       inkscape:connector-curvature="0" /><path
       d="m 60.904,36.498 h -0.945 c -0.505,0 -0.752,0.204 -0.752,0.593 0,0.388 0.24,0.572 0.772,0.572 0.287,0 0.541,-0.021 0.753,-0.225 0.116,-0.109 0.172,-0.301 0.172,-0.579 z m 0,1.546 v -0.32 c -0.274,0.273 -0.521,0.361 -0.973,0.361 -0.465,0 -0.739,-0.088 -0.95,-0.306 -0.165,-0.164 -0.254,-0.416 -0.254,-0.683 0,-0.585 0.411,-0.966 1.164,-0.966 h 1.013 v -0.32 c 0,-0.49 -0.246,-0.735 -0.862,-0.735 -0.432,0 -0.65,0.102 -0.85,0.381 L 58.857,35.15 c 0.302,-0.389 0.644,-0.497 1.191,-0.497 0.903,0 1.347,0.388 1.347,1.116 v 2.274 h -0.491 z"
       id="path28"
       inkscape:connector-curvature="0" /><path
       d="m 64.161,36.498 h -0.944 c -0.506,0 -0.753,0.204 -0.753,0.593 0,0.388 0.24,0.572 0.774,0.572 0.286,0 0.54,-0.021 0.752,-0.225 0.115,-0.109 0.171,-0.301 0.171,-0.579 z m 0,1.546 v -0.32 c -0.273,0.273 -0.521,0.361 -0.972,0.361 -0.466,0 -0.738,-0.088 -0.95,-0.306 -0.165,-0.164 -0.254,-0.416 -0.254,-0.683 0,-0.585 0.411,-0.966 1.164,-0.966 h 1.012 v -0.32 c 0,-0.49 -0.246,-0.735 -0.862,-0.735 -0.431,0 -0.649,0.102 -0.848,0.381 L 62.115,35.15 c 0.301,-0.389 0.643,-0.497 1.19,-0.497 0.903,0 1.348,0.388 1.348,1.116 v 2.274 h -0.492 z"
       id="path30"
       inkscape:connector-curvature="0" /><path
       d="m 67.391,35.334 c -0.186,-0.185 -0.322,-0.245 -0.581,-0.245 -0.494,0 -0.809,0.388 -0.809,0.898 v 2.057 h -0.492 v -3.351 h 0.492 v 0.409 c 0.186,-0.279 0.555,-0.45 0.944,-0.45 0.322,0 0.568,0.075 0.807,0.313 z"
       id="path32"
       inkscape:connector-curvature="0" /></g><polygon
     points="71.271,35.443 70.395,38.044 69.936,38.044 68.868,34.694 69.401,34.694 70.176,37.383 71.058,34.694 71.482,34.694 72.371,37.383 73.139,34.694 73.672,34.694 72.611,38.044 72.152,38.044 "
     id="polygon36"
     transform="translate(-2.85,-4.7509999)" /><g
     id="g42"
     transform="translate(-2.85,-4.7509999)"><path
       d="m 75.97,35.572 c -0.13,-0.307 -0.431,-0.504 -0.786,-0.504 -0.356,0 -0.657,0.197 -0.787,0.504 -0.075,0.185 -0.089,0.286 -0.104,0.559 h 1.779 C 76.06,35.858 76.045,35.757 75.97,35.572 m -1.677,0.926 c 0,0.735 0.35,1.157 0.993,1.157 0.389,0 0.615,-0.115 0.882,-0.381 l 0.336,0.293 c -0.342,0.34 -0.656,0.518 -1.231,0.518 -0.89,0 -1.472,-0.531 -1.472,-1.716 0,-1.083 0.526,-1.717 1.383,-1.717 0.868,0 1.382,0.627 1.382,1.621 v 0.225 z"
       id="path38"
       inkscape:connector-curvature="0" /><path
       d="m 79.152,35.334 c -0.186,-0.185 -0.322,-0.245 -0.581,-0.245 -0.494,0 -0.809,0.388 -0.809,0.898 v 2.057 H 77.27 v -3.351 h 0.493 v 0.409 c 0.186,-0.279 0.554,-0.45 0.944,-0.45 0.322,0 0.568,0.075 0.807,0.313 z"
       id="path40"
       inkscape:connector-curvature="0" /></g><polygon
     points="80.302,37.077 80.302,38.044 79.809,38.044 79.809,33.196 80.302,33.196 80.302,36.437 81.82,34.694 82.437,34.694 81.294,35.974 82.635,38.044 82.025,38.044 80.958,36.328 "
     id="polygon44"
     transform="translate(-2.85,-4.7509999)" /><line
     x1="79.862999"
     y1="36.957001"
     x2="26.940001"
     y2="37.02"
     id="line46"
     style="fill:none;stroke:#c1bd85;stroke-width:0.95499998" /><polygon
     points="4.917,21.023 4.917,14.566 2.85,14.566 2.85,13.548 8.124,13.548 8.124,14.566 6.057,14.566 6.057,21.023 "
     id="polygon48"
     transform="translate(-2.85,-4.7509999)" /><g
     id="g52"
     transform="translate(-2.85,-4.7509999)"><path
       d="m 12.249,14.566 h -1.688 v 2.341 h 1.688 c 0.761,0 1.277,-0.43 1.277,-1.165 0,-0.734 -0.516,-1.176 -1.277,-1.176 m 1.319,6.457 -1.582,-3.149 h -1.425 v 3.149 h -1.14 v -7.476 h 2.912 c 1.425,0 2.331,0.914 2.331,2.184 0,1.071 -0.653,1.754 -1.498,1.985 l 1.731,3.307 z"
       id="path50"
       inkscape:connector-curvature="0" /></g><path
     d="m 15.825,10.487 -1.171,3.318 h 2.31 z m 1.972,5.785 -0.517,-1.501 h -2.965 l -0.518,1.501 h -1.213 l 2.754,-7.4759999 h 0.917 L 19.01,16.272 Z"
     id="path54"
     inkscape:connector-curvature="0" /><g
     id="g58"
     transform="translate(-2.85,-4.7509999)"><path
       d="m 25.09,21.087 c -0.781,0 -1.456,-0.283 -1.974,-0.798 -0.737,-0.735 -0.728,-1.565 -0.728,-3.004 0,-1.438 -0.01,-2.268 0.728,-3.003 0.518,-0.514 1.192,-0.798 1.974,-0.798 1.382,0 2.416,0.81 2.68,2.3 h -1.16 c -0.18,-0.756 -0.686,-1.28 -1.52,-1.28 -0.443,0 -0.845,0.168 -1.108,0.451 -0.369,0.398 -0.454,0.829 -0.454,2.33 0,1.501 0.085,1.933 0.454,2.331 0.264,0.284 0.665,0.451 1.108,0.451 0.834,0 1.351,-0.524 1.529,-1.281 h 1.15 c -0.252,1.491 -1.319,2.301 -2.679,2.301"
       id="path56"
       inkscape:connector-curvature="0" /></g><path
     d="m 30.269,8.0720001 h -0.813 l 0.792,-1.7 H 31.44 Z M 27.705,16.272 V 8.7960001 h 4.801 v 1.019 H 28.845 V 12 h 3.123 v 1.007 h -3.123 v 2.247 h 3.661 v 1.019 h -4.801 z"
     id="path60"
     inkscape:connector-curvature="0" /><g
     id="g72"
     transform="translate(-2.85,-4.7509999)"><path
       d="m 39.85,17.727 h -1.793 v 2.278 h 1.793 c 0.792,0 1.235,-0.482 1.235,-1.145 0,-0.663 -0.443,-1.133 -1.235,-1.133 m -0.106,-3.161 h -1.688 v 2.143 h 1.688 c 0.729,0 1.225,-0.378 1.225,-1.071 0,-0.693 -0.496,-1.072 -1.225,-1.072 m 0.212,6.457 h -3.039 v -7.476 h 2.923 c 1.393,0 2.268,0.788 2.268,2.048 0,0.808 -0.506,1.385 -1.013,1.585 0.581,0.23 1.129,0.788 1.129,1.732 0,1.377 -0.94,2.111 -2.268,2.111"
       id="path62"
       inkscape:connector-curvature="0"
       style="fill:#ffffff" /><path
       d="m 46.212,14.566 h -1.688 v 2.341 h 1.688 c 0.76,0 1.277,-0.43 1.277,-1.165 0,-0.734 -0.517,-1.176 -1.277,-1.176 m 1.319,6.457 -1.583,-3.149 h -1.424 v 3.149 h -1.141 v -7.476 h 2.912 c 1.425,0 2.332,0.914 2.332,2.184 0,1.071 -0.653,1.754 -1.498,1.985 l 1.73,3.307 z"
       id="path64"
       inkscape:connector-curvature="0"
       style="fill:#ffffff" /><path
       d="m 52.078,21.087 c -1.528,0 -2.689,-1.039 -2.689,-2.583 v -4.956 h 1.139 v 4.903 c 0,0.997 0.612,1.616 1.551,1.616 0.94,0 1.562,-0.619 1.562,-1.616 v -4.903 h 1.139 v 4.956 c -10e-4,1.544 -1.172,2.583 -2.702,2.583"
       id="path66"
       inkscape:connector-curvature="0"
       style="fill:#ffffff" /><path
       d="m 59.938,21.087 c -1.129,0 -1.941,-0.263 -2.659,-0.987 l 0.76,-0.745 c 0.549,0.546 1.15,0.713 1.92,0.713 0.982,0 1.551,-0.419 1.551,-1.144 0,-0.326 -0.095,-0.6 -0.295,-0.777 -0.19,-0.178 -0.38,-0.252 -0.823,-0.314 l -0.886,-0.126 c -0.611,-0.084 -1.098,-0.295 -1.425,-0.6 -0.369,-0.346 -0.549,-0.817 -0.549,-1.427 0,-1.302 0.95,-2.195 2.512,-2.195 0.991,0 1.688,0.252 2.331,0.852 l -0.728,0.713 c -0.464,-0.44 -1.002,-0.577 -1.636,-0.577 -0.886,0 -1.371,0.504 -1.371,1.166 0,0.272 0.085,0.514 0.285,0.693 0.189,0.168 0.495,0.294 0.844,0.346 l 0.854,0.126 c 0.696,0.104 1.087,0.272 1.403,0.557 0.411,0.357 0.612,0.893 0.612,1.533 0.002,1.374 -1.128,2.193 -2.7,2.193"
       id="path68"
       inkscape:connector-curvature="0"
       style="fill:#ffffff" /><path
       d="m 66.163,21.087 c -1.129,0 -1.94,-0.263 -2.659,-0.987 l 0.761,-0.745 c 0.549,0.546 1.149,0.713 1.92,0.713 0.981,0 1.551,-0.419 1.551,-1.144 0,-0.326 -0.095,-0.6 -0.295,-0.777 -0.191,-0.178 -0.38,-0.252 -0.824,-0.314 l -0.885,-0.126 c -0.612,-0.084 -1.099,-0.295 -1.425,-0.6 -0.369,-0.346 -0.549,-0.817 -0.549,-1.427 0,-1.302 0.949,-2.195 2.512,-2.195 0.991,0 1.688,0.252 2.331,0.852 l -0.729,0.713 c -0.464,-0.44 -1.002,-0.577 -1.636,-0.577 -0.885,0 -1.371,0.504 -1.371,1.166 0,0.272 0.085,0.514 0.285,0.693 0.189,0.168 0.496,0.294 0.844,0.346 l 0.855,0.126 c 0.695,0.104 1.087,0.272 1.402,0.557 0.411,0.357 0.612,0.893 0.612,1.533 0.001,1.374 -1.128,2.193 -2.7,2.193"
       id="path70"
       inkscape:connector-curvature="0"
       style="fill:#ffffff" /></g><polygon
     points="75.195,13.548 75.195,14.566 71.533,14.566 71.533,16.751 74.656,16.751 74.656,17.758 71.533,17.758 71.533,20.005 75.195,20.005 75.195,21.023 70.395,21.023 70.395,13.548 "
     id="polygon74"
     style="fill:#ffffff"
     transform="translate(-2.85,-4.7509999)" /><polygon
     points="77.896,13.548 77.896,20.005 81.515,20.005 81.515,21.023 76.757,21.023 76.757,13.548 "
     id="polygon76"
     style="fill:#ffffff"
     transform="translate(-2.85,-4.7509999)" /></svg>