<svg width="170" height="49" viewBox="0 0 170 49" xmlns="http://www.w3.org/2000/svg"><title>Unia</title><g fill="none"><path d="M.1 22.4C.9 10.3 10.9.5 23.1 0 29.3-.2 35 1.8 39.4 5.4c1.4 1.1 3.4 1.1 4.8-.2C48 2.2 52.7.3 57.8 0c6.3-.3 12.1 1.7 16.5 5.4 1.3 1.1 3.2 1.1 4.6 0C83.1 2 88.4 0 94.1 0h1.3c9.3.5 17.3 6.3 20.9 14.5 2.1 4.5 5.9 3.4 7.3.2C127.2 6.1 135.8 0 145.8 0 159.2 0 170 10.8 170 24.2c0 13.3-10.8 24.2-24.2 24.2-9.9 0-18.4-6-22.2-14.5-1.3-3.4-5.2-4.6-7.4-.1-3.7 8.6-12.2 14.6-22.2 14.6-5.8 0-11.1-2-15.2-5.4-1.3-1.1-3.2-1.1-4.6 0-4.2 3.4-9.4 5.4-15.2 5.4-5.7 0-10.9-2-15-5.2-1.4-1.2-3.3-1.3-4.7-.2-4.2 3.4-9.4 5.4-15.2 5.4-13.9-.1-25-11.8-24-26z" fill="#A00656"/><path d="M95.4 12h-2.7c-.6 0-1.1.5-1.1 1.1v21c0 .6.5 1.1 1.1 1.1h2.7c.6 0 1.1-.5 1.1-1.1v-21c0-.6-.5-1.1-1.1-1.1zM27.9 27.5c0 2.5-1.4 4-3.8 4-2.3 0-3.7-1.5-3.7-4V13.1c0-.6-.5-1.1-1.1-1.1h-2.5c-.6 0-1.1.5-1.1 1.1v14.5c0 4.7 3.6 8.2 8.6 8.2s8.6-3.4 8.6-8.2V13.1c0-.6-.5-1.1-1.1-1.1h-2.5c-.6 0-1.1.5-1.1 1.1v14.4h-.3zm35.2-2.1L55 12.9c-.4-.6-1-.9-1.7-.9h-2c-.7 0-1.2.5-1.2 1.2v20.6c0 .8.6 1.4 1.4 1.4h2c.8 0 1.4-.6 1.4-1.4V21.6L63 34.2c.4.6 1 .9 1.7.9h2c.7 0 1.2-.5 1.2-1.2V13.3c0-.8-.6-1.4-1.4-1.4h-2c-.8 0-1.4.6-1.4 1.4v12.1zm83.6-13.8H145c-.6 0-1.2.4-1.4 1L136 33.4c-.2.7.3 1.4 1 1.4h2.6c.6 0 1.1-.4 1.3-.9l1.1-3.1h7.8l1 3.1c.2.6.7.9 1.3.9h2.6c.7 0 1.2-.7 1-1.4l-7.6-20.8c-.2-.6-.8-1-1.4-1zm1.8 15h-5.1l2.6-7.5 2.5 7.5z" fill="#FFF"/></g></svg>