<svg xmlns="http://www.w3.org/2000/svg" width="151" height="101" viewBox="0 0 151 101"><path fill="#fff" d="M34.038 35.868l-4.184-8.222-4.328 8.259-3.31-7.421h-5.348l8.44 16.878 4.401-8.075 4.438 8.075 8.44-16.878h-5.129l-3.42 7.384zm15.533-7.384h-4.947v16.443h4.947v-16.443zm18.043-11.205h-4.947v27.648h4.947v-27.648zm12.404 28.083c3.093 0 5.166-1.127 6.767-3.128l-3.274-3.055c-.837.872-1.928 1.636-3.564 1.636-2.037 0-3.602-1.055-4.11-2.729h12.659c.073-.473.073-.836.073-1.382 0-4.911-3.602-8.658-8.84-8.658-5.166 0-9.059 3.747-9.059 8.658s3.892 8.658 9.348 8.658zm-.29-13.314c1.818 0 3.455 1.055 3.819 2.801h-7.64c.401-1.6 2.073-2.801 3.821-2.801zm30.084-4.001c-2.183 0-3.784.945-4.983 2.364-1.129-1.491-2.838-2.364-4.948-2.364-2.4 0-4.11 1.165-5.348 2.801l-2.837-2.801h-.364v16.88h4.947v-9.35c0-1.855 1.201-2.983 2.583-2.983 1.455 0 2.4 1.127 2.4 2.946v9.386h4.948v-9.604c.109-1.71 1.273-2.729 2.583-2.729 1.455 0 2.4 1.127 2.4 2.946v21.083c-.982-.545-2.437-.982-4.038-.982-5.165 0-9.13 3.746-9.13 8.657 0 4.912 3.602 8.658 8.657 8.658 2.765 0 4.911-1.127 6.257-2.801l2.837 2.801h.364v-37.853c.001-4.254-2.473-7.055-6.328-7.055zm-2.657 40.363c-2.291 0-4.001-1.674-4.001-4.111s1.674-4.11 4.001-4.11c2.401 0 4.038 1.674 4.038 4.11 0 2.437-1.709 4.111-4.038 4.111zm18.226-26.867c-1.892 0-3.093-.874-4.221-2.256l-2.764 2.547c1.637 2.437 4.22 3.528 7.275 3.528 4.184 0 6.366-2.328 6.366-4.984 0-2.11-1.019-3.855-4.366-5.201l-1.671-.655c-1.638-.655-2.11-.946-2.11-1.601 0-.546.509-1.055 1.564-1.055 1.163 0 2.364.691 3.455 1.637l2.293-2.982c-1.456-1.601-3.603-2.474-5.967-2.474-3.492 0-6.221 2.074-6.221 4.838 0 2.219 1.091 3.711 3.893 4.911l2.364 1.018c1.601.692 1.928 1.056 1.928 1.675 0 .545-.436 1.054-1.818 1.054zm-71.255 11.37c0-2.291 2.611-3.347 4.466-3.347v-32.287h-4.947v28.185l.031-.003c-2.633 1.03-4.497 3.436-4.497 7.343v3.275l-2.801 4.001v.363h2.801v20.809h4.947v-20.809h3.166v-4.364h-3.166v-3.166zm13.46 2.729c-5.164 0-9.13 3.746-9.13 8.657 0 4.912 3.966 8.658 9.13 8.658 5.202 0 9.168-3.746 9.168-8.658 0-4.911-3.929-8.657-9.168-8.657zm0 12.768c-2.292 0-4.001-1.674-4.001-4.111s1.673-4.11 4.001-4.11c2.401 0 4.039 1.674 4.039 4.11 0 2.437-1.711 4.111-4.039 4.111zm21.026-12.768c-2.51 0-4.256 1.128-5.603 2.801l-2.837-2.801h-.362v16.879h4.947v-9.203c0-1.964 1.236-3.129 2.838-3.129 1.673 0 2.655 1.165 2.655 3.092v9.24h4.947v-9.821c0-4.258-2.437-7.058-6.585-7.058zm39.287 7.129l-1.673-.654c-1.637-.655-2.11-.946-2.11-1.601 0-.546.51-1.056 1.564-1.056 1.164 0 2.364.691 3.456 1.638l2.292-2.984c-1.456-1.6-3.602-2.473-5.967-2.473-3.491 0-6.221 2.073-6.221 4.838 0 2.22 1.092 3.711 3.893 4.911l2.364 1.019c1.602.691 1.929 1.055 1.929 1.674 0 .546-.437 1.056-1.819 1.056-1.892 0-3.092-.875-4.22-2.257l-2.765 2.547c1.637 2.438 4.22 3.528 7.276 3.528 4.184 0 6.365-2.328 6.365-4.983.002-2.111-1.017-3.857-4.364-5.203z"/><path fill="#E7B128" d="M47.093 25.106c1.359 0 2.461-1.102 2.461-2.461s-1.102-2.461-2.461-2.461c-1.36 0-2.461 1.102-2.461 2.461s1.101 2.461 2.461 2.461zm20.418 41.551c1.279 0 2.315-1.037 2.315-2.316s-1.036-2.316-2.315-2.316c-1.28 0-2.317 1.037-2.317 2.316s1.036 2.316 2.317 2.316zm39.811 0c1.279 0 2.316-1.037 2.316-2.316s-1.037-2.316-2.316-2.316-2.317 1.037-2.317 2.316 1.038 2.316 2.317 2.316zm-16.801 10.551h-.011l-2.999-2.96h-.008l-3.006 2.96h-.012l.003.009-.003.003h.004l3.005 6.861h.017l3.006-6.861h.004l-.003-.003.003-.009z"/></svg>