<?xml version="1.0" encoding="utf-8"?>
<!-- Generator: Adobe Illustrator 27.1.1, SVG Export Plug-In . SVG Version: 6.00 Build 0)  -->
<svg version="1.1" id="Layer_1" xmlns="http://www.w3.org/2000/svg" xmlns:xlink="http://www.w3.org/1999/xlink" x="0px" y="0px"
	 viewBox="0 0 560 379.4" style="enable-background:new 0 0 560 379.4;" xml:space="preserve">
<style type="text/css">
	.st0{fill:#16848B;}
	.st1{fill:none;}
	.st2{fill:#FFFFFF;}
	.st3{font-family:'Impact';}
	.st4{font-size:8px;}
	.st5{font-size:6px;}
</style>
<g id="pO6mb4.tif">
	
		<image style="overflow:visible;" width="2027" height="2036" id="Layer_0_00000016781827777007519170000007901344978543868554_" xlink:href="89279E6D1AF0940E.png"  transform="matrix(3.193059e-02 0 0 3.193059e-02 296.8397 99.1787)">
	</image>
</g>
<g id="bpGpJC_00000182490899901314244440000000109115947204653708_">
	
		<image style="overflow:visible;" width="848" height="852" id="bpGpJC_00000044136844447411820070000012317894696609580168_" xlink:href="89279E6D1AF09412.jpg"  transform="matrix(7.451282e-02 0 0 7.451282e-02 230.3555 101.5795)">
	</image>
</g>
<image style="overflow:visible;" width="356" height="360" xlink:href="../../../full project I/organigram/Screenshot 2023-02-02 at 22.51.02.png"  transform="matrix(0.1963 0 0 0.1963 163.9606 8.0734)">
</image>
<image style="overflow:visible;" width="327" height="339" xlink:href="89279E6D1AF09416.png"  transform="matrix(0.1936 0 0 0.1936 89.7431 93.7801)">
</image>
<rect x="167.6" y="74.2" class="st0" width="62.7" height="23.4"/>
<rect x="171.5" y="79" class="st1" width="111.8" height="13.8"/>
<text transform="matrix(1 0 0 1 171.4828 85.3145)" class="st2 st3 st4">Selamet Belkiran</text>
<text transform="matrix(1 0 0 1 187.4273 92.8284)" class="st3 st5">Directeur</text>
<image style="overflow:visible;" width="307" height="332" xlink:href="89279E6D1AF09415.png"  transform="matrix(0.2207 0 0 0.2207 379.3032 95.0406)">
</image>
<image style="overflow:visible;" width="345" height="340" xlink:href="89279E6D1AF09412.png"  transform="matrix(0.2151 0 0 0.2151 457.1045 95.1192)">
</image>
<image style="overflow:visible;" width="331" height="347" xlink:href="89279E6D1AF0941D.png"  transform="matrix(0.2029 0 0 0.2029 16.3177 179.6313)">
</image>
<image style="overflow:visible;" width="321" height="341" xlink:href="89279E6D1AF0941E.png"  transform="matrix(0.2029 0 0 0.2029 89.8261 180.2414)">
</image>
<image style="overflow:visible;" width="320" height="348" xlink:href="89279E6D1AF0941C.png"  transform="matrix(0.2071 0 0 0.2071 161.1114 180.2414)">
</image>
<rect x="376.8" y="165.1" class="st0" width="70.3" height="23.4"/>
<rect x="90.1" y="155.8" class="st0" width="62.7" height="23.4"/>
<rect x="297.9" y="165.1" class="st0" width="62.7" height="23.4"/>
<rect x="458.8" y="165.1" class="st0" width="74.2" height="23.4"/>
<rect x="87.8" y="250.9" class="st0" width="67.1" height="23.4"/>
<rect x="16.3" y="250.9" class="st0" width="62.7" height="23.4"/>
<rect x="223.5" y="165.1" class="st0" width="67" height="23.4"/>
<rect x="421.7" y="268.8" class="st0" width="62.7" height="23.4"/>
<rect x="162.9" y="250.9" class="st0" width="62.7" height="23.4"/>
<image style="overflow:visible;" width="346" height="346" xlink:href="D2B9E5C4E4C56651.png"  transform="matrix(0.2016 0 0 0.2016 418.1434 196.6722)">
</image>
<image style="overflow:visible;" width="341" height="347" xlink:href="D2B9E5C4E4C56657.png"  transform="matrix(0.201 0 0 0.201 245.7324 252.3034)">
</image>
<image style="overflow:visible;" width="347" height="350" xlink:href="D2B9E5C4E4C56650.png"  transform="matrix(0.2094 0 0 0.2094 317.1967 250.5229)">
</image>
<rect x="322.2" y="323.8" class="st0" width="62.7" height="23.4"/>
<rect x="245.7" y="323.8" class="st0" width="62.7" height="23.4"/>
<rect x="224.1" y="168.1" class="st1" width="106.1" height="11.5"/>
<text transform="matrix(1 0 0 1 224.1075 174.4663)" class="st2 st3 st4">Fien van der Hoeven</text>
<rect x="33.9" y="253.8" class="st1" width="111.8" height="13.8"/>
<text transform="matrix(1 0 0 1 33.9336 260.1724)" class="st2 st3 st4">Omar Ba</text>
<rect x="107" y="160.5" class="st1" width="111.8" height="13.8"/>
<text transform="matrix(1 0 0 1 107.0101 166.8517)" class="st2 st3 st4">Fatih Ari</text>
<rect x="299" y="168.3" class="st1" width="111.8" height="13.8"/>
<text transform="matrix(1 0 0 1 298.9865 174.601)" class="st2 st3 st4">Nazlihan Gunaydin</text>
<rect x="388.6" y="169.8" class="st1" width="111.8" height="13.8"/>
<text transform="matrix(1 0 0 1 388.6357 176.1531)" class="st2 st3 st4">Joachim T’Sas</text>
<rect x="462.4" y="168.1" class="st1" width="111.8" height="13.8"/>
<text transform="matrix(1 0 0 1 462.3625 174.4663)" class="st2 st3 st4">Busharo Yusuf Ismail</text>
<rect x="169.7" y="253.8" class="st1" width="111.8" height="13.8"/>
<text transform="matrix(1 0 0 1 169.6917 260.1724)" class="st2 st3 st4">Hadjer Zaghrat</text>
<rect x="330.2" y="327" class="st1" width="111.8" height="13.8"/>
<text transform="matrix(1 0 0 1 330.2287 333.2977)" class="st2 st3 st4">Odette Hannes</text>
<rect x="257.3" y="327" class="st1" width="111.8" height="13.8"/>
<text transform="matrix(1 0 0 1 257.2593 333.2977)" class="st2 st3 st4">Nejla Torun</text>
<rect x="89.7" y="253.8" class="st1" width="111.8" height="13.8"/>
<text transform="matrix(1 0 0 1 89.743 260.1724)" class="st2 st3 st4">Clarisse Nyilimanzi</text>
<rect x="425" y="271.6" class="st1" width="111.8" height="13.8"/>
<text transform="matrix(1 0 0 1 424.9577 277.9319)" class="st2 st3 st4">Sven  Van Damme</text>
<text transform="matrix(1 0 0 1 230.3556 183.6673)" class="st3 st5">Ondersteuning coach</text>
<text transform="matrix(0.9692 0 0 1 96.2131 174.4658)" class="st3 st5">Zakelijke coördinator</text>
<text transform="matrix(1 0 0 1 35.8635 269.467)" class="st3 st5">Job coach</text>
<text transform="matrix(1 0 0 1 468.8659 183.8411)" class="st3 st5">Logistiek ondersteuner</text>
<text transform="matrix(1 0 0 1 378.3981 183.7388)" class="st3 st5">Communicatie medewerker</text>
<text transform="matrix(1 0 0 1 262.6382 340.8122)" class="st3 st5">Vrijwilliger</text>
<text transform="matrix(1 0 0 1 429.4736 287.1736)" class="st3 st5">Beleidsondernemer</text>
<text transform="matrix(1 0 0 1 302.3797 183.6677)" class="st3 st5">Ondersteuning coach</text>
<text transform="matrix(1 0 0 1 110.5098 269.6106)" class="st3 st5">Job coach</text>
<text transform="matrix(1 0 0 1 182.9981 269.6823)" class="st3 st5">Job coach</text>
<text transform="matrix(1 0 0 1 339.8923 340.8121)" class="st3 st5">Vrijwilliger</text>
</svg>
